G04 #@! TF.FileFunction,Soldermask,Bot*
%FSLAX46Y46*%
G04 Gerber Fmt 4.6, Leading zero omitted, Abs format (unit mm)*
G04 Created by KiCad (PCBNEW 4.0.2-stable) date Monday, 16 January 2017 'pmt' 17:48:17*
%MOMM*%
G01*
G04 APERTURE LIST*
%ADD10C,0.100000*%
%ADD11C,2.900000*%
%ADD12C,3.399740*%
%ADD13C,1.901140*%
%ADD14O,2.400000X1.900000*%
%ADD15R,2.400000X1.900000*%
%ADD16R,4.200000X4.200000*%
%ADD17R,2.432000X2.127200*%
%ADD18O,2.432000X2.127200*%
%ADD19C,1.400000*%
%ADD20O,2.100000X1.800000*%
G04 APERTURE END LIST*
D10*
D11*
X167529520Y-131150480D03*
X152529520Y-131150480D03*
X147529520Y-131150480D03*
X142529520Y-131150480D03*
X142529520Y-138600480D03*
X147529520Y-138600480D03*
X152529520Y-138600480D03*
X167519520Y-138660480D03*
X162529520Y-131150480D03*
X162529520Y-138600480D03*
D12*
X182865380Y-74796460D03*
X182865380Y-61654500D03*
D13*
X180155200Y-71725600D03*
X180155200Y-69226240D03*
X180155200Y-67224720D03*
X180155200Y-64725360D03*
D12*
X129029140Y-60779020D03*
X129029140Y-73920980D03*
D13*
X131739320Y-63849880D03*
X131739320Y-66349240D03*
X131739320Y-68350760D03*
X131739320Y-70850120D03*
D14*
X187164520Y-46635480D03*
X190204520Y-46635480D03*
D15*
X190204520Y-54255480D03*
D14*
X187164520Y-54255480D03*
X190204520Y-51715480D03*
X187164520Y-51715480D03*
X190204520Y-49175480D03*
X187164520Y-49175480D03*
X124670000Y-54010000D03*
X121630000Y-54010000D03*
D15*
X121630000Y-46390000D03*
D14*
X124670000Y-46390000D03*
X121630000Y-48930000D03*
X124670000Y-48930000D03*
X121630000Y-51470000D03*
X124670000Y-51470000D03*
D16*
X183119380Y-134265480D03*
X189118860Y-134265480D03*
X186119120Y-129566480D03*
D12*
X182865380Y-124961460D03*
X182865380Y-111819500D03*
D13*
X180155200Y-121890600D03*
X180155200Y-119391240D03*
X180155200Y-117389720D03*
X180155200Y-114890360D03*
D16*
X128844660Y-134265480D03*
X122845180Y-134265480D03*
X125844920Y-138964480D03*
D17*
X190700000Y-93500000D03*
D18*
X190700000Y-96040000D03*
X190700000Y-98580000D03*
X190700000Y-101120000D03*
X190700000Y-103660000D03*
X190700000Y-106200000D03*
D19*
X123725000Y-100775000D03*
X123725000Y-105625000D03*
D20*
X120725000Y-99687500D03*
X120725000Y-106712500D03*
D19*
X123725000Y-117275000D03*
X123725000Y-122125000D03*
D20*
X120725000Y-116187500D03*
X120725000Y-123212500D03*
M02*
