G04 #@! TF.FileFunction,Soldermask,Bot*
%FSLAX46Y46*%
G04 Gerber Fmt 4.6, Leading zero omitted, Abs format (unit mm)*
G04 Created by KiCad (PCBNEW 4.0.2-stable) date Monday, 12 December 2016 'pmt' 19:53:29*
%MOMM*%
G01*
G04 APERTURE LIST*
%ADD10C,0.100000*%
%ADD11C,3.100000*%
%ADD12C,2.900000*%
%ADD13C,3.399740*%
%ADD14C,1.901140*%
%ADD15O,2.400000X1.900000*%
%ADD16R,2.400000X1.900000*%
%ADD17R,4.200000X4.200000*%
%ADD18C,2.398980*%
%ADD19R,2.432000X2.127200*%
%ADD20O,2.432000X2.127200*%
%ADD21C,1.400000*%
%ADD22O,2.100000X1.800000*%
G04 APERTURE END LIST*
D10*
D11*
X122000000Y-37000000D03*
X190000000Y-37000000D03*
X122000000Y-144000000D03*
D12*
X167529520Y-131150480D03*
X152529520Y-131150480D03*
X147529520Y-131150480D03*
X142529520Y-131150480D03*
X142529520Y-138600480D03*
X147529520Y-138600480D03*
X152529520Y-138600480D03*
X167519520Y-138660480D03*
X162529520Y-131150480D03*
X162529520Y-138600480D03*
D13*
X182865380Y-74796460D03*
X182865380Y-61654500D03*
D14*
X180155200Y-71725600D03*
X180155200Y-69226240D03*
X180155200Y-67224720D03*
X180155200Y-64725360D03*
D13*
X129029140Y-60779020D03*
X129029140Y-73920980D03*
D14*
X131739320Y-63849880D03*
X131739320Y-66349240D03*
X131739320Y-68350760D03*
X131739320Y-70850120D03*
D15*
X187164520Y-46635480D03*
X190204520Y-46635480D03*
D16*
X190204520Y-54255480D03*
D15*
X187164520Y-54255480D03*
X190204520Y-51715480D03*
X187164520Y-51715480D03*
X190204520Y-49175480D03*
X187164520Y-49175480D03*
X124670000Y-54010000D03*
X121630000Y-54010000D03*
D16*
X121630000Y-46390000D03*
D15*
X124670000Y-46390000D03*
X121630000Y-48930000D03*
X124670000Y-48930000D03*
X121630000Y-51470000D03*
X124670000Y-51470000D03*
D17*
X183119380Y-134265480D03*
X189118860Y-134265480D03*
X186119120Y-129566480D03*
D13*
X182865380Y-124961460D03*
X182865380Y-111819500D03*
D14*
X180155200Y-121890600D03*
X180155200Y-119391240D03*
X180155200Y-117389720D03*
X180155200Y-114890360D03*
D17*
X128844660Y-134265480D03*
X122845180Y-134265480D03*
X125844920Y-138964480D03*
D18*
X137160000Y-57404000D03*
X137160000Y-47244000D03*
X181051200Y-55778400D03*
X170891200Y-55778400D03*
D19*
X190246000Y-93878400D03*
D20*
X190246000Y-96418400D03*
X190246000Y-98958400D03*
X190246000Y-101498400D03*
X190246000Y-104038400D03*
X190246000Y-106578400D03*
D11*
X190000000Y-144000000D03*
D21*
X123725000Y-100775000D03*
X123725000Y-105625000D03*
D22*
X120725000Y-99687500D03*
X120725000Y-106712500D03*
D21*
X123725000Y-117275000D03*
X123725000Y-122125000D03*
D22*
X120725000Y-116187500D03*
X120725000Y-123212500D03*
M02*
