M48
;DRILL file {KiCad 4.0.2-stable} date Monday, 16 January 2017 'pmt' 17:48:03
;FORMAT={-:-/ absolute / metric / decimal}
FMAT,2
METRIC,TZ
T1C0.400
T2C0.899
T3C1.000
T4C1.016
T5C1.100
T6C1.300
T7C1.999
T8C0.800
%
G90
G05
M71
T1
X122.25Y-87.25
X125.5Y-101.5
X126.Y-56.25
X127.Y-118.872
X128.25Y-111.75
X132.25Y-108.
X133.75Y-101.25
X136.9Y-44.3
X141.4Y-44.7
X148.Y-96.
X149.Y-89.5
X149.75Y-60.25
X149.95Y-95.35
X150.Y-64.
X151.2Y-89.85
X152.45Y-95.35
X152.75Y-62.
X152.95Y-92.85
X153.34Y-84.226
X153.5Y-82.25
X153.518Y-86.208
X153.721Y-87.579
X154.2Y-92.35
X154.5Y-62.
X154.95Y-95.1
X155.778Y-87.3
X156.Y-61.75
X156.Y-67.
X156.8Y-54.3
X157.556Y-87.249
X157.75Y-81.
X160.25Y-80.5
X160.25Y-87.5
X160.68Y-61.163
X163.25Y-114.75
X164.7Y-119.6
X164.75Y-70.
X167.Y-71.
X168.Y-63.1
X168.148Y-79.756
X168.148Y-89.408
X169.75Y-68.5
X170.Y-113.5
X171.95Y-71.35
X171.95Y-78.6
X173.736Y-100.076
X174.5Y-70.5
X174.752Y-104.14
X176.5Y-76.
X176.5Y-79.75
X176.7Y-44.7
X177.Y-86.5
X178.41Y-96.977
X179.2Y-98.2
X180.25Y-87.
X180.8Y-40.6
X181.1Y-96.3
X183.1Y-91.9
X183.2Y-89.1
X183.7Y-95.6
X184.75Y-91.5
X184.861Y-66.142
X185.014Y-82.855
X185.2Y-64.
X188.1Y-69.5
T2
X131.739Y-63.85
X131.739Y-66.349
X131.739Y-68.351
X131.739Y-70.85
X180.155Y-64.725
X180.155Y-67.225
X180.155Y-69.226
X180.155Y-71.726
X180.155Y-114.89
X180.155Y-117.39
X180.155Y-119.391
X180.155Y-121.891
T3
X121.88Y-46.39
X121.88Y-48.93
X121.88Y-51.47
X121.88Y-54.01
X124.42Y-46.39
X124.42Y-48.93
X124.42Y-51.47
X124.42Y-54.01
X187.415Y-46.635
X187.415Y-49.175
X187.415Y-51.715
X187.415Y-54.255
X189.955Y-46.635
X189.955Y-49.175
X189.955Y-51.715
X189.955Y-54.255
T4
X190.7Y-93.5
X190.7Y-96.04
X190.7Y-98.58
X190.7Y-101.12
X190.7Y-103.66
X190.7Y-106.2
T6
X142.53Y-131.15
X142.53Y-138.6
X147.53Y-131.15
X147.53Y-138.6
X152.53Y-131.15
X152.53Y-138.6
X162.53Y-131.15
X162.53Y-138.6
X167.52Y-138.66
X167.53Y-131.15
T7
X129.029Y-60.779
X129.029Y-73.921
X182.865Y-61.654
X182.865Y-74.796
X182.865Y-111.819
X182.865Y-124.961
T8
X123.725Y-100.775
X123.725Y-105.625
X123.725Y-117.275
X123.725Y-122.125
T5
X122.845Y-133.265G85X122.845Y-135.265
G05
X124.845Y-138.964G85X126.845Y-138.964
G05
X128.845Y-133.015G85X128.845Y-135.515
G05
X183.119Y-135.515G85X183.119Y-133.015
G05
X187.119Y-129.566G85X185.119Y-129.566
G05
X189.119Y-135.265G85X189.119Y-133.265
G05
T8
X121.075Y-99.688G85X120.375Y-99.688
G05
X121.075Y-106.712G85X120.375Y-106.712
G05
X121.075Y-116.188G85X120.375Y-116.188
G05
X121.075Y-123.212G85X120.375Y-123.212
G05
T0
M30
