G04 #@! TF.FileFunction,Copper,L2,Bot,Signal*
%FSLAX46Y46*%
G04 Gerber Fmt 4.6, Leading zero omitted, Abs format (unit mm)*
G04 Created by KiCad (PCBNEW 4.0.2-stable) date Friday, 14 October 2016 'pmt' 13:51:35*
%MOMM*%
G01*
G04 APERTURE LIST*
%ADD10C,0.100000*%
%ADD11C,2.500000*%
%ADD12C,2.999740*%
%ADD13C,1.501140*%
%ADD14O,2.000000X1.500000*%
%ADD15R,2.000000X1.500000*%
%ADD16R,3.800000X3.800000*%
%ADD17C,1.998980*%
%ADD18R,2.032000X1.727200*%
%ADD19O,2.032000X1.727200*%
%ADD20C,0.910000*%
%ADD21C,0.254000*%
%ADD22C,2.800000*%
%ADD23C,0.508000*%
%ADD24C,1.116000*%
G04 APERTURE END LIST*
D10*
D11*
X167529520Y-131150480D03*
X152529520Y-131150480D03*
X147529520Y-131150480D03*
X142529520Y-131150480D03*
X142529520Y-138600480D03*
X147529520Y-138600480D03*
X152529520Y-138600480D03*
X167519520Y-138660480D03*
X162529520Y-131150480D03*
X162529520Y-138600480D03*
D12*
X182865380Y-74796460D03*
X182865380Y-61654500D03*
D13*
X180155200Y-71725600D03*
X180155200Y-69226240D03*
X180155200Y-67224720D03*
X180155200Y-64725360D03*
D12*
X129029140Y-60779020D03*
X129029140Y-73920980D03*
D13*
X131739320Y-63849880D03*
X131739320Y-66349240D03*
X131739320Y-68350760D03*
X131739320Y-70850120D03*
D14*
X187164520Y-46635480D03*
X190204520Y-46635480D03*
D15*
X190204520Y-54255480D03*
D14*
X187164520Y-54255480D03*
X190204520Y-51715480D03*
X187164520Y-51715480D03*
X190204520Y-49175480D03*
X187164520Y-49175480D03*
X124670000Y-54010000D03*
X121630000Y-54010000D03*
D15*
X121630000Y-46390000D03*
D14*
X124670000Y-46390000D03*
X121630000Y-48930000D03*
X124670000Y-48930000D03*
X121630000Y-51470000D03*
X124670000Y-51470000D03*
D16*
X183119380Y-134265480D03*
X189118860Y-134265480D03*
X186119120Y-129566480D03*
D12*
X182865380Y-124961460D03*
X182865380Y-111819500D03*
D13*
X180155200Y-121890600D03*
X180155200Y-119391240D03*
X180155200Y-117389720D03*
X180155200Y-114890360D03*
D16*
X128844660Y-134265480D03*
X122845180Y-134265480D03*
X125844920Y-138964480D03*
D17*
X137160000Y-57404000D03*
X137160000Y-47244000D03*
X181051200Y-55778400D03*
X170891200Y-55778400D03*
D18*
X190246000Y-93878400D03*
D19*
X190246000Y-96418400D03*
X190246000Y-98958400D03*
X190246000Y-101498400D03*
X190246000Y-104038400D03*
X190246000Y-106578400D03*
D20*
X184861200Y-66141600D03*
X169750000Y-68500000D03*
X160680400Y-61163200D03*
X168148000Y-79756000D03*
X168148000Y-89408000D03*
X181750000Y-92000000D03*
X156000000Y-67000000D03*
X155778200Y-87299800D03*
X153720800Y-87579200D03*
X157556200Y-87249000D03*
X153517600Y-86207600D03*
X153339800Y-84226400D03*
X153500000Y-82250000D03*
X173736000Y-100076000D03*
X180250000Y-87000000D03*
X176500000Y-79750000D03*
X176500000Y-76000000D03*
X128250000Y-111750000D03*
X164699520Y-119600480D03*
X164750000Y-70000000D03*
X126000000Y-56250000D03*
X156000000Y-61750000D03*
X152750000Y-62000000D03*
X149750000Y-60250000D03*
X131064000Y-51816000D03*
X133604000Y-55372000D03*
X127000000Y-118872000D03*
X163250000Y-114750000D03*
X183500000Y-91250000D03*
X184750000Y-91500000D03*
X170000000Y-113500000D03*
X128250000Y-39250000D03*
X150250000Y-64000000D03*
X177000000Y-86500000D03*
X174500000Y-70500000D03*
X167000000Y-71000000D03*
X178409600Y-96977200D03*
X185013600Y-82854800D03*
X154500000Y-62000000D03*
X174752000Y-104140000D03*
X157750000Y-81000000D03*
X160250000Y-87500000D03*
X160250000Y-80500000D03*
X154949520Y-95100480D03*
X154199520Y-92350480D03*
X152449520Y-95350480D03*
X152949520Y-92850480D03*
X122250000Y-87250000D03*
X132250000Y-108000000D03*
X133750000Y-101250000D03*
X125500000Y-101500000D03*
X171949520Y-78600480D03*
X171949520Y-71350480D03*
X151199520Y-89850480D03*
X149949520Y-95350480D03*
X148000000Y-96000000D03*
X149000000Y-89500000D03*
X176276000Y-48564800D03*
X176276000Y-52070000D03*
X188000000Y-79750000D03*
X183750000Y-37250000D03*
D21*
X183444960Y-64725360D02*
X180155200Y-64725360D01*
X184861200Y-66141600D02*
X183444960Y-64725360D01*
X168017200Y-68500000D02*
X169750000Y-68500000D01*
X160680400Y-61163200D02*
X168017200Y-68500000D01*
X168148000Y-89408000D02*
X168148000Y-79756000D01*
X178176000Y-87000000D02*
X173736000Y-91440000D01*
X173736000Y-91440000D02*
X173736000Y-100076000D01*
X180250000Y-87000000D02*
X178308000Y-87000000D01*
X178308000Y-87000000D02*
X178176000Y-87000000D01*
X176500000Y-79750000D02*
X176500000Y-76000000D01*
X136100480Y-119600480D02*
X164699520Y-119600480D01*
X128250000Y-111750000D02*
X136100480Y-119600480D01*
X175000000Y-69500000D02*
X177250000Y-71750000D01*
X175000000Y-69500000D02*
X165250000Y-69500000D01*
X165250000Y-69500000D02*
X164750000Y-70000000D01*
X177250000Y-71750000D02*
X180130800Y-71750000D01*
X180130800Y-71750000D02*
X180155200Y-71725600D01*
X124429520Y-54000480D02*
X124420000Y-54010000D01*
X120610000Y-46390000D02*
X121880000Y-46390000D01*
X119750000Y-47250000D02*
X120610000Y-46390000D01*
X119750000Y-55500000D02*
X119750000Y-47250000D01*
X120500000Y-56250000D02*
X119750000Y-55500000D01*
X126000000Y-56250000D02*
X120500000Y-56250000D01*
X124420000Y-40580000D02*
X124420000Y-46390000D01*
X127500000Y-37500000D02*
X124420000Y-40580000D01*
X131750000Y-37500000D02*
X127500000Y-37500000D01*
X156000000Y-61750000D02*
X131750000Y-37500000D01*
X151500000Y-62000000D02*
X152750000Y-62000000D01*
X149750000Y-60250000D02*
X151500000Y-62000000D01*
X131064000Y-54356000D02*
X132080000Y-55372000D01*
X131064000Y-51816000D02*
X131064000Y-54356000D01*
X132080000Y-55372000D02*
X133604000Y-55372000D01*
D22*
X128844660Y-120716660D02*
X127000000Y-118872000D01*
X128844660Y-120716660D02*
X128844660Y-134265480D01*
D21*
X166750000Y-114750000D02*
X163250000Y-114750000D01*
X184000000Y-97500000D02*
X166750000Y-114750000D01*
X184000000Y-91750000D02*
X184000000Y-97500000D01*
X183500000Y-91250000D02*
X184000000Y-91750000D01*
X184750000Y-98750000D02*
X184750000Y-91500000D01*
X170000000Y-113500000D02*
X184750000Y-98750000D01*
X128250000Y-44250000D02*
X128250000Y-39250000D01*
X148000000Y-64000000D02*
X128250000Y-44250000D01*
X150250000Y-64000000D02*
X148000000Y-64000000D01*
X174500000Y-70500000D02*
X174500000Y-84000000D01*
X174500000Y-84000000D02*
X177000000Y-86500000D01*
X167500000Y-70500000D02*
X174500000Y-70500000D01*
X167000000Y-71000000D02*
X167500000Y-70500000D01*
X178409600Y-92608400D02*
X178409600Y-96977200D01*
X184099200Y-86918800D02*
X178409600Y-92608400D01*
X184099200Y-83769200D02*
X184099200Y-86918800D01*
X185013600Y-82854800D02*
X184099200Y-83769200D01*
X170000000Y-77500000D02*
X170000000Y-99388000D01*
X154500000Y-62000000D02*
X170000000Y-77500000D01*
X170000000Y-99388000D02*
X174752000Y-104140000D01*
X154949520Y-95100480D02*
X154199520Y-94350480D01*
X154199520Y-94350480D02*
X154199520Y-92350480D01*
X160250000Y-87500000D02*
X159050000Y-87500000D01*
X159050000Y-87500000D02*
X154199520Y-92350480D01*
X160250000Y-80500000D02*
X160250000Y-87500000D01*
X158250000Y-80500000D02*
X160250000Y-80500000D01*
X157750000Y-81000000D02*
X158250000Y-80500000D01*
X152449520Y-93350480D02*
X152449520Y-95350480D01*
X152949520Y-92850480D02*
X152449520Y-93350480D01*
X125500000Y-101500000D02*
X125500000Y-89250000D01*
X123500000Y-87250000D02*
X122250000Y-87250000D01*
X125500000Y-89250000D02*
X123500000Y-87250000D01*
X133750000Y-101250000D02*
X133750000Y-106500000D01*
X133750000Y-106500000D02*
X132250000Y-108000000D01*
X125750000Y-101250000D02*
X133750000Y-101250000D01*
X125500000Y-101500000D02*
X125750000Y-101250000D01*
X171949520Y-78600480D02*
X171949520Y-71350480D01*
X149949520Y-95350480D02*
X151199520Y-94100480D01*
X151199520Y-94100480D02*
X151199520Y-89850480D01*
D23*
X129029140Y-60779020D02*
X129029140Y-73920980D01*
D22*
X150368000Y-143764000D02*
X174752000Y-143764000D01*
X150368000Y-143764000D02*
X147529520Y-140925520D01*
X147529520Y-138600480D02*
X147529520Y-140925520D01*
X174752000Y-143764000D02*
X183119380Y-135396620D01*
X183119380Y-135396620D02*
X183119380Y-134265480D01*
X170180000Y-125476000D02*
X150368000Y-125476000D01*
X186119120Y-129566480D02*
X174270480Y-129566480D01*
X174270480Y-129566480D02*
X170180000Y-125476000D01*
X147529520Y-128314480D02*
X147529520Y-131150480D01*
X150368000Y-125476000D02*
X147529520Y-128314480D01*
X183896000Y-115824000D02*
X183896000Y-116332000D01*
D24*
X182962360Y-114890360D02*
X183896000Y-115824000D01*
X180155200Y-114890360D02*
X182962360Y-114890360D01*
D22*
X186119120Y-118555120D02*
X186119120Y-129566480D01*
X183896000Y-116332000D02*
X186119120Y-118555120D01*
D21*
X148000000Y-96000000D02*
X149000000Y-95000000D01*
X149000000Y-95000000D02*
X149000000Y-89500000D01*
X176276000Y-52070000D02*
X176276000Y-48564800D01*
X188000000Y-79750000D02*
X192000000Y-75750000D01*
X192000000Y-75750000D02*
X192000000Y-43500000D01*
X192000000Y-43500000D02*
X185750000Y-37250000D01*
X185750000Y-37250000D02*
X183750000Y-37250000D01*
G36*
X193040000Y-147144480D02*
X118655520Y-147144480D01*
X118655520Y-137064480D01*
X123556456Y-137064480D01*
X123556456Y-140864480D01*
X123583023Y-141005670D01*
X123666466Y-141135345D01*
X123793786Y-141222339D01*
X123944920Y-141252944D01*
X127744920Y-141252944D01*
X127886110Y-141226377D01*
X128015785Y-141142934D01*
X128102779Y-141015614D01*
X128133384Y-140864480D01*
X128133384Y-138923483D01*
X140898238Y-138923483D01*
X141146019Y-139523160D01*
X141604427Y-139982368D01*
X142203671Y-140231196D01*
X142852523Y-140231762D01*
X143452200Y-139983981D01*
X143911408Y-139525573D01*
X144160236Y-138926329D01*
X144160520Y-138600480D01*
X145748520Y-138600480D01*
X145748520Y-140925520D01*
X145884091Y-141607079D01*
X146270163Y-142184877D01*
X149108643Y-145023357D01*
X149686441Y-145409429D01*
X150368000Y-145545000D01*
X174752000Y-145545000D01*
X175433559Y-145409429D01*
X176011357Y-145023357D01*
X184378737Y-136655977D01*
X184446913Y-136553944D01*
X185019380Y-136553944D01*
X185160570Y-136527377D01*
X185290245Y-136443934D01*
X185377239Y-136316614D01*
X185407844Y-136165480D01*
X185407844Y-132365480D01*
X186830396Y-132365480D01*
X186830396Y-136165480D01*
X186856963Y-136306670D01*
X186940406Y-136436345D01*
X187067726Y-136523339D01*
X187218860Y-136553944D01*
X191018860Y-136553944D01*
X191160050Y-136527377D01*
X191289725Y-136443934D01*
X191376719Y-136316614D01*
X191407324Y-136165480D01*
X191407324Y-132365480D01*
X191380757Y-132224290D01*
X191297314Y-132094615D01*
X191169994Y-132007621D01*
X191018860Y-131977016D01*
X187218860Y-131977016D01*
X187077670Y-132003583D01*
X186947995Y-132087026D01*
X186861001Y-132214346D01*
X186830396Y-132365480D01*
X185407844Y-132365480D01*
X185381277Y-132224290D01*
X185297834Y-132094615D01*
X185170514Y-132007621D01*
X185019380Y-131977016D01*
X181219380Y-131977016D01*
X181078190Y-132003583D01*
X180948515Y-132087026D01*
X180861521Y-132214346D01*
X180830916Y-132365480D01*
X180830916Y-135166370D01*
X174014286Y-141983000D01*
X151105714Y-141983000D01*
X149310520Y-140187806D01*
X149310520Y-138923483D01*
X150898238Y-138923483D01*
X151146019Y-139523160D01*
X151604427Y-139982368D01*
X152203671Y-140231196D01*
X152852523Y-140231762D01*
X153452200Y-139983981D01*
X153911408Y-139525573D01*
X154160236Y-138926329D01*
X154160238Y-138923483D01*
X160898238Y-138923483D01*
X161146019Y-139523160D01*
X161604427Y-139982368D01*
X162203671Y-140231196D01*
X162852523Y-140231762D01*
X163452200Y-139983981D01*
X163911408Y-139525573D01*
X164136503Y-138983483D01*
X165888238Y-138983483D01*
X166136019Y-139583160D01*
X166594427Y-140042368D01*
X167193671Y-140291196D01*
X167842523Y-140291762D01*
X168442200Y-140043981D01*
X168901408Y-139585573D01*
X169150236Y-138986329D01*
X169150802Y-138337477D01*
X168903021Y-137737800D01*
X168444613Y-137278592D01*
X167845369Y-137029764D01*
X167196517Y-137029198D01*
X166596840Y-137276979D01*
X166137632Y-137735387D01*
X165888804Y-138334631D01*
X165888238Y-138983483D01*
X164136503Y-138983483D01*
X164160236Y-138926329D01*
X164160802Y-138277477D01*
X163913021Y-137677800D01*
X163454613Y-137218592D01*
X162855369Y-136969764D01*
X162206517Y-136969198D01*
X161606840Y-137216979D01*
X161147632Y-137675387D01*
X160898804Y-138274631D01*
X160898238Y-138923483D01*
X154160238Y-138923483D01*
X154160802Y-138277477D01*
X153913021Y-137677800D01*
X153454613Y-137218592D01*
X152855369Y-136969764D01*
X152206517Y-136969198D01*
X151606840Y-137216979D01*
X151147632Y-137675387D01*
X150898804Y-138274631D01*
X150898238Y-138923483D01*
X149310520Y-138923483D01*
X149310520Y-138600480D01*
X149174949Y-137918921D01*
X148788877Y-137341123D01*
X148211079Y-136955051D01*
X147529520Y-136819480D01*
X146847961Y-136955051D01*
X146270163Y-137341123D01*
X145884091Y-137918921D01*
X145748520Y-138600480D01*
X144160520Y-138600480D01*
X144160802Y-138277477D01*
X143913021Y-137677800D01*
X143454613Y-137218592D01*
X142855369Y-136969764D01*
X142206517Y-136969198D01*
X141606840Y-137216979D01*
X141147632Y-137675387D01*
X140898804Y-138274631D01*
X140898238Y-138923483D01*
X128133384Y-138923483D01*
X128133384Y-137064480D01*
X128106817Y-136923290D01*
X128023374Y-136793615D01*
X127896054Y-136706621D01*
X127744920Y-136676016D01*
X123944920Y-136676016D01*
X123803730Y-136702583D01*
X123674055Y-136786026D01*
X123587061Y-136913346D01*
X123556456Y-137064480D01*
X118655520Y-137064480D01*
X118655520Y-132365480D01*
X120556716Y-132365480D01*
X120556716Y-136165480D01*
X120583283Y-136306670D01*
X120666726Y-136436345D01*
X120794046Y-136523339D01*
X120945180Y-136553944D01*
X124745180Y-136553944D01*
X124886370Y-136527377D01*
X125016045Y-136443934D01*
X125103039Y-136316614D01*
X125133644Y-136165480D01*
X125133644Y-132365480D01*
X125107077Y-132224290D01*
X125023634Y-132094615D01*
X124896314Y-132007621D01*
X124745180Y-131977016D01*
X120945180Y-131977016D01*
X120803990Y-132003583D01*
X120674315Y-132087026D01*
X120587321Y-132214346D01*
X120556716Y-132365480D01*
X118655520Y-132365480D01*
X118655520Y-121864907D01*
X122409605Y-121864907D01*
X122528069Y-122151613D01*
X122747233Y-122371160D01*
X123033732Y-122490125D01*
X123343947Y-122490395D01*
X123630653Y-122371931D01*
X123850200Y-122152767D01*
X123969165Y-121866268D01*
X123969435Y-121556053D01*
X123850971Y-121269347D01*
X123631807Y-121049800D01*
X123345308Y-120930835D01*
X123035093Y-120930565D01*
X122748387Y-121049029D01*
X122528840Y-121268193D01*
X122409875Y-121554692D01*
X122409605Y-121864907D01*
X118655520Y-121864907D01*
X118655520Y-118872000D01*
X125219000Y-118872000D01*
X125354571Y-119553559D01*
X125740643Y-120131357D01*
X127063660Y-121454374D01*
X127063660Y-131977016D01*
X126944660Y-131977016D01*
X126803470Y-132003583D01*
X126673795Y-132087026D01*
X126586801Y-132214346D01*
X126556196Y-132365480D01*
X126556196Y-136165480D01*
X126582763Y-136306670D01*
X126666206Y-136436345D01*
X126793526Y-136523339D01*
X126944660Y-136553944D01*
X130744660Y-136553944D01*
X130885850Y-136527377D01*
X131015525Y-136443934D01*
X131102519Y-136316614D01*
X131133124Y-136165480D01*
X131133124Y-132365480D01*
X131106557Y-132224290D01*
X131023114Y-132094615D01*
X130895794Y-132007621D01*
X130744660Y-131977016D01*
X130625660Y-131977016D01*
X130625660Y-131473483D01*
X140898238Y-131473483D01*
X141146019Y-132073160D01*
X141604427Y-132532368D01*
X142203671Y-132781196D01*
X142852523Y-132781762D01*
X143452200Y-132533981D01*
X143911408Y-132075573D01*
X144160236Y-131476329D01*
X144160802Y-130827477D01*
X143913021Y-130227800D01*
X143454613Y-129768592D01*
X142855369Y-129519764D01*
X142206517Y-129519198D01*
X141606840Y-129766979D01*
X141147632Y-130225387D01*
X140898804Y-130824631D01*
X140898238Y-131473483D01*
X130625660Y-131473483D01*
X130625660Y-128314480D01*
X145748520Y-128314480D01*
X145748520Y-131150480D01*
X145884091Y-131832039D01*
X146270163Y-132409837D01*
X146847961Y-132795909D01*
X147529520Y-132931480D01*
X148211079Y-132795909D01*
X148788877Y-132409837D01*
X149174949Y-131832039D01*
X149246270Y-131473483D01*
X150898238Y-131473483D01*
X151146019Y-132073160D01*
X151604427Y-132532368D01*
X152203671Y-132781196D01*
X152852523Y-132781762D01*
X153452200Y-132533981D01*
X153686397Y-132300192D01*
X161412334Y-132300192D01*
X161543192Y-132547175D01*
X162152763Y-132818309D01*
X162819693Y-132835532D01*
X163442446Y-132596221D01*
X163515848Y-132547175D01*
X163646706Y-132300192D01*
X166412334Y-132300192D01*
X166543192Y-132547175D01*
X167152763Y-132818309D01*
X167819693Y-132835532D01*
X168442446Y-132596221D01*
X168515848Y-132547175D01*
X168646706Y-132300192D01*
X167529520Y-131183007D01*
X166412334Y-132300192D01*
X163646706Y-132300192D01*
X162529520Y-131183007D01*
X161412334Y-132300192D01*
X153686397Y-132300192D01*
X153911408Y-132075573D01*
X154160236Y-131476329D01*
X154160267Y-131440653D01*
X160844468Y-131440653D01*
X161083779Y-132063406D01*
X161132825Y-132136808D01*
X161379808Y-132267666D01*
X162496993Y-131150480D01*
X162562047Y-131150480D01*
X163679232Y-132267666D01*
X163926215Y-132136808D01*
X164197349Y-131527237D01*
X164199584Y-131440653D01*
X165844468Y-131440653D01*
X166083779Y-132063406D01*
X166132825Y-132136808D01*
X166379808Y-132267666D01*
X167496993Y-131150480D01*
X167562047Y-131150480D01*
X168679232Y-132267666D01*
X168926215Y-132136808D01*
X169197349Y-131527237D01*
X169214572Y-130860307D01*
X168975261Y-130237554D01*
X168926215Y-130164152D01*
X168679232Y-130033294D01*
X167562047Y-131150480D01*
X167496993Y-131150480D01*
X166379808Y-130033294D01*
X166132825Y-130164152D01*
X165861691Y-130773723D01*
X165844468Y-131440653D01*
X164199584Y-131440653D01*
X164214572Y-130860307D01*
X163975261Y-130237554D01*
X163926215Y-130164152D01*
X163679232Y-130033294D01*
X162562047Y-131150480D01*
X162496993Y-131150480D01*
X161379808Y-130033294D01*
X161132825Y-130164152D01*
X160861691Y-130773723D01*
X160844468Y-131440653D01*
X154160267Y-131440653D01*
X154160802Y-130827477D01*
X153913021Y-130227800D01*
X153686385Y-130000768D01*
X161412334Y-130000768D01*
X162529520Y-131117953D01*
X163646706Y-130000768D01*
X166412334Y-130000768D01*
X167529520Y-131117953D01*
X168646706Y-130000768D01*
X168515848Y-129753785D01*
X167906277Y-129482651D01*
X167239347Y-129465428D01*
X166616594Y-129704739D01*
X166543192Y-129753785D01*
X166412334Y-130000768D01*
X163646706Y-130000768D01*
X163515848Y-129753785D01*
X162906277Y-129482651D01*
X162239347Y-129465428D01*
X161616594Y-129704739D01*
X161543192Y-129753785D01*
X161412334Y-130000768D01*
X153686385Y-130000768D01*
X153454613Y-129768592D01*
X152855369Y-129519764D01*
X152206517Y-129519198D01*
X151606840Y-129766979D01*
X151147632Y-130225387D01*
X150898804Y-130824631D01*
X150898238Y-131473483D01*
X149246270Y-131473483D01*
X149310520Y-131150480D01*
X149310520Y-129052194D01*
X151105714Y-127257000D01*
X169442286Y-127257000D01*
X173011123Y-130825837D01*
X173588921Y-131211909D01*
X174270480Y-131347480D01*
X183830656Y-131347480D01*
X183830656Y-131466480D01*
X183857223Y-131607670D01*
X183940666Y-131737345D01*
X184067986Y-131824339D01*
X184219120Y-131854944D01*
X188019120Y-131854944D01*
X188160310Y-131828377D01*
X188289985Y-131744934D01*
X188376979Y-131617614D01*
X188407584Y-131466480D01*
X188407584Y-127666480D01*
X188381017Y-127525290D01*
X188297574Y-127395615D01*
X188170254Y-127308621D01*
X188019120Y-127278016D01*
X187900120Y-127278016D01*
X187900120Y-118555120D01*
X187764549Y-117873561D01*
X187378477Y-117295763D01*
X185619961Y-115537247D01*
X185541429Y-115142441D01*
X185155357Y-114564643D01*
X184577559Y-114178571D01*
X183896000Y-114043000D01*
X183476699Y-114126404D01*
X183321700Y-114022837D01*
X182962360Y-113951360D01*
X180816725Y-113951360D01*
X180797020Y-113931621D01*
X180381271Y-113758987D01*
X179931104Y-113758594D01*
X179515054Y-113930502D01*
X179196461Y-114248540D01*
X179023827Y-114664289D01*
X179023434Y-115114456D01*
X179195342Y-115530506D01*
X179513380Y-115849099D01*
X179929129Y-116021733D01*
X180379296Y-116022126D01*
X180795346Y-115850218D01*
X180816240Y-115829360D01*
X182115000Y-115829360D01*
X182115000Y-116332000D01*
X182250571Y-117013559D01*
X182636643Y-117591357D01*
X184338120Y-119292834D01*
X184338120Y-123774498D01*
X183932198Y-123367866D01*
X183241149Y-123080918D01*
X182492893Y-123080265D01*
X181801345Y-123366007D01*
X181271786Y-123894642D01*
X180984838Y-124585691D01*
X180984185Y-125333947D01*
X181269927Y-126025495D01*
X181798562Y-126555054D01*
X182489611Y-126842002D01*
X183237867Y-126842655D01*
X183929415Y-126556913D01*
X184338120Y-126148921D01*
X184338120Y-127278016D01*
X184219120Y-127278016D01*
X184077930Y-127304583D01*
X183948255Y-127388026D01*
X183861261Y-127515346D01*
X183830656Y-127666480D01*
X183830656Y-127785480D01*
X175008194Y-127785480D01*
X171439357Y-124216643D01*
X170861559Y-123830571D01*
X170180000Y-123695000D01*
X150368000Y-123695000D01*
X149686441Y-123830571D01*
X149108643Y-124216643D01*
X146270163Y-127055123D01*
X145884091Y-127632921D01*
X145748520Y-128314480D01*
X130625660Y-128314480D01*
X130625660Y-122114696D01*
X179023434Y-122114696D01*
X179195342Y-122530746D01*
X179513380Y-122849339D01*
X179929129Y-123021973D01*
X180379296Y-123022366D01*
X180795346Y-122850458D01*
X181113939Y-122532420D01*
X181286573Y-122116671D01*
X181286966Y-121666504D01*
X181115058Y-121250454D01*
X180797020Y-120931861D01*
X180381271Y-120759227D01*
X179931104Y-120758834D01*
X179515054Y-120930742D01*
X179196461Y-121248780D01*
X179023827Y-121664529D01*
X179023434Y-122114696D01*
X130625660Y-122114696D01*
X130625660Y-120716660D01*
X130490089Y-120035101D01*
X130104017Y-119457303D01*
X128259357Y-117612643D01*
X127681559Y-117226571D01*
X127000000Y-117091000D01*
X126318441Y-117226571D01*
X125740643Y-117612643D01*
X125354571Y-118190441D01*
X125219000Y-118872000D01*
X118655520Y-118872000D01*
X118655520Y-117764907D01*
X122409605Y-117764907D01*
X122528069Y-118051613D01*
X122747233Y-118271160D01*
X123033732Y-118390125D01*
X123343947Y-118390395D01*
X123630653Y-118271931D01*
X123850200Y-118052767D01*
X123969165Y-117766268D01*
X123969435Y-117456053D01*
X123850971Y-117169347D01*
X123631807Y-116949800D01*
X123345308Y-116830835D01*
X123035093Y-116830565D01*
X122748387Y-116949029D01*
X122528840Y-117168193D01*
X122409875Y-117454692D01*
X122409605Y-117764907D01*
X118655520Y-117764907D01*
X118655520Y-111915561D01*
X127413855Y-111915561D01*
X127540861Y-112222937D01*
X127775826Y-112458313D01*
X128082980Y-112585854D01*
X128367683Y-112586103D01*
X135741270Y-119959690D01*
X135906076Y-120069811D01*
X135938330Y-120076226D01*
X136100480Y-120108480D01*
X164025383Y-120108480D01*
X164225346Y-120308793D01*
X164532500Y-120436334D01*
X164865081Y-120436625D01*
X165172457Y-120309619D01*
X165407833Y-120074654D01*
X165535374Y-119767500D01*
X165535665Y-119434919D01*
X165408659Y-119127543D01*
X165173694Y-118892167D01*
X164866540Y-118764626D01*
X164533959Y-118764335D01*
X164226583Y-118891341D01*
X164025092Y-119092480D01*
X136310900Y-119092480D01*
X134832236Y-117613816D01*
X179023434Y-117613816D01*
X179195342Y-118029866D01*
X179513380Y-118348459D01*
X179614312Y-118390370D01*
X179515054Y-118431382D01*
X179196461Y-118749420D01*
X179023827Y-119165169D01*
X179023434Y-119615336D01*
X179195342Y-120031386D01*
X179513380Y-120349979D01*
X179929129Y-120522613D01*
X180379296Y-120523006D01*
X180795346Y-120351098D01*
X181113939Y-120033060D01*
X181286573Y-119617311D01*
X181286966Y-119167144D01*
X181115058Y-118751094D01*
X180797020Y-118432501D01*
X180696088Y-118390590D01*
X180795346Y-118349578D01*
X181113939Y-118031540D01*
X181286573Y-117615791D01*
X181286966Y-117165624D01*
X181115058Y-116749574D01*
X180797020Y-116430981D01*
X180381271Y-116258347D01*
X179931104Y-116257954D01*
X179515054Y-116429862D01*
X179196461Y-116747900D01*
X179023827Y-117163649D01*
X179023434Y-117613816D01*
X134832236Y-117613816D01*
X132133981Y-114915561D01*
X162413855Y-114915561D01*
X162540861Y-115222937D01*
X162775826Y-115458313D01*
X163082980Y-115585854D01*
X163415561Y-115586145D01*
X163722937Y-115459139D01*
X163924428Y-115258000D01*
X166750000Y-115258000D01*
X166944403Y-115219331D01*
X167109210Y-115109210D01*
X184242000Y-97976420D01*
X184242000Y-98539580D01*
X170117477Y-112664103D01*
X169834439Y-112663855D01*
X169527063Y-112790861D01*
X169291687Y-113025826D01*
X169164146Y-113332980D01*
X169163855Y-113665561D01*
X169290861Y-113972937D01*
X169525826Y-114208313D01*
X169832980Y-114335854D01*
X170165561Y-114336145D01*
X170472937Y-114209139D01*
X170708313Y-113974174D01*
X170835854Y-113667020D01*
X170836103Y-113382317D01*
X172026433Y-112191987D01*
X180984185Y-112191987D01*
X181269927Y-112883535D01*
X181798562Y-113413094D01*
X182489611Y-113700042D01*
X183237867Y-113700695D01*
X183929415Y-113414953D01*
X184458974Y-112886318D01*
X184745922Y-112195269D01*
X184746575Y-111447013D01*
X184460833Y-110755465D01*
X183932198Y-110225906D01*
X183241149Y-109938958D01*
X182492893Y-109938305D01*
X181801345Y-110224047D01*
X181271786Y-110752682D01*
X180984838Y-111443731D01*
X180984185Y-112191987D01*
X172026433Y-112191987D01*
X177640020Y-106578400D01*
X188821631Y-106578400D01*
X188916371Y-107054688D01*
X189186166Y-107458465D01*
X189589943Y-107728260D01*
X190066231Y-107823000D01*
X190425769Y-107823000D01*
X190902057Y-107728260D01*
X191305834Y-107458465D01*
X191575629Y-107054688D01*
X191670369Y-106578400D01*
X191575629Y-106102112D01*
X191305834Y-105698335D01*
X190902057Y-105428540D01*
X190425769Y-105333800D01*
X190066231Y-105333800D01*
X189589943Y-105428540D01*
X189186166Y-105698335D01*
X188916371Y-106102112D01*
X188821631Y-106578400D01*
X177640020Y-106578400D01*
X180180020Y-104038400D01*
X188821631Y-104038400D01*
X188916371Y-104514688D01*
X189186166Y-104918465D01*
X189589943Y-105188260D01*
X190066231Y-105283000D01*
X190425769Y-105283000D01*
X190902057Y-105188260D01*
X191305834Y-104918465D01*
X191575629Y-104514688D01*
X191670369Y-104038400D01*
X191575629Y-103562112D01*
X191305834Y-103158335D01*
X190902057Y-102888540D01*
X190425769Y-102793800D01*
X190066231Y-102793800D01*
X189589943Y-102888540D01*
X189186166Y-103158335D01*
X188916371Y-103562112D01*
X188821631Y-104038400D01*
X180180020Y-104038400D01*
X182720020Y-101498400D01*
X188821631Y-101498400D01*
X188916371Y-101974688D01*
X189186166Y-102378465D01*
X189589943Y-102648260D01*
X190066231Y-102743000D01*
X190425769Y-102743000D01*
X190902057Y-102648260D01*
X191305834Y-102378465D01*
X191575629Y-101974688D01*
X191670369Y-101498400D01*
X191575629Y-101022112D01*
X191305834Y-100618335D01*
X190902057Y-100348540D01*
X190425769Y-100253800D01*
X190066231Y-100253800D01*
X189589943Y-100348540D01*
X189186166Y-100618335D01*
X188916371Y-101022112D01*
X188821631Y-101498400D01*
X182720020Y-101498400D01*
X185109210Y-99109210D01*
X185209978Y-98958400D01*
X188821631Y-98958400D01*
X188916371Y-99434688D01*
X189186166Y-99838465D01*
X189589943Y-100108260D01*
X190066231Y-100203000D01*
X190425769Y-100203000D01*
X190902057Y-100108260D01*
X191305834Y-99838465D01*
X191575629Y-99434688D01*
X191670369Y-98958400D01*
X191575629Y-98482112D01*
X191305834Y-98078335D01*
X190902057Y-97808540D01*
X190425769Y-97713800D01*
X190066231Y-97713800D01*
X189589943Y-97808540D01*
X189186166Y-98078335D01*
X188916371Y-98482112D01*
X188821631Y-98958400D01*
X185209978Y-98958400D01*
X185219331Y-98944403D01*
X185258000Y-98750000D01*
X185258000Y-96418400D01*
X188821631Y-96418400D01*
X188916371Y-96894688D01*
X189186166Y-97298465D01*
X189589943Y-97568260D01*
X190066231Y-97663000D01*
X190425769Y-97663000D01*
X190902057Y-97568260D01*
X191305834Y-97298465D01*
X191575629Y-96894688D01*
X191670369Y-96418400D01*
X191575629Y-95942112D01*
X191305834Y-95538335D01*
X190902057Y-95268540D01*
X190425769Y-95173800D01*
X190066231Y-95173800D01*
X189589943Y-95268540D01*
X189186166Y-95538335D01*
X188916371Y-95942112D01*
X188821631Y-96418400D01*
X185258000Y-96418400D01*
X185258000Y-94008150D01*
X188803000Y-94008150D01*
X188803000Y-94826936D01*
X188868007Y-94983876D01*
X188988124Y-95103993D01*
X189145065Y-95169000D01*
X190116250Y-95169000D01*
X190223000Y-95062250D01*
X190223000Y-93901400D01*
X190269000Y-93901400D01*
X190269000Y-95062250D01*
X190375750Y-95169000D01*
X191346935Y-95169000D01*
X191503876Y-95103993D01*
X191623993Y-94983876D01*
X191689000Y-94826936D01*
X191689000Y-94008150D01*
X191582250Y-93901400D01*
X190269000Y-93901400D01*
X190223000Y-93901400D01*
X188909750Y-93901400D01*
X188803000Y-94008150D01*
X185258000Y-94008150D01*
X185258000Y-92929864D01*
X188803000Y-92929864D01*
X188803000Y-93748650D01*
X188909750Y-93855400D01*
X190223000Y-93855400D01*
X190223000Y-92694550D01*
X190269000Y-92694550D01*
X190269000Y-93855400D01*
X191582250Y-93855400D01*
X191689000Y-93748650D01*
X191689000Y-92929864D01*
X191623993Y-92772924D01*
X191503876Y-92652807D01*
X191346935Y-92587800D01*
X190375750Y-92587800D01*
X190269000Y-92694550D01*
X190223000Y-92694550D01*
X190116250Y-92587800D01*
X189145065Y-92587800D01*
X188988124Y-92652807D01*
X188868007Y-92772924D01*
X188803000Y-92929864D01*
X185258000Y-92929864D01*
X185258000Y-92174137D01*
X185458313Y-91974174D01*
X185585854Y-91667020D01*
X185586145Y-91334439D01*
X185459139Y-91027063D01*
X185224174Y-90791687D01*
X184917020Y-90664146D01*
X184584439Y-90663855D01*
X184277063Y-90790861D01*
X184233011Y-90834836D01*
X184209139Y-90777063D01*
X183974174Y-90541687D01*
X183667020Y-90414146D01*
X183334439Y-90413855D01*
X183027063Y-90540861D01*
X182791687Y-90775826D01*
X182664146Y-91082980D01*
X182663855Y-91415561D01*
X182790861Y-91722937D01*
X183025826Y-91958313D01*
X183332980Y-92085854D01*
X183492000Y-92085993D01*
X183492000Y-97289580D01*
X166539580Y-114242000D01*
X163924137Y-114242000D01*
X163724174Y-114041687D01*
X163417020Y-113914146D01*
X163084439Y-113913855D01*
X162777063Y-114040861D01*
X162541687Y-114275826D01*
X162414146Y-114582980D01*
X162413855Y-114915561D01*
X132133981Y-114915561D01*
X129085897Y-111867477D01*
X129086145Y-111584439D01*
X128959139Y-111277063D01*
X128724174Y-111041687D01*
X128417020Y-110914146D01*
X128084439Y-110913855D01*
X127777063Y-111040861D01*
X127541687Y-111275826D01*
X127414146Y-111582980D01*
X127413855Y-111915561D01*
X118655520Y-111915561D01*
X118655520Y-105404907D01*
X122469605Y-105404907D01*
X122588069Y-105691613D01*
X122807233Y-105911160D01*
X123093732Y-106030125D01*
X123403947Y-106030395D01*
X123690653Y-105911931D01*
X123910200Y-105692767D01*
X124029165Y-105406268D01*
X124029435Y-105096053D01*
X123910971Y-104809347D01*
X123691807Y-104589800D01*
X123405308Y-104470835D01*
X123095093Y-104470565D01*
X122808387Y-104589029D01*
X122588840Y-104808193D01*
X122469875Y-105094692D01*
X122469605Y-105404907D01*
X118655520Y-105404907D01*
X118655520Y-101304907D01*
X122469605Y-101304907D01*
X122588069Y-101591613D01*
X122807233Y-101811160D01*
X123093732Y-101930125D01*
X123403947Y-101930395D01*
X123690653Y-101811931D01*
X123910200Y-101592767D01*
X124029165Y-101306268D01*
X124029435Y-100996053D01*
X123910971Y-100709347D01*
X123691807Y-100489800D01*
X123405308Y-100370835D01*
X123095093Y-100370565D01*
X122808387Y-100489029D01*
X122588840Y-100708193D01*
X122469875Y-100994692D01*
X122469605Y-101304907D01*
X118655520Y-101304907D01*
X118655520Y-87415561D01*
X121413855Y-87415561D01*
X121540861Y-87722937D01*
X121775826Y-87958313D01*
X122082980Y-88085854D01*
X122415561Y-88086145D01*
X122722937Y-87959139D01*
X122924428Y-87758000D01*
X123289580Y-87758000D01*
X124992000Y-89460420D01*
X124992000Y-100825863D01*
X124791687Y-101025826D01*
X124664146Y-101332980D01*
X124663855Y-101665561D01*
X124790861Y-101972937D01*
X125025826Y-102208313D01*
X125332980Y-102335854D01*
X125665561Y-102336145D01*
X125972937Y-102209139D01*
X126208313Y-101974174D01*
X126298076Y-101758000D01*
X133075863Y-101758000D01*
X133242000Y-101924428D01*
X133242000Y-106289580D01*
X132367477Y-107164103D01*
X132084439Y-107163855D01*
X131777063Y-107290861D01*
X131541687Y-107525826D01*
X131414146Y-107832980D01*
X131413855Y-108165561D01*
X131540861Y-108472937D01*
X131775826Y-108708313D01*
X132082980Y-108835854D01*
X132415561Y-108836145D01*
X132722937Y-108709139D01*
X132958313Y-108474174D01*
X133085854Y-108167020D01*
X133086103Y-107882317D01*
X134109210Y-106859210D01*
X134219331Y-106694404D01*
X134242405Y-106578400D01*
X134258000Y-106500000D01*
X134258000Y-101924137D01*
X134458313Y-101724174D01*
X134585854Y-101417020D01*
X134586145Y-101084439D01*
X134459139Y-100777063D01*
X134224174Y-100541687D01*
X133917020Y-100414146D01*
X133584439Y-100413855D01*
X133277063Y-100540861D01*
X133075572Y-100742000D01*
X126008000Y-100742000D01*
X126008000Y-96165561D01*
X147163855Y-96165561D01*
X147290861Y-96472937D01*
X147525826Y-96708313D01*
X147832980Y-96835854D01*
X148165561Y-96836145D01*
X148472937Y-96709139D01*
X148708313Y-96474174D01*
X148835854Y-96167020D01*
X148836103Y-95882317D01*
X149139399Y-95579022D01*
X149240381Y-95823417D01*
X149475346Y-96058793D01*
X149782500Y-96186334D01*
X150115081Y-96186625D01*
X150422457Y-96059619D01*
X150657833Y-95824654D01*
X150785374Y-95517500D01*
X150785375Y-95516041D01*
X151613375Y-95516041D01*
X151740381Y-95823417D01*
X151975346Y-96058793D01*
X152282500Y-96186334D01*
X152615081Y-96186625D01*
X152922457Y-96059619D01*
X153157833Y-95824654D01*
X153285374Y-95517500D01*
X153285665Y-95184919D01*
X153158659Y-94877543D01*
X152957520Y-94676052D01*
X152957520Y-93686487D01*
X153115081Y-93686625D01*
X153422457Y-93559619D01*
X153657833Y-93324654D01*
X153691520Y-93243526D01*
X153691520Y-94350480D01*
X153730189Y-94544883D01*
X153840310Y-94709690D01*
X154113623Y-94983003D01*
X154113375Y-95266041D01*
X154240381Y-95573417D01*
X154475346Y-95808793D01*
X154782500Y-95936334D01*
X155115081Y-95936625D01*
X155422457Y-95809619D01*
X155657833Y-95574654D01*
X155785374Y-95267500D01*
X155785665Y-94934919D01*
X155658659Y-94627543D01*
X155423694Y-94392167D01*
X155116540Y-94264626D01*
X154831837Y-94264377D01*
X154707520Y-94140060D01*
X154707520Y-93024617D01*
X154907833Y-92824654D01*
X155035374Y-92517500D01*
X155035623Y-92232797D01*
X159260421Y-88008000D01*
X159575863Y-88008000D01*
X159775826Y-88208313D01*
X160082980Y-88335854D01*
X160415561Y-88336145D01*
X160722937Y-88209139D01*
X160958313Y-87974174D01*
X161085854Y-87667020D01*
X161086145Y-87334439D01*
X160959139Y-87027063D01*
X160758000Y-86825572D01*
X160758000Y-81174137D01*
X160958313Y-80974174D01*
X161085854Y-80667020D01*
X161086145Y-80334439D01*
X160959139Y-80027063D01*
X160724174Y-79791687D01*
X160417020Y-79664146D01*
X160084439Y-79663855D01*
X159777063Y-79790861D01*
X159575572Y-79992000D01*
X158250000Y-79992000D01*
X158055597Y-80030669D01*
X157890790Y-80140790D01*
X157867477Y-80164103D01*
X157584439Y-80163855D01*
X157277063Y-80290861D01*
X157041687Y-80525826D01*
X156914146Y-80832980D01*
X156913855Y-81165561D01*
X157040861Y-81472937D01*
X157275826Y-81708313D01*
X157582980Y-81835854D01*
X157915561Y-81836145D01*
X158222937Y-81709139D01*
X158458313Y-81474174D01*
X158585854Y-81167020D01*
X158585993Y-81008000D01*
X159575863Y-81008000D01*
X159742000Y-81174428D01*
X159742000Y-86825863D01*
X159575572Y-86992000D01*
X159050000Y-86992000D01*
X158855597Y-87030669D01*
X158690790Y-87140789D01*
X154316997Y-91514583D01*
X154033959Y-91514335D01*
X153726583Y-91641341D01*
X153491207Y-91876306D01*
X153387119Y-92126980D01*
X153116540Y-92014626D01*
X152783959Y-92014335D01*
X152476583Y-92141341D01*
X152241207Y-92376306D01*
X152113666Y-92683460D01*
X152113417Y-92968163D01*
X152090310Y-92991270D01*
X151980189Y-93156077D01*
X151941520Y-93350480D01*
X151941520Y-94676343D01*
X151741207Y-94876306D01*
X151613666Y-95183460D01*
X151613375Y-95516041D01*
X150785375Y-95516041D01*
X150785623Y-95232797D01*
X151558730Y-94459690D01*
X151668851Y-94294883D01*
X151707520Y-94100480D01*
X151707520Y-90524617D01*
X151907833Y-90324654D01*
X152035374Y-90017500D01*
X152035665Y-89684919D01*
X151908659Y-89377543D01*
X151673694Y-89142167D01*
X151366540Y-89014626D01*
X151033959Y-89014335D01*
X150726583Y-89141341D01*
X150491207Y-89376306D01*
X150363666Y-89683460D01*
X150363375Y-90016041D01*
X150490381Y-90323417D01*
X150691520Y-90524908D01*
X150691520Y-93890060D01*
X150066997Y-94514583D01*
X149783959Y-94514335D01*
X149508000Y-94628360D01*
X149508000Y-90174137D01*
X149708313Y-89974174D01*
X149835854Y-89667020D01*
X149836145Y-89334439D01*
X149709139Y-89027063D01*
X149474174Y-88791687D01*
X149167020Y-88664146D01*
X148834439Y-88663855D01*
X148527063Y-88790861D01*
X148291687Y-89025826D01*
X148164146Y-89332980D01*
X148163855Y-89665561D01*
X148290861Y-89972937D01*
X148492000Y-90174428D01*
X148492000Y-94789579D01*
X148117477Y-95164103D01*
X147834439Y-95163855D01*
X147527063Y-95290861D01*
X147291687Y-95525826D01*
X147164146Y-95832980D01*
X147163855Y-96165561D01*
X126008000Y-96165561D01*
X126008000Y-89250000D01*
X125986551Y-89142167D01*
X125969331Y-89055596D01*
X125859210Y-88890790D01*
X123859210Y-86890790D01*
X123694403Y-86780669D01*
X123500000Y-86742000D01*
X122924137Y-86742000D01*
X122724174Y-86541687D01*
X122417020Y-86414146D01*
X122084439Y-86413855D01*
X121777063Y-86540861D01*
X121541687Y-86775826D01*
X121414146Y-87082980D01*
X121413855Y-87415561D01*
X118655520Y-87415561D01*
X118655520Y-61151507D01*
X127147945Y-61151507D01*
X127433687Y-61843055D01*
X127962322Y-62372614D01*
X128394140Y-62551920D01*
X128394140Y-72148253D01*
X127965105Y-72325527D01*
X127435546Y-72854162D01*
X127148598Y-73545211D01*
X127147945Y-74293467D01*
X127433687Y-74985015D01*
X127962322Y-75514574D01*
X128653371Y-75801522D01*
X129401627Y-75802175D01*
X130093175Y-75516433D01*
X130622734Y-74987798D01*
X130909682Y-74296749D01*
X130910335Y-73548493D01*
X130624593Y-72856945D01*
X130095958Y-72327386D01*
X129664140Y-72148080D01*
X129664140Y-71639709D01*
X130982258Y-71639709D01*
X131052338Y-71834799D01*
X131481452Y-72022742D01*
X131949824Y-72032164D01*
X132386149Y-71861629D01*
X132426302Y-71834799D01*
X132496382Y-71639709D01*
X131739320Y-70882647D01*
X130982258Y-71639709D01*
X129664140Y-71639709D01*
X129664140Y-71060624D01*
X130557276Y-71060624D01*
X130727811Y-71496949D01*
X130754641Y-71537102D01*
X130949731Y-71607182D01*
X131706793Y-70850120D01*
X131771847Y-70850120D01*
X132528909Y-71607182D01*
X132723999Y-71537102D01*
X132911942Y-71107988D01*
X132921364Y-70639616D01*
X132750829Y-70203291D01*
X132723999Y-70163138D01*
X132528909Y-70093058D01*
X131771847Y-70850120D01*
X131706793Y-70850120D01*
X130949731Y-70093058D01*
X130754641Y-70163138D01*
X130566698Y-70592252D01*
X130557276Y-71060624D01*
X129664140Y-71060624D01*
X129664140Y-70060531D01*
X130982258Y-70060531D01*
X131739320Y-70817593D01*
X132496382Y-70060531D01*
X132426302Y-69865441D01*
X131997188Y-69677498D01*
X131528816Y-69668076D01*
X131092491Y-69838611D01*
X131052338Y-69865441D01*
X130982258Y-70060531D01*
X129664140Y-70060531D01*
X129664140Y-66573336D01*
X130607554Y-66573336D01*
X130779462Y-66989386D01*
X131097500Y-67307979D01*
X131198432Y-67349890D01*
X131099174Y-67390902D01*
X130780581Y-67708940D01*
X130607947Y-68124689D01*
X130607554Y-68574856D01*
X130779462Y-68990906D01*
X131097500Y-69309499D01*
X131513249Y-69482133D01*
X131963416Y-69482526D01*
X132379466Y-69310618D01*
X132698059Y-68992580D01*
X132870693Y-68576831D01*
X132871086Y-68126664D01*
X132699178Y-67710614D01*
X132381140Y-67392021D01*
X132280208Y-67350110D01*
X132379466Y-67309098D01*
X132698059Y-66991060D01*
X132870693Y-66575311D01*
X132871086Y-66125144D01*
X132699178Y-65709094D01*
X132381140Y-65390501D01*
X131965391Y-65217867D01*
X131515224Y-65217474D01*
X131099174Y-65389382D01*
X130780581Y-65707420D01*
X130607947Y-66123169D01*
X130607554Y-66573336D01*
X129664140Y-66573336D01*
X129664140Y-64073976D01*
X130607554Y-64073976D01*
X130779462Y-64490026D01*
X131097500Y-64808619D01*
X131513249Y-64981253D01*
X131963416Y-64981646D01*
X132379466Y-64809738D01*
X132698059Y-64491700D01*
X132870693Y-64075951D01*
X132871086Y-63625784D01*
X132699178Y-63209734D01*
X132381140Y-62891141D01*
X131965391Y-62718507D01*
X131515224Y-62718114D01*
X131099174Y-62890022D01*
X130780581Y-63208060D01*
X130607947Y-63623809D01*
X130607554Y-64073976D01*
X129664140Y-64073976D01*
X129664140Y-62551747D01*
X130093175Y-62374473D01*
X130622734Y-61845838D01*
X130909682Y-61154789D01*
X130910335Y-60406533D01*
X130624593Y-59714985D01*
X130095958Y-59185426D01*
X129404909Y-58898478D01*
X128656653Y-58897825D01*
X127965105Y-59183567D01*
X127435546Y-59712202D01*
X127148598Y-60403251D01*
X127147945Y-61151507D01*
X118655520Y-61151507D01*
X118655520Y-57677392D01*
X135779271Y-57677392D01*
X135988995Y-58184963D01*
X136376994Y-58573640D01*
X136884199Y-58784249D01*
X137433392Y-58784729D01*
X137940963Y-58575005D01*
X138329640Y-58187006D01*
X138540249Y-57679801D01*
X138540729Y-57130608D01*
X138331005Y-56623037D01*
X137943006Y-56234360D01*
X137435801Y-56023751D01*
X136886608Y-56023271D01*
X136379037Y-56232995D01*
X135990360Y-56620994D01*
X135779751Y-57128199D01*
X135779271Y-57677392D01*
X118655520Y-57677392D01*
X118655520Y-47250000D01*
X119242000Y-47250000D01*
X119242000Y-55500000D01*
X119280669Y-55694403D01*
X119390790Y-55859210D01*
X120140790Y-56609210D01*
X120305596Y-56719331D01*
X120500000Y-56758000D01*
X125325863Y-56758000D01*
X125525826Y-56958313D01*
X125832980Y-57085854D01*
X126165561Y-57086145D01*
X126472937Y-56959139D01*
X126708313Y-56724174D01*
X126835854Y-56417020D01*
X126836145Y-56084439D01*
X126709139Y-55777063D01*
X126474174Y-55541687D01*
X126167020Y-55414146D01*
X125834439Y-55413855D01*
X125527063Y-55540861D01*
X125325572Y-55742000D01*
X120710420Y-55742000D01*
X120258000Y-55289580D01*
X120258000Y-54191261D01*
X120308037Y-54442815D01*
X120553207Y-54809738D01*
X120920130Y-55054908D01*
X121352945Y-55141000D01*
X121907055Y-55141000D01*
X122339870Y-55054908D01*
X122706793Y-54809738D01*
X122951963Y-54442815D01*
X123038055Y-54010000D01*
X123261945Y-54010000D01*
X123348037Y-54442815D01*
X123593207Y-54809738D01*
X123960130Y-55054908D01*
X124392945Y-55141000D01*
X124947055Y-55141000D01*
X125379870Y-55054908D01*
X125746793Y-54809738D01*
X125991963Y-54442815D01*
X126078055Y-54010000D01*
X125991963Y-53577185D01*
X125746793Y-53210262D01*
X125379870Y-52965092D01*
X124947055Y-52879000D01*
X124392945Y-52879000D01*
X123960130Y-52965092D01*
X123593207Y-53210262D01*
X123348037Y-53577185D01*
X123261945Y-54010000D01*
X123038055Y-54010000D01*
X122951963Y-53577185D01*
X122706793Y-53210262D01*
X122339870Y-52965092D01*
X121907055Y-52879000D01*
X121352945Y-52879000D01*
X120920130Y-52965092D01*
X120553207Y-53210262D01*
X120308037Y-53577185D01*
X120258000Y-53828739D01*
X120258000Y-51651261D01*
X120308037Y-51902815D01*
X120553207Y-52269738D01*
X120920130Y-52514908D01*
X121352945Y-52601000D01*
X121907055Y-52601000D01*
X122339870Y-52514908D01*
X122706793Y-52269738D01*
X122951963Y-51902815D01*
X122996919Y-51676805D01*
X123261311Y-51676805D01*
X123323792Y-51899169D01*
X123571472Y-52286001D01*
X123948332Y-52548604D01*
X124397000Y-52647000D01*
X124647000Y-52647000D01*
X124647000Y-51493000D01*
X124693000Y-51493000D01*
X124693000Y-52647000D01*
X124943000Y-52647000D01*
X125391668Y-52548604D01*
X125768528Y-52286001D01*
X125963454Y-51981561D01*
X130227855Y-51981561D01*
X130354861Y-52288937D01*
X130556000Y-52490428D01*
X130556000Y-54356000D01*
X130594669Y-54550403D01*
X130704790Y-54715210D01*
X131720790Y-55731210D01*
X131885597Y-55841331D01*
X132080000Y-55880000D01*
X132929863Y-55880000D01*
X133129826Y-56080313D01*
X133436980Y-56207854D01*
X133769561Y-56208145D01*
X134076937Y-56081139D01*
X134312313Y-55846174D01*
X134439854Y-55539020D01*
X134440145Y-55206439D01*
X134313139Y-54899063D01*
X134078174Y-54663687D01*
X133771020Y-54536146D01*
X133438439Y-54535855D01*
X133131063Y-54662861D01*
X132929572Y-54864000D01*
X132290420Y-54864000D01*
X131572000Y-54145580D01*
X131572000Y-52490137D01*
X131772313Y-52290174D01*
X131899854Y-51983020D01*
X131900145Y-51650439D01*
X131773139Y-51343063D01*
X131538174Y-51107687D01*
X131231020Y-50980146D01*
X130898439Y-50979855D01*
X130591063Y-51106861D01*
X130355687Y-51341826D01*
X130228146Y-51648980D01*
X130227855Y-51981561D01*
X125963454Y-51981561D01*
X126016208Y-51899169D01*
X126078689Y-51676805D01*
X125990003Y-51493000D01*
X124693000Y-51493000D01*
X124647000Y-51493000D01*
X123349997Y-51493000D01*
X123261311Y-51676805D01*
X122996919Y-51676805D01*
X123038055Y-51470000D01*
X122996920Y-51263195D01*
X123261311Y-51263195D01*
X123349997Y-51447000D01*
X124647000Y-51447000D01*
X124647000Y-50293000D01*
X124693000Y-50293000D01*
X124693000Y-51447000D01*
X125990003Y-51447000D01*
X126078689Y-51263195D01*
X126016208Y-51040831D01*
X125768528Y-50653999D01*
X125391668Y-50391396D01*
X124943000Y-50293000D01*
X124693000Y-50293000D01*
X124647000Y-50293000D01*
X124397000Y-50293000D01*
X123948332Y-50391396D01*
X123571472Y-50653999D01*
X123323792Y-51040831D01*
X123261311Y-51263195D01*
X122996920Y-51263195D01*
X122951963Y-51037185D01*
X122706793Y-50670262D01*
X122339870Y-50425092D01*
X121907055Y-50339000D01*
X121352945Y-50339000D01*
X120920130Y-50425092D01*
X120553207Y-50670262D01*
X120308037Y-51037185D01*
X120258000Y-51288739D01*
X120258000Y-49111261D01*
X120308037Y-49362815D01*
X120553207Y-49729738D01*
X120920130Y-49974908D01*
X121352945Y-50061000D01*
X121907055Y-50061000D01*
X122339870Y-49974908D01*
X122706793Y-49729738D01*
X122951963Y-49362815D01*
X123038055Y-48930000D01*
X123261945Y-48930000D01*
X123348037Y-49362815D01*
X123593207Y-49729738D01*
X123960130Y-49974908D01*
X124392945Y-50061000D01*
X124947055Y-50061000D01*
X125379870Y-49974908D01*
X125746793Y-49729738D01*
X125991963Y-49362815D01*
X126078055Y-48930000D01*
X125991963Y-48497185D01*
X125746793Y-48130262D01*
X125379870Y-47885092D01*
X124947055Y-47799000D01*
X124392945Y-47799000D01*
X123960130Y-47885092D01*
X123593207Y-48130262D01*
X123348037Y-48497185D01*
X123261945Y-48930000D01*
X123038055Y-48930000D01*
X122951963Y-48497185D01*
X122706793Y-48130262D01*
X122339870Y-47885092D01*
X121907055Y-47799000D01*
X121352945Y-47799000D01*
X120920130Y-47885092D01*
X120553207Y-48130262D01*
X120308037Y-48497185D01*
X120258000Y-48748739D01*
X120258000Y-47460420D01*
X120334322Y-47384098D01*
X120351546Y-47410865D01*
X120478866Y-47497859D01*
X120630000Y-47528464D01*
X122630000Y-47528464D01*
X122771190Y-47501897D01*
X122900865Y-47418454D01*
X122987859Y-47291134D01*
X123018464Y-47140000D01*
X123018464Y-46390000D01*
X123261945Y-46390000D01*
X123348037Y-46822815D01*
X123593207Y-47189738D01*
X123960130Y-47434908D01*
X124392945Y-47521000D01*
X124947055Y-47521000D01*
X125379870Y-47434908D01*
X125746793Y-47189738D01*
X125991963Y-46822815D01*
X126078055Y-46390000D01*
X125991963Y-45957185D01*
X125746793Y-45590262D01*
X125379870Y-45345092D01*
X124947055Y-45259000D01*
X124928000Y-45259000D01*
X124928000Y-40790420D01*
X126302859Y-39415561D01*
X127413855Y-39415561D01*
X127540861Y-39722937D01*
X127742000Y-39924428D01*
X127742000Y-44250000D01*
X127780669Y-44444403D01*
X127890790Y-44609210D01*
X147640790Y-64359210D01*
X147805597Y-64469331D01*
X148000000Y-64508000D01*
X149575863Y-64508000D01*
X149775826Y-64708313D01*
X150082980Y-64835854D01*
X150415561Y-64836145D01*
X150722937Y-64709139D01*
X150958313Y-64474174D01*
X151085854Y-64167020D01*
X151086145Y-63834439D01*
X150959139Y-63527063D01*
X150724174Y-63291687D01*
X150417020Y-63164146D01*
X150084439Y-63163855D01*
X149777063Y-63290861D01*
X149575572Y-63492000D01*
X148210420Y-63492000D01*
X145133981Y-60415561D01*
X148913855Y-60415561D01*
X149040861Y-60722937D01*
X149275826Y-60958313D01*
X149582980Y-61085854D01*
X149867683Y-61086103D01*
X151140790Y-62359210D01*
X151305597Y-62469331D01*
X151500000Y-62508000D01*
X152075863Y-62508000D01*
X152275826Y-62708313D01*
X152582980Y-62835854D01*
X152915561Y-62836145D01*
X153222937Y-62709139D01*
X153458313Y-62474174D01*
X153585854Y-62167020D01*
X153586145Y-61834439D01*
X153459139Y-61527063D01*
X153224174Y-61291687D01*
X152917020Y-61164146D01*
X152584439Y-61163855D01*
X152277063Y-61290861D01*
X152075572Y-61492000D01*
X151710420Y-61492000D01*
X150585897Y-60367477D01*
X150586145Y-60084439D01*
X150459139Y-59777063D01*
X150224174Y-59541687D01*
X149917020Y-59414146D01*
X149584439Y-59413855D01*
X149277063Y-59540861D01*
X149041687Y-59775826D01*
X148914146Y-60082980D01*
X148913855Y-60415561D01*
X145133981Y-60415561D01*
X132235812Y-47517392D01*
X135779271Y-47517392D01*
X135988995Y-48024963D01*
X136376994Y-48413640D01*
X136884199Y-48624249D01*
X137433392Y-48624729D01*
X137940963Y-48415005D01*
X138329640Y-48027006D01*
X138540249Y-47519801D01*
X138540729Y-46970608D01*
X138331005Y-46463037D01*
X137943006Y-46074360D01*
X137435801Y-45863751D01*
X136886608Y-45863271D01*
X136379037Y-46072995D01*
X135990360Y-46460994D01*
X135779751Y-46968199D01*
X135779271Y-47517392D01*
X132235812Y-47517392D01*
X128758000Y-44039580D01*
X128758000Y-39924137D01*
X128958313Y-39724174D01*
X129085854Y-39417020D01*
X129086145Y-39084439D01*
X128959139Y-38777063D01*
X128724174Y-38541687D01*
X128417020Y-38414146D01*
X128084439Y-38413855D01*
X127777063Y-38540861D01*
X127541687Y-38775826D01*
X127414146Y-39082980D01*
X127413855Y-39415561D01*
X126302859Y-39415561D01*
X127710420Y-38008000D01*
X131539580Y-38008000D01*
X154716110Y-61184530D01*
X154667020Y-61164146D01*
X154334439Y-61163855D01*
X154027063Y-61290861D01*
X153791687Y-61525826D01*
X153664146Y-61832980D01*
X153663855Y-62165561D01*
X153790861Y-62472937D01*
X154025826Y-62708313D01*
X154332980Y-62835854D01*
X154617683Y-62836103D01*
X169492000Y-77710420D01*
X169492000Y-99388000D01*
X169530669Y-99582403D01*
X169640790Y-99747210D01*
X173916103Y-104022523D01*
X173915855Y-104305561D01*
X174042861Y-104612937D01*
X174277826Y-104848313D01*
X174584980Y-104975854D01*
X174917561Y-104976145D01*
X175224937Y-104849139D01*
X175460313Y-104614174D01*
X175587854Y-104307020D01*
X175588145Y-103974439D01*
X175461139Y-103667063D01*
X175226174Y-103431687D01*
X174919020Y-103304146D01*
X174634317Y-103303897D01*
X170508000Y-99177580D01*
X170508000Y-77500000D01*
X170469331Y-77305597D01*
X170469331Y-77305596D01*
X170359210Y-77140790D01*
X163383981Y-70165561D01*
X163913855Y-70165561D01*
X164040861Y-70472937D01*
X164275826Y-70708313D01*
X164582980Y-70835854D01*
X164915561Y-70836145D01*
X165222937Y-70709139D01*
X165458313Y-70474174D01*
X165585854Y-70167020D01*
X165585993Y-70008000D01*
X167419562Y-70008000D01*
X167305597Y-70030669D01*
X167140790Y-70140790D01*
X167117477Y-70164103D01*
X166834439Y-70163855D01*
X166527063Y-70290861D01*
X166291687Y-70525826D01*
X166164146Y-70832980D01*
X166163855Y-71165561D01*
X166290861Y-71472937D01*
X166525826Y-71708313D01*
X166832980Y-71835854D01*
X167165561Y-71836145D01*
X167472937Y-71709139D01*
X167708313Y-71474174D01*
X167835854Y-71167020D01*
X167835993Y-71008000D01*
X171186523Y-71008000D01*
X171113666Y-71183460D01*
X171113375Y-71516041D01*
X171240381Y-71823417D01*
X171441520Y-72024908D01*
X171441520Y-77926343D01*
X171241207Y-78126306D01*
X171113666Y-78433460D01*
X171113375Y-78766041D01*
X171240381Y-79073417D01*
X171475346Y-79308793D01*
X171782500Y-79436334D01*
X172115081Y-79436625D01*
X172422457Y-79309619D01*
X172657833Y-79074654D01*
X172785374Y-78767500D01*
X172785665Y-78434919D01*
X172658659Y-78127543D01*
X172457520Y-77926052D01*
X172457520Y-72024617D01*
X172657833Y-71824654D01*
X172785374Y-71517500D01*
X172785665Y-71184919D01*
X172712563Y-71008000D01*
X173825863Y-71008000D01*
X173992000Y-71174428D01*
X173992000Y-84000000D01*
X174030669Y-84194403D01*
X174140790Y-84359210D01*
X176164103Y-86382523D01*
X176163855Y-86665561D01*
X176290861Y-86972937D01*
X176525826Y-87208313D01*
X176832980Y-87335854D01*
X177121474Y-87336106D01*
X173376790Y-91080790D01*
X173266669Y-91245597D01*
X173228000Y-91440000D01*
X173228000Y-99401863D01*
X173027687Y-99601826D01*
X172900146Y-99908980D01*
X172899855Y-100241561D01*
X173026861Y-100548937D01*
X173261826Y-100784313D01*
X173568980Y-100911854D01*
X173901561Y-100912145D01*
X174208937Y-100785139D01*
X174444313Y-100550174D01*
X174571854Y-100243020D01*
X174572145Y-99910439D01*
X174445139Y-99603063D01*
X174244000Y-99401572D01*
X174244000Y-97142761D01*
X177573455Y-97142761D01*
X177700461Y-97450137D01*
X177935426Y-97685513D01*
X178242580Y-97813054D01*
X178575161Y-97813345D01*
X178882537Y-97686339D01*
X179117913Y-97451374D01*
X179245454Y-97144220D01*
X179245745Y-96811639D01*
X179118739Y-96504263D01*
X178917600Y-96302772D01*
X178917600Y-92818820D01*
X184458410Y-87278011D01*
X184550098Y-87140790D01*
X184568531Y-87113203D01*
X184607200Y-86918800D01*
X184607200Y-83979620D01*
X184896123Y-83690697D01*
X185179161Y-83690945D01*
X185486537Y-83563939D01*
X185721913Y-83328974D01*
X185849454Y-83021820D01*
X185849745Y-82689239D01*
X185722739Y-82381863D01*
X185487774Y-82146487D01*
X185180620Y-82018946D01*
X184848039Y-82018655D01*
X184540663Y-82145661D01*
X184305287Y-82380626D01*
X184177746Y-82687780D01*
X184177497Y-82972483D01*
X183739990Y-83409990D01*
X183629869Y-83574797D01*
X183591200Y-83769200D01*
X183591200Y-86708379D01*
X178050390Y-92249190D01*
X177940269Y-92413997D01*
X177901600Y-92608400D01*
X177901600Y-96303063D01*
X177701287Y-96503026D01*
X177573746Y-96810180D01*
X177573455Y-97142761D01*
X174244000Y-97142761D01*
X174244000Y-91650420D01*
X178386420Y-87508000D01*
X179575863Y-87508000D01*
X179775826Y-87708313D01*
X180082980Y-87835854D01*
X180415561Y-87836145D01*
X180722937Y-87709139D01*
X180958313Y-87474174D01*
X181085854Y-87167020D01*
X181086145Y-86834439D01*
X180959139Y-86527063D01*
X180724174Y-86291687D01*
X180417020Y-86164146D01*
X180084439Y-86163855D01*
X179777063Y-86290861D01*
X179575572Y-86492000D01*
X178176000Y-86492000D01*
X177981596Y-86530669D01*
X177835888Y-86628029D01*
X177836145Y-86334439D01*
X177709139Y-86027063D01*
X177474174Y-85791687D01*
X177167020Y-85664146D01*
X176882317Y-85663897D01*
X175008000Y-83789580D01*
X175008000Y-76165561D01*
X175663855Y-76165561D01*
X175790861Y-76472937D01*
X175992000Y-76674428D01*
X175992000Y-79075863D01*
X175791687Y-79275826D01*
X175664146Y-79582980D01*
X175663855Y-79915561D01*
X175790861Y-80222937D01*
X176025826Y-80458313D01*
X176332980Y-80585854D01*
X176665561Y-80586145D01*
X176972937Y-80459139D01*
X177208313Y-80224174D01*
X177335854Y-79917020D01*
X177336145Y-79584439D01*
X177209139Y-79277063D01*
X177008000Y-79075572D01*
X177008000Y-76674137D01*
X177208313Y-76474174D01*
X177335854Y-76167020D01*
X177336145Y-75834439D01*
X177209139Y-75527063D01*
X176974174Y-75291687D01*
X176678583Y-75168947D01*
X180984185Y-75168947D01*
X181269927Y-75860495D01*
X181798562Y-76390054D01*
X182489611Y-76677002D01*
X183237867Y-76677655D01*
X183929415Y-76391913D01*
X184458974Y-75863278D01*
X184745922Y-75172229D01*
X184746575Y-74423973D01*
X184460833Y-73732425D01*
X183932198Y-73202866D01*
X183241149Y-72915918D01*
X182492893Y-72915265D01*
X181801345Y-73201007D01*
X181271786Y-73729642D01*
X180984838Y-74420691D01*
X180984185Y-75168947D01*
X176678583Y-75168947D01*
X176667020Y-75164146D01*
X176334439Y-75163855D01*
X176027063Y-75290861D01*
X175791687Y-75525826D01*
X175664146Y-75832980D01*
X175663855Y-76165561D01*
X175008000Y-76165561D01*
X175008000Y-71174137D01*
X175208313Y-70974174D01*
X175335854Y-70667020D01*
X175335953Y-70554373D01*
X176890790Y-72109211D01*
X177055597Y-72219331D01*
X177250000Y-72258000D01*
X179150822Y-72258000D01*
X179195342Y-72365746D01*
X179513380Y-72684339D01*
X179929129Y-72856973D01*
X180379296Y-72857366D01*
X180795346Y-72685458D01*
X181113939Y-72367420D01*
X181286573Y-71951671D01*
X181286966Y-71501504D01*
X181115058Y-71085454D01*
X180797020Y-70766861D01*
X180381271Y-70594227D01*
X179931104Y-70593834D01*
X179515054Y-70765742D01*
X179196461Y-71083780D01*
X179130762Y-71242000D01*
X177460421Y-71242000D01*
X175359210Y-69140790D01*
X175194403Y-69030669D01*
X175000000Y-68992000D01*
X165250000Y-68992000D01*
X165055597Y-69030669D01*
X164890790Y-69140790D01*
X164867477Y-69164103D01*
X164584439Y-69163855D01*
X164277063Y-69290861D01*
X164041687Y-69525826D01*
X163914146Y-69832980D01*
X163913855Y-70165561D01*
X163383981Y-70165561D01*
X160667236Y-67448816D01*
X179023434Y-67448816D01*
X179195342Y-67864866D01*
X179513380Y-68183459D01*
X179614312Y-68225370D01*
X179515054Y-68266382D01*
X179196461Y-68584420D01*
X179023827Y-69000169D01*
X179023434Y-69450336D01*
X179195342Y-69866386D01*
X179513380Y-70184979D01*
X179929129Y-70357613D01*
X180379296Y-70358006D01*
X180795346Y-70186098D01*
X181113939Y-69868060D01*
X181286573Y-69452311D01*
X181286966Y-69002144D01*
X181115058Y-68586094D01*
X180797020Y-68267501D01*
X180696088Y-68225590D01*
X180795346Y-68184578D01*
X181113939Y-67866540D01*
X181286573Y-67450791D01*
X181286966Y-67000624D01*
X181115058Y-66584574D01*
X180797020Y-66265981D01*
X180381271Y-66093347D01*
X179931104Y-66092954D01*
X179515054Y-66264862D01*
X179196461Y-66582900D01*
X179023827Y-66998649D01*
X179023434Y-67448816D01*
X160667236Y-67448816D01*
X158733369Y-65514949D01*
X179398138Y-65514949D01*
X179468218Y-65710039D01*
X179897332Y-65897982D01*
X180365704Y-65907404D01*
X180802029Y-65736869D01*
X180842182Y-65710039D01*
X180912262Y-65514949D01*
X180155200Y-64757887D01*
X179398138Y-65514949D01*
X158733369Y-65514949D01*
X158154284Y-64935864D01*
X178973156Y-64935864D01*
X179143691Y-65372189D01*
X179170521Y-65412342D01*
X179365611Y-65482422D01*
X180122673Y-64725360D01*
X180187727Y-64725360D01*
X180944789Y-65482422D01*
X181139879Y-65412342D01*
X181327822Y-64983228D01*
X181337244Y-64514856D01*
X181166709Y-64078531D01*
X181139879Y-64038378D01*
X180944789Y-63968298D01*
X180187727Y-64725360D01*
X180122673Y-64725360D01*
X179365611Y-63968298D01*
X179170521Y-64038378D01*
X178982578Y-64467492D01*
X178973156Y-64935864D01*
X158154284Y-64935864D01*
X157154191Y-63935771D01*
X179398138Y-63935771D01*
X180155200Y-64692833D01*
X180912262Y-63935771D01*
X180842182Y-63740681D01*
X180413068Y-63552738D01*
X179944696Y-63543316D01*
X179508371Y-63713851D01*
X179468218Y-63740681D01*
X179398138Y-63935771D01*
X157154191Y-63935771D01*
X155783890Y-62565470D01*
X155832980Y-62585854D01*
X156165561Y-62586145D01*
X156472937Y-62459139D01*
X156708313Y-62224174D01*
X156790191Y-62026987D01*
X180984185Y-62026987D01*
X181269927Y-62718535D01*
X181798562Y-63248094D01*
X182489611Y-63535042D01*
X183237867Y-63535695D01*
X183929415Y-63249953D01*
X184458974Y-62721318D01*
X184745922Y-62030269D01*
X184746575Y-61282013D01*
X184460833Y-60590465D01*
X183932198Y-60060906D01*
X183241149Y-59773958D01*
X182492893Y-59773305D01*
X181801345Y-60059047D01*
X181271786Y-60587682D01*
X180984838Y-61278731D01*
X180984185Y-62026987D01*
X156790191Y-62026987D01*
X156835854Y-61917020D01*
X156836145Y-61584439D01*
X156709139Y-61277063D01*
X156474174Y-61041687D01*
X156167020Y-60914146D01*
X155882317Y-60913897D01*
X151020212Y-56051792D01*
X169510471Y-56051792D01*
X169720195Y-56559363D01*
X170108194Y-56948040D01*
X170615399Y-57158649D01*
X171164592Y-57159129D01*
X171672163Y-56949405D01*
X172060840Y-56561406D01*
X172271449Y-56054201D01*
X172271451Y-56051792D01*
X179670471Y-56051792D01*
X179880195Y-56559363D01*
X180268194Y-56948040D01*
X180775399Y-57158649D01*
X181324592Y-57159129D01*
X181832163Y-56949405D01*
X182220840Y-56561406D01*
X182431449Y-56054201D01*
X182431929Y-55505008D01*
X182222205Y-54997437D01*
X181834206Y-54608760D01*
X181327001Y-54398151D01*
X180777808Y-54397671D01*
X180270237Y-54607395D01*
X179881560Y-54995394D01*
X179670951Y-55502599D01*
X179670471Y-56051792D01*
X172271451Y-56051792D01*
X172271929Y-55505008D01*
X172062205Y-54997437D01*
X171674206Y-54608760D01*
X171167001Y-54398151D01*
X170617808Y-54397671D01*
X170110237Y-54607395D01*
X169721560Y-54995394D01*
X169510951Y-55502599D01*
X169510471Y-56051792D01*
X151020212Y-56051792D01*
X149223900Y-54255480D01*
X185756465Y-54255480D01*
X185842557Y-54688295D01*
X186087727Y-55055218D01*
X186454650Y-55300388D01*
X186887465Y-55386480D01*
X187441575Y-55386480D01*
X187874390Y-55300388D01*
X188241313Y-55055218D01*
X188486483Y-54688295D01*
X188572575Y-54255480D01*
X188486483Y-53822665D01*
X188241313Y-53455742D01*
X187874390Y-53210572D01*
X187441575Y-53124480D01*
X186887465Y-53124480D01*
X186454650Y-53210572D01*
X186087727Y-53455742D01*
X185842557Y-53822665D01*
X185756465Y-54255480D01*
X149223900Y-54255480D01*
X143698781Y-48730361D01*
X175439855Y-48730361D01*
X175566861Y-49037737D01*
X175768000Y-49239228D01*
X175768000Y-51395863D01*
X175567687Y-51595826D01*
X175440146Y-51902980D01*
X175439855Y-52235561D01*
X175566861Y-52542937D01*
X175801826Y-52778313D01*
X176108980Y-52905854D01*
X176441561Y-52906145D01*
X176748937Y-52779139D01*
X176984313Y-52544174D01*
X177111854Y-52237020D01*
X177112145Y-51904439D01*
X177034069Y-51715480D01*
X185756465Y-51715480D01*
X185842557Y-52148295D01*
X186087727Y-52515218D01*
X186454650Y-52760388D01*
X186887465Y-52846480D01*
X187441575Y-52846480D01*
X187874390Y-52760388D01*
X188241313Y-52515218D01*
X188486483Y-52148295D01*
X188572575Y-51715480D01*
X188486483Y-51282665D01*
X188241313Y-50915742D01*
X187874390Y-50670572D01*
X187441575Y-50584480D01*
X186887465Y-50584480D01*
X186454650Y-50670572D01*
X186087727Y-50915742D01*
X185842557Y-51282665D01*
X185756465Y-51715480D01*
X177034069Y-51715480D01*
X176985139Y-51597063D01*
X176784000Y-51395572D01*
X176784000Y-49382285D01*
X185755831Y-49382285D01*
X185818312Y-49604649D01*
X186065992Y-49991481D01*
X186442852Y-50254084D01*
X186891520Y-50352480D01*
X187141520Y-50352480D01*
X187141520Y-49198480D01*
X187187520Y-49198480D01*
X187187520Y-50352480D01*
X187437520Y-50352480D01*
X187886188Y-50254084D01*
X188263048Y-49991481D01*
X188510728Y-49604649D01*
X188573209Y-49382285D01*
X188484523Y-49198480D01*
X187187520Y-49198480D01*
X187141520Y-49198480D01*
X185844517Y-49198480D01*
X185755831Y-49382285D01*
X176784000Y-49382285D01*
X176784000Y-49238937D01*
X176984313Y-49038974D01*
X177013503Y-48968675D01*
X185755831Y-48968675D01*
X185844517Y-49152480D01*
X187141520Y-49152480D01*
X187141520Y-47998480D01*
X187187520Y-47998480D01*
X187187520Y-49152480D01*
X188484523Y-49152480D01*
X188573209Y-48968675D01*
X188510728Y-48746311D01*
X188263048Y-48359479D01*
X187886188Y-48096876D01*
X187437520Y-47998480D01*
X187187520Y-47998480D01*
X187141520Y-47998480D01*
X186891520Y-47998480D01*
X186442852Y-48096876D01*
X186065992Y-48359479D01*
X185818312Y-48746311D01*
X185755831Y-48968675D01*
X177013503Y-48968675D01*
X177111854Y-48731820D01*
X177112145Y-48399239D01*
X176985139Y-48091863D01*
X176750174Y-47856487D01*
X176443020Y-47728946D01*
X176110439Y-47728655D01*
X175803063Y-47855661D01*
X175567687Y-48090626D01*
X175440146Y-48397780D01*
X175439855Y-48730361D01*
X143698781Y-48730361D01*
X141603900Y-46635480D01*
X185756465Y-46635480D01*
X185842557Y-47068295D01*
X186087727Y-47435218D01*
X186454650Y-47680388D01*
X186887465Y-47766480D01*
X187441575Y-47766480D01*
X187874390Y-47680388D01*
X188241313Y-47435218D01*
X188486483Y-47068295D01*
X188572575Y-46635480D01*
X188486483Y-46202665D01*
X188241313Y-45835742D01*
X187874390Y-45590572D01*
X187441575Y-45504480D01*
X186887465Y-45504480D01*
X186454650Y-45590572D01*
X186087727Y-45835742D01*
X185842557Y-46202665D01*
X185756465Y-46635480D01*
X141603900Y-46635480D01*
X132383981Y-37415561D01*
X182913855Y-37415561D01*
X183040861Y-37722937D01*
X183275826Y-37958313D01*
X183582980Y-38085854D01*
X183915561Y-38086145D01*
X184222937Y-37959139D01*
X184424428Y-37758000D01*
X185539580Y-37758000D01*
X191492000Y-43710420D01*
X191492000Y-46151058D01*
X191281313Y-45835742D01*
X190914390Y-45590572D01*
X190481575Y-45504480D01*
X189927465Y-45504480D01*
X189494650Y-45590572D01*
X189127727Y-45835742D01*
X188882557Y-46202665D01*
X188796465Y-46635480D01*
X188882557Y-47068295D01*
X189127727Y-47435218D01*
X189494650Y-47680388D01*
X189927465Y-47766480D01*
X190481575Y-47766480D01*
X190914390Y-47680388D01*
X191281313Y-47435218D01*
X191492000Y-47119902D01*
X191492000Y-48691058D01*
X191281313Y-48375742D01*
X190914390Y-48130572D01*
X190481575Y-48044480D01*
X189927465Y-48044480D01*
X189494650Y-48130572D01*
X189127727Y-48375742D01*
X188882557Y-48742665D01*
X188796465Y-49175480D01*
X188882557Y-49608295D01*
X189127727Y-49975218D01*
X189494650Y-50220388D01*
X189927465Y-50306480D01*
X190481575Y-50306480D01*
X190914390Y-50220388D01*
X191281313Y-49975218D01*
X191492000Y-49659902D01*
X191492000Y-51231058D01*
X191281313Y-50915742D01*
X190914390Y-50670572D01*
X190481575Y-50584480D01*
X189927465Y-50584480D01*
X189494650Y-50670572D01*
X189127727Y-50915742D01*
X188882557Y-51282665D01*
X188796465Y-51715480D01*
X188882557Y-52148295D01*
X189127727Y-52515218D01*
X189494650Y-52760388D01*
X189927465Y-52846480D01*
X190481575Y-52846480D01*
X190914390Y-52760388D01*
X191281313Y-52515218D01*
X191492000Y-52199902D01*
X191492000Y-53248642D01*
X191482974Y-53234615D01*
X191355654Y-53147621D01*
X191204520Y-53117016D01*
X189204520Y-53117016D01*
X189063330Y-53143583D01*
X188933655Y-53227026D01*
X188846661Y-53354346D01*
X188816056Y-53505480D01*
X188816056Y-55005480D01*
X188842623Y-55146670D01*
X188926066Y-55276345D01*
X189053386Y-55363339D01*
X189204520Y-55393944D01*
X191204520Y-55393944D01*
X191345710Y-55367377D01*
X191475385Y-55283934D01*
X191492000Y-55259617D01*
X191492000Y-75539580D01*
X188117477Y-78914103D01*
X187834439Y-78913855D01*
X187527063Y-79040861D01*
X187291687Y-79275826D01*
X187164146Y-79582980D01*
X187163855Y-79915561D01*
X187290861Y-80222937D01*
X187525826Y-80458313D01*
X187832980Y-80585854D01*
X188165561Y-80586145D01*
X188472937Y-80459139D01*
X188708313Y-80224174D01*
X188835854Y-79917020D01*
X188836103Y-79632317D01*
X192359210Y-76109210D01*
X192469331Y-75944404D01*
X192475746Y-75912150D01*
X192508000Y-75750000D01*
X192508000Y-43500000D01*
X192469331Y-43305597D01*
X192359210Y-43140790D01*
X186109210Y-36890790D01*
X185944403Y-36780669D01*
X185750000Y-36742000D01*
X184424137Y-36742000D01*
X184224174Y-36541687D01*
X183917020Y-36414146D01*
X183584439Y-36413855D01*
X183277063Y-36540861D01*
X183041687Y-36775826D01*
X182914146Y-37082980D01*
X182913855Y-37415561D01*
X132383981Y-37415561D01*
X132109210Y-37140790D01*
X131944403Y-37030669D01*
X131750000Y-36992000D01*
X127500000Y-36992000D01*
X127305597Y-37030669D01*
X127140790Y-37140790D01*
X124060790Y-40220790D01*
X123950669Y-40385597D01*
X123912000Y-40580000D01*
X123912000Y-45377251D01*
X123593207Y-45590262D01*
X123348037Y-45957185D01*
X123261945Y-46390000D01*
X123018464Y-46390000D01*
X123018464Y-45640000D01*
X122991897Y-45498810D01*
X122908454Y-45369135D01*
X122781134Y-45282141D01*
X122630000Y-45251536D01*
X120630000Y-45251536D01*
X120488810Y-45278103D01*
X120359135Y-45361546D01*
X120272141Y-45488866D01*
X120241536Y-45640000D01*
X120241536Y-46040044D01*
X119390790Y-46890790D01*
X119280669Y-47055597D01*
X119242000Y-47250000D01*
X118655520Y-47250000D01*
X118655520Y-34056480D01*
X193040000Y-34056480D01*
X193040000Y-147144480D01*
X193040000Y-147144480D01*
G37*
X193040000Y-147144480D02*
X118655520Y-147144480D01*
X118655520Y-137064480D01*
X123556456Y-137064480D01*
X123556456Y-140864480D01*
X123583023Y-141005670D01*
X123666466Y-141135345D01*
X123793786Y-141222339D01*
X123944920Y-141252944D01*
X127744920Y-141252944D01*
X127886110Y-141226377D01*
X128015785Y-141142934D01*
X128102779Y-141015614D01*
X128133384Y-140864480D01*
X128133384Y-138923483D01*
X140898238Y-138923483D01*
X141146019Y-139523160D01*
X141604427Y-139982368D01*
X142203671Y-140231196D01*
X142852523Y-140231762D01*
X143452200Y-139983981D01*
X143911408Y-139525573D01*
X144160236Y-138926329D01*
X144160520Y-138600480D01*
X145748520Y-138600480D01*
X145748520Y-140925520D01*
X145884091Y-141607079D01*
X146270163Y-142184877D01*
X149108643Y-145023357D01*
X149686441Y-145409429D01*
X150368000Y-145545000D01*
X174752000Y-145545000D01*
X175433559Y-145409429D01*
X176011357Y-145023357D01*
X184378737Y-136655977D01*
X184446913Y-136553944D01*
X185019380Y-136553944D01*
X185160570Y-136527377D01*
X185290245Y-136443934D01*
X185377239Y-136316614D01*
X185407844Y-136165480D01*
X185407844Y-132365480D01*
X186830396Y-132365480D01*
X186830396Y-136165480D01*
X186856963Y-136306670D01*
X186940406Y-136436345D01*
X187067726Y-136523339D01*
X187218860Y-136553944D01*
X191018860Y-136553944D01*
X191160050Y-136527377D01*
X191289725Y-136443934D01*
X191376719Y-136316614D01*
X191407324Y-136165480D01*
X191407324Y-132365480D01*
X191380757Y-132224290D01*
X191297314Y-132094615D01*
X191169994Y-132007621D01*
X191018860Y-131977016D01*
X187218860Y-131977016D01*
X187077670Y-132003583D01*
X186947995Y-132087026D01*
X186861001Y-132214346D01*
X186830396Y-132365480D01*
X185407844Y-132365480D01*
X185381277Y-132224290D01*
X185297834Y-132094615D01*
X185170514Y-132007621D01*
X185019380Y-131977016D01*
X181219380Y-131977016D01*
X181078190Y-132003583D01*
X180948515Y-132087026D01*
X180861521Y-132214346D01*
X180830916Y-132365480D01*
X180830916Y-135166370D01*
X174014286Y-141983000D01*
X151105714Y-141983000D01*
X149310520Y-140187806D01*
X149310520Y-138923483D01*
X150898238Y-138923483D01*
X151146019Y-139523160D01*
X151604427Y-139982368D01*
X152203671Y-140231196D01*
X152852523Y-140231762D01*
X153452200Y-139983981D01*
X153911408Y-139525573D01*
X154160236Y-138926329D01*
X154160238Y-138923483D01*
X160898238Y-138923483D01*
X161146019Y-139523160D01*
X161604427Y-139982368D01*
X162203671Y-140231196D01*
X162852523Y-140231762D01*
X163452200Y-139983981D01*
X163911408Y-139525573D01*
X164136503Y-138983483D01*
X165888238Y-138983483D01*
X166136019Y-139583160D01*
X166594427Y-140042368D01*
X167193671Y-140291196D01*
X167842523Y-140291762D01*
X168442200Y-140043981D01*
X168901408Y-139585573D01*
X169150236Y-138986329D01*
X169150802Y-138337477D01*
X168903021Y-137737800D01*
X168444613Y-137278592D01*
X167845369Y-137029764D01*
X167196517Y-137029198D01*
X166596840Y-137276979D01*
X166137632Y-137735387D01*
X165888804Y-138334631D01*
X165888238Y-138983483D01*
X164136503Y-138983483D01*
X164160236Y-138926329D01*
X164160802Y-138277477D01*
X163913021Y-137677800D01*
X163454613Y-137218592D01*
X162855369Y-136969764D01*
X162206517Y-136969198D01*
X161606840Y-137216979D01*
X161147632Y-137675387D01*
X160898804Y-138274631D01*
X160898238Y-138923483D01*
X154160238Y-138923483D01*
X154160802Y-138277477D01*
X153913021Y-137677800D01*
X153454613Y-137218592D01*
X152855369Y-136969764D01*
X152206517Y-136969198D01*
X151606840Y-137216979D01*
X151147632Y-137675387D01*
X150898804Y-138274631D01*
X150898238Y-138923483D01*
X149310520Y-138923483D01*
X149310520Y-138600480D01*
X149174949Y-137918921D01*
X148788877Y-137341123D01*
X148211079Y-136955051D01*
X147529520Y-136819480D01*
X146847961Y-136955051D01*
X146270163Y-137341123D01*
X145884091Y-137918921D01*
X145748520Y-138600480D01*
X144160520Y-138600480D01*
X144160802Y-138277477D01*
X143913021Y-137677800D01*
X143454613Y-137218592D01*
X142855369Y-136969764D01*
X142206517Y-136969198D01*
X141606840Y-137216979D01*
X141147632Y-137675387D01*
X140898804Y-138274631D01*
X140898238Y-138923483D01*
X128133384Y-138923483D01*
X128133384Y-137064480D01*
X128106817Y-136923290D01*
X128023374Y-136793615D01*
X127896054Y-136706621D01*
X127744920Y-136676016D01*
X123944920Y-136676016D01*
X123803730Y-136702583D01*
X123674055Y-136786026D01*
X123587061Y-136913346D01*
X123556456Y-137064480D01*
X118655520Y-137064480D01*
X118655520Y-132365480D01*
X120556716Y-132365480D01*
X120556716Y-136165480D01*
X120583283Y-136306670D01*
X120666726Y-136436345D01*
X120794046Y-136523339D01*
X120945180Y-136553944D01*
X124745180Y-136553944D01*
X124886370Y-136527377D01*
X125016045Y-136443934D01*
X125103039Y-136316614D01*
X125133644Y-136165480D01*
X125133644Y-132365480D01*
X125107077Y-132224290D01*
X125023634Y-132094615D01*
X124896314Y-132007621D01*
X124745180Y-131977016D01*
X120945180Y-131977016D01*
X120803990Y-132003583D01*
X120674315Y-132087026D01*
X120587321Y-132214346D01*
X120556716Y-132365480D01*
X118655520Y-132365480D01*
X118655520Y-121864907D01*
X122409605Y-121864907D01*
X122528069Y-122151613D01*
X122747233Y-122371160D01*
X123033732Y-122490125D01*
X123343947Y-122490395D01*
X123630653Y-122371931D01*
X123850200Y-122152767D01*
X123969165Y-121866268D01*
X123969435Y-121556053D01*
X123850971Y-121269347D01*
X123631807Y-121049800D01*
X123345308Y-120930835D01*
X123035093Y-120930565D01*
X122748387Y-121049029D01*
X122528840Y-121268193D01*
X122409875Y-121554692D01*
X122409605Y-121864907D01*
X118655520Y-121864907D01*
X118655520Y-118872000D01*
X125219000Y-118872000D01*
X125354571Y-119553559D01*
X125740643Y-120131357D01*
X127063660Y-121454374D01*
X127063660Y-131977016D01*
X126944660Y-131977016D01*
X126803470Y-132003583D01*
X126673795Y-132087026D01*
X126586801Y-132214346D01*
X126556196Y-132365480D01*
X126556196Y-136165480D01*
X126582763Y-136306670D01*
X126666206Y-136436345D01*
X126793526Y-136523339D01*
X126944660Y-136553944D01*
X130744660Y-136553944D01*
X130885850Y-136527377D01*
X131015525Y-136443934D01*
X131102519Y-136316614D01*
X131133124Y-136165480D01*
X131133124Y-132365480D01*
X131106557Y-132224290D01*
X131023114Y-132094615D01*
X130895794Y-132007621D01*
X130744660Y-131977016D01*
X130625660Y-131977016D01*
X130625660Y-131473483D01*
X140898238Y-131473483D01*
X141146019Y-132073160D01*
X141604427Y-132532368D01*
X142203671Y-132781196D01*
X142852523Y-132781762D01*
X143452200Y-132533981D01*
X143911408Y-132075573D01*
X144160236Y-131476329D01*
X144160802Y-130827477D01*
X143913021Y-130227800D01*
X143454613Y-129768592D01*
X142855369Y-129519764D01*
X142206517Y-129519198D01*
X141606840Y-129766979D01*
X141147632Y-130225387D01*
X140898804Y-130824631D01*
X140898238Y-131473483D01*
X130625660Y-131473483D01*
X130625660Y-128314480D01*
X145748520Y-128314480D01*
X145748520Y-131150480D01*
X145884091Y-131832039D01*
X146270163Y-132409837D01*
X146847961Y-132795909D01*
X147529520Y-132931480D01*
X148211079Y-132795909D01*
X148788877Y-132409837D01*
X149174949Y-131832039D01*
X149246270Y-131473483D01*
X150898238Y-131473483D01*
X151146019Y-132073160D01*
X151604427Y-132532368D01*
X152203671Y-132781196D01*
X152852523Y-132781762D01*
X153452200Y-132533981D01*
X153686397Y-132300192D01*
X161412334Y-132300192D01*
X161543192Y-132547175D01*
X162152763Y-132818309D01*
X162819693Y-132835532D01*
X163442446Y-132596221D01*
X163515848Y-132547175D01*
X163646706Y-132300192D01*
X166412334Y-132300192D01*
X166543192Y-132547175D01*
X167152763Y-132818309D01*
X167819693Y-132835532D01*
X168442446Y-132596221D01*
X168515848Y-132547175D01*
X168646706Y-132300192D01*
X167529520Y-131183007D01*
X166412334Y-132300192D01*
X163646706Y-132300192D01*
X162529520Y-131183007D01*
X161412334Y-132300192D01*
X153686397Y-132300192D01*
X153911408Y-132075573D01*
X154160236Y-131476329D01*
X154160267Y-131440653D01*
X160844468Y-131440653D01*
X161083779Y-132063406D01*
X161132825Y-132136808D01*
X161379808Y-132267666D01*
X162496993Y-131150480D01*
X162562047Y-131150480D01*
X163679232Y-132267666D01*
X163926215Y-132136808D01*
X164197349Y-131527237D01*
X164199584Y-131440653D01*
X165844468Y-131440653D01*
X166083779Y-132063406D01*
X166132825Y-132136808D01*
X166379808Y-132267666D01*
X167496993Y-131150480D01*
X167562047Y-131150480D01*
X168679232Y-132267666D01*
X168926215Y-132136808D01*
X169197349Y-131527237D01*
X169214572Y-130860307D01*
X168975261Y-130237554D01*
X168926215Y-130164152D01*
X168679232Y-130033294D01*
X167562047Y-131150480D01*
X167496993Y-131150480D01*
X166379808Y-130033294D01*
X166132825Y-130164152D01*
X165861691Y-130773723D01*
X165844468Y-131440653D01*
X164199584Y-131440653D01*
X164214572Y-130860307D01*
X163975261Y-130237554D01*
X163926215Y-130164152D01*
X163679232Y-130033294D01*
X162562047Y-131150480D01*
X162496993Y-131150480D01*
X161379808Y-130033294D01*
X161132825Y-130164152D01*
X160861691Y-130773723D01*
X160844468Y-131440653D01*
X154160267Y-131440653D01*
X154160802Y-130827477D01*
X153913021Y-130227800D01*
X153686385Y-130000768D01*
X161412334Y-130000768D01*
X162529520Y-131117953D01*
X163646706Y-130000768D01*
X166412334Y-130000768D01*
X167529520Y-131117953D01*
X168646706Y-130000768D01*
X168515848Y-129753785D01*
X167906277Y-129482651D01*
X167239347Y-129465428D01*
X166616594Y-129704739D01*
X166543192Y-129753785D01*
X166412334Y-130000768D01*
X163646706Y-130000768D01*
X163515848Y-129753785D01*
X162906277Y-129482651D01*
X162239347Y-129465428D01*
X161616594Y-129704739D01*
X161543192Y-129753785D01*
X161412334Y-130000768D01*
X153686385Y-130000768D01*
X153454613Y-129768592D01*
X152855369Y-129519764D01*
X152206517Y-129519198D01*
X151606840Y-129766979D01*
X151147632Y-130225387D01*
X150898804Y-130824631D01*
X150898238Y-131473483D01*
X149246270Y-131473483D01*
X149310520Y-131150480D01*
X149310520Y-129052194D01*
X151105714Y-127257000D01*
X169442286Y-127257000D01*
X173011123Y-130825837D01*
X173588921Y-131211909D01*
X174270480Y-131347480D01*
X183830656Y-131347480D01*
X183830656Y-131466480D01*
X183857223Y-131607670D01*
X183940666Y-131737345D01*
X184067986Y-131824339D01*
X184219120Y-131854944D01*
X188019120Y-131854944D01*
X188160310Y-131828377D01*
X188289985Y-131744934D01*
X188376979Y-131617614D01*
X188407584Y-131466480D01*
X188407584Y-127666480D01*
X188381017Y-127525290D01*
X188297574Y-127395615D01*
X188170254Y-127308621D01*
X188019120Y-127278016D01*
X187900120Y-127278016D01*
X187900120Y-118555120D01*
X187764549Y-117873561D01*
X187378477Y-117295763D01*
X185619961Y-115537247D01*
X185541429Y-115142441D01*
X185155357Y-114564643D01*
X184577559Y-114178571D01*
X183896000Y-114043000D01*
X183476699Y-114126404D01*
X183321700Y-114022837D01*
X182962360Y-113951360D01*
X180816725Y-113951360D01*
X180797020Y-113931621D01*
X180381271Y-113758987D01*
X179931104Y-113758594D01*
X179515054Y-113930502D01*
X179196461Y-114248540D01*
X179023827Y-114664289D01*
X179023434Y-115114456D01*
X179195342Y-115530506D01*
X179513380Y-115849099D01*
X179929129Y-116021733D01*
X180379296Y-116022126D01*
X180795346Y-115850218D01*
X180816240Y-115829360D01*
X182115000Y-115829360D01*
X182115000Y-116332000D01*
X182250571Y-117013559D01*
X182636643Y-117591357D01*
X184338120Y-119292834D01*
X184338120Y-123774498D01*
X183932198Y-123367866D01*
X183241149Y-123080918D01*
X182492893Y-123080265D01*
X181801345Y-123366007D01*
X181271786Y-123894642D01*
X180984838Y-124585691D01*
X180984185Y-125333947D01*
X181269927Y-126025495D01*
X181798562Y-126555054D01*
X182489611Y-126842002D01*
X183237867Y-126842655D01*
X183929415Y-126556913D01*
X184338120Y-126148921D01*
X184338120Y-127278016D01*
X184219120Y-127278016D01*
X184077930Y-127304583D01*
X183948255Y-127388026D01*
X183861261Y-127515346D01*
X183830656Y-127666480D01*
X183830656Y-127785480D01*
X175008194Y-127785480D01*
X171439357Y-124216643D01*
X170861559Y-123830571D01*
X170180000Y-123695000D01*
X150368000Y-123695000D01*
X149686441Y-123830571D01*
X149108643Y-124216643D01*
X146270163Y-127055123D01*
X145884091Y-127632921D01*
X145748520Y-128314480D01*
X130625660Y-128314480D01*
X130625660Y-122114696D01*
X179023434Y-122114696D01*
X179195342Y-122530746D01*
X179513380Y-122849339D01*
X179929129Y-123021973D01*
X180379296Y-123022366D01*
X180795346Y-122850458D01*
X181113939Y-122532420D01*
X181286573Y-122116671D01*
X181286966Y-121666504D01*
X181115058Y-121250454D01*
X180797020Y-120931861D01*
X180381271Y-120759227D01*
X179931104Y-120758834D01*
X179515054Y-120930742D01*
X179196461Y-121248780D01*
X179023827Y-121664529D01*
X179023434Y-122114696D01*
X130625660Y-122114696D01*
X130625660Y-120716660D01*
X130490089Y-120035101D01*
X130104017Y-119457303D01*
X128259357Y-117612643D01*
X127681559Y-117226571D01*
X127000000Y-117091000D01*
X126318441Y-117226571D01*
X125740643Y-117612643D01*
X125354571Y-118190441D01*
X125219000Y-118872000D01*
X118655520Y-118872000D01*
X118655520Y-117764907D01*
X122409605Y-117764907D01*
X122528069Y-118051613D01*
X122747233Y-118271160D01*
X123033732Y-118390125D01*
X123343947Y-118390395D01*
X123630653Y-118271931D01*
X123850200Y-118052767D01*
X123969165Y-117766268D01*
X123969435Y-117456053D01*
X123850971Y-117169347D01*
X123631807Y-116949800D01*
X123345308Y-116830835D01*
X123035093Y-116830565D01*
X122748387Y-116949029D01*
X122528840Y-117168193D01*
X122409875Y-117454692D01*
X122409605Y-117764907D01*
X118655520Y-117764907D01*
X118655520Y-111915561D01*
X127413855Y-111915561D01*
X127540861Y-112222937D01*
X127775826Y-112458313D01*
X128082980Y-112585854D01*
X128367683Y-112586103D01*
X135741270Y-119959690D01*
X135906076Y-120069811D01*
X135938330Y-120076226D01*
X136100480Y-120108480D01*
X164025383Y-120108480D01*
X164225346Y-120308793D01*
X164532500Y-120436334D01*
X164865081Y-120436625D01*
X165172457Y-120309619D01*
X165407833Y-120074654D01*
X165535374Y-119767500D01*
X165535665Y-119434919D01*
X165408659Y-119127543D01*
X165173694Y-118892167D01*
X164866540Y-118764626D01*
X164533959Y-118764335D01*
X164226583Y-118891341D01*
X164025092Y-119092480D01*
X136310900Y-119092480D01*
X134832236Y-117613816D01*
X179023434Y-117613816D01*
X179195342Y-118029866D01*
X179513380Y-118348459D01*
X179614312Y-118390370D01*
X179515054Y-118431382D01*
X179196461Y-118749420D01*
X179023827Y-119165169D01*
X179023434Y-119615336D01*
X179195342Y-120031386D01*
X179513380Y-120349979D01*
X179929129Y-120522613D01*
X180379296Y-120523006D01*
X180795346Y-120351098D01*
X181113939Y-120033060D01*
X181286573Y-119617311D01*
X181286966Y-119167144D01*
X181115058Y-118751094D01*
X180797020Y-118432501D01*
X180696088Y-118390590D01*
X180795346Y-118349578D01*
X181113939Y-118031540D01*
X181286573Y-117615791D01*
X181286966Y-117165624D01*
X181115058Y-116749574D01*
X180797020Y-116430981D01*
X180381271Y-116258347D01*
X179931104Y-116257954D01*
X179515054Y-116429862D01*
X179196461Y-116747900D01*
X179023827Y-117163649D01*
X179023434Y-117613816D01*
X134832236Y-117613816D01*
X132133981Y-114915561D01*
X162413855Y-114915561D01*
X162540861Y-115222937D01*
X162775826Y-115458313D01*
X163082980Y-115585854D01*
X163415561Y-115586145D01*
X163722937Y-115459139D01*
X163924428Y-115258000D01*
X166750000Y-115258000D01*
X166944403Y-115219331D01*
X167109210Y-115109210D01*
X184242000Y-97976420D01*
X184242000Y-98539580D01*
X170117477Y-112664103D01*
X169834439Y-112663855D01*
X169527063Y-112790861D01*
X169291687Y-113025826D01*
X169164146Y-113332980D01*
X169163855Y-113665561D01*
X169290861Y-113972937D01*
X169525826Y-114208313D01*
X169832980Y-114335854D01*
X170165561Y-114336145D01*
X170472937Y-114209139D01*
X170708313Y-113974174D01*
X170835854Y-113667020D01*
X170836103Y-113382317D01*
X172026433Y-112191987D01*
X180984185Y-112191987D01*
X181269927Y-112883535D01*
X181798562Y-113413094D01*
X182489611Y-113700042D01*
X183237867Y-113700695D01*
X183929415Y-113414953D01*
X184458974Y-112886318D01*
X184745922Y-112195269D01*
X184746575Y-111447013D01*
X184460833Y-110755465D01*
X183932198Y-110225906D01*
X183241149Y-109938958D01*
X182492893Y-109938305D01*
X181801345Y-110224047D01*
X181271786Y-110752682D01*
X180984838Y-111443731D01*
X180984185Y-112191987D01*
X172026433Y-112191987D01*
X177640020Y-106578400D01*
X188821631Y-106578400D01*
X188916371Y-107054688D01*
X189186166Y-107458465D01*
X189589943Y-107728260D01*
X190066231Y-107823000D01*
X190425769Y-107823000D01*
X190902057Y-107728260D01*
X191305834Y-107458465D01*
X191575629Y-107054688D01*
X191670369Y-106578400D01*
X191575629Y-106102112D01*
X191305834Y-105698335D01*
X190902057Y-105428540D01*
X190425769Y-105333800D01*
X190066231Y-105333800D01*
X189589943Y-105428540D01*
X189186166Y-105698335D01*
X188916371Y-106102112D01*
X188821631Y-106578400D01*
X177640020Y-106578400D01*
X180180020Y-104038400D01*
X188821631Y-104038400D01*
X188916371Y-104514688D01*
X189186166Y-104918465D01*
X189589943Y-105188260D01*
X190066231Y-105283000D01*
X190425769Y-105283000D01*
X190902057Y-105188260D01*
X191305834Y-104918465D01*
X191575629Y-104514688D01*
X191670369Y-104038400D01*
X191575629Y-103562112D01*
X191305834Y-103158335D01*
X190902057Y-102888540D01*
X190425769Y-102793800D01*
X190066231Y-102793800D01*
X189589943Y-102888540D01*
X189186166Y-103158335D01*
X188916371Y-103562112D01*
X188821631Y-104038400D01*
X180180020Y-104038400D01*
X182720020Y-101498400D01*
X188821631Y-101498400D01*
X188916371Y-101974688D01*
X189186166Y-102378465D01*
X189589943Y-102648260D01*
X190066231Y-102743000D01*
X190425769Y-102743000D01*
X190902057Y-102648260D01*
X191305834Y-102378465D01*
X191575629Y-101974688D01*
X191670369Y-101498400D01*
X191575629Y-101022112D01*
X191305834Y-100618335D01*
X190902057Y-100348540D01*
X190425769Y-100253800D01*
X190066231Y-100253800D01*
X189589943Y-100348540D01*
X189186166Y-100618335D01*
X188916371Y-101022112D01*
X188821631Y-101498400D01*
X182720020Y-101498400D01*
X185109210Y-99109210D01*
X185209978Y-98958400D01*
X188821631Y-98958400D01*
X188916371Y-99434688D01*
X189186166Y-99838465D01*
X189589943Y-100108260D01*
X190066231Y-100203000D01*
X190425769Y-100203000D01*
X190902057Y-100108260D01*
X191305834Y-99838465D01*
X191575629Y-99434688D01*
X191670369Y-98958400D01*
X191575629Y-98482112D01*
X191305834Y-98078335D01*
X190902057Y-97808540D01*
X190425769Y-97713800D01*
X190066231Y-97713800D01*
X189589943Y-97808540D01*
X189186166Y-98078335D01*
X188916371Y-98482112D01*
X188821631Y-98958400D01*
X185209978Y-98958400D01*
X185219331Y-98944403D01*
X185258000Y-98750000D01*
X185258000Y-96418400D01*
X188821631Y-96418400D01*
X188916371Y-96894688D01*
X189186166Y-97298465D01*
X189589943Y-97568260D01*
X190066231Y-97663000D01*
X190425769Y-97663000D01*
X190902057Y-97568260D01*
X191305834Y-97298465D01*
X191575629Y-96894688D01*
X191670369Y-96418400D01*
X191575629Y-95942112D01*
X191305834Y-95538335D01*
X190902057Y-95268540D01*
X190425769Y-95173800D01*
X190066231Y-95173800D01*
X189589943Y-95268540D01*
X189186166Y-95538335D01*
X188916371Y-95942112D01*
X188821631Y-96418400D01*
X185258000Y-96418400D01*
X185258000Y-94008150D01*
X188803000Y-94008150D01*
X188803000Y-94826936D01*
X188868007Y-94983876D01*
X188988124Y-95103993D01*
X189145065Y-95169000D01*
X190116250Y-95169000D01*
X190223000Y-95062250D01*
X190223000Y-93901400D01*
X190269000Y-93901400D01*
X190269000Y-95062250D01*
X190375750Y-95169000D01*
X191346935Y-95169000D01*
X191503876Y-95103993D01*
X191623993Y-94983876D01*
X191689000Y-94826936D01*
X191689000Y-94008150D01*
X191582250Y-93901400D01*
X190269000Y-93901400D01*
X190223000Y-93901400D01*
X188909750Y-93901400D01*
X188803000Y-94008150D01*
X185258000Y-94008150D01*
X185258000Y-92929864D01*
X188803000Y-92929864D01*
X188803000Y-93748650D01*
X188909750Y-93855400D01*
X190223000Y-93855400D01*
X190223000Y-92694550D01*
X190269000Y-92694550D01*
X190269000Y-93855400D01*
X191582250Y-93855400D01*
X191689000Y-93748650D01*
X191689000Y-92929864D01*
X191623993Y-92772924D01*
X191503876Y-92652807D01*
X191346935Y-92587800D01*
X190375750Y-92587800D01*
X190269000Y-92694550D01*
X190223000Y-92694550D01*
X190116250Y-92587800D01*
X189145065Y-92587800D01*
X188988124Y-92652807D01*
X188868007Y-92772924D01*
X188803000Y-92929864D01*
X185258000Y-92929864D01*
X185258000Y-92174137D01*
X185458313Y-91974174D01*
X185585854Y-91667020D01*
X185586145Y-91334439D01*
X185459139Y-91027063D01*
X185224174Y-90791687D01*
X184917020Y-90664146D01*
X184584439Y-90663855D01*
X184277063Y-90790861D01*
X184233011Y-90834836D01*
X184209139Y-90777063D01*
X183974174Y-90541687D01*
X183667020Y-90414146D01*
X183334439Y-90413855D01*
X183027063Y-90540861D01*
X182791687Y-90775826D01*
X182664146Y-91082980D01*
X182663855Y-91415561D01*
X182790861Y-91722937D01*
X183025826Y-91958313D01*
X183332980Y-92085854D01*
X183492000Y-92085993D01*
X183492000Y-97289580D01*
X166539580Y-114242000D01*
X163924137Y-114242000D01*
X163724174Y-114041687D01*
X163417020Y-113914146D01*
X163084439Y-113913855D01*
X162777063Y-114040861D01*
X162541687Y-114275826D01*
X162414146Y-114582980D01*
X162413855Y-114915561D01*
X132133981Y-114915561D01*
X129085897Y-111867477D01*
X129086145Y-111584439D01*
X128959139Y-111277063D01*
X128724174Y-111041687D01*
X128417020Y-110914146D01*
X128084439Y-110913855D01*
X127777063Y-111040861D01*
X127541687Y-111275826D01*
X127414146Y-111582980D01*
X127413855Y-111915561D01*
X118655520Y-111915561D01*
X118655520Y-105404907D01*
X122469605Y-105404907D01*
X122588069Y-105691613D01*
X122807233Y-105911160D01*
X123093732Y-106030125D01*
X123403947Y-106030395D01*
X123690653Y-105911931D01*
X123910200Y-105692767D01*
X124029165Y-105406268D01*
X124029435Y-105096053D01*
X123910971Y-104809347D01*
X123691807Y-104589800D01*
X123405308Y-104470835D01*
X123095093Y-104470565D01*
X122808387Y-104589029D01*
X122588840Y-104808193D01*
X122469875Y-105094692D01*
X122469605Y-105404907D01*
X118655520Y-105404907D01*
X118655520Y-101304907D01*
X122469605Y-101304907D01*
X122588069Y-101591613D01*
X122807233Y-101811160D01*
X123093732Y-101930125D01*
X123403947Y-101930395D01*
X123690653Y-101811931D01*
X123910200Y-101592767D01*
X124029165Y-101306268D01*
X124029435Y-100996053D01*
X123910971Y-100709347D01*
X123691807Y-100489800D01*
X123405308Y-100370835D01*
X123095093Y-100370565D01*
X122808387Y-100489029D01*
X122588840Y-100708193D01*
X122469875Y-100994692D01*
X122469605Y-101304907D01*
X118655520Y-101304907D01*
X118655520Y-87415561D01*
X121413855Y-87415561D01*
X121540861Y-87722937D01*
X121775826Y-87958313D01*
X122082980Y-88085854D01*
X122415561Y-88086145D01*
X122722937Y-87959139D01*
X122924428Y-87758000D01*
X123289580Y-87758000D01*
X124992000Y-89460420D01*
X124992000Y-100825863D01*
X124791687Y-101025826D01*
X124664146Y-101332980D01*
X124663855Y-101665561D01*
X124790861Y-101972937D01*
X125025826Y-102208313D01*
X125332980Y-102335854D01*
X125665561Y-102336145D01*
X125972937Y-102209139D01*
X126208313Y-101974174D01*
X126298076Y-101758000D01*
X133075863Y-101758000D01*
X133242000Y-101924428D01*
X133242000Y-106289580D01*
X132367477Y-107164103D01*
X132084439Y-107163855D01*
X131777063Y-107290861D01*
X131541687Y-107525826D01*
X131414146Y-107832980D01*
X131413855Y-108165561D01*
X131540861Y-108472937D01*
X131775826Y-108708313D01*
X132082980Y-108835854D01*
X132415561Y-108836145D01*
X132722937Y-108709139D01*
X132958313Y-108474174D01*
X133085854Y-108167020D01*
X133086103Y-107882317D01*
X134109210Y-106859210D01*
X134219331Y-106694404D01*
X134242405Y-106578400D01*
X134258000Y-106500000D01*
X134258000Y-101924137D01*
X134458313Y-101724174D01*
X134585854Y-101417020D01*
X134586145Y-101084439D01*
X134459139Y-100777063D01*
X134224174Y-100541687D01*
X133917020Y-100414146D01*
X133584439Y-100413855D01*
X133277063Y-100540861D01*
X133075572Y-100742000D01*
X126008000Y-100742000D01*
X126008000Y-96165561D01*
X147163855Y-96165561D01*
X147290861Y-96472937D01*
X147525826Y-96708313D01*
X147832980Y-96835854D01*
X148165561Y-96836145D01*
X148472937Y-96709139D01*
X148708313Y-96474174D01*
X148835854Y-96167020D01*
X148836103Y-95882317D01*
X149139399Y-95579022D01*
X149240381Y-95823417D01*
X149475346Y-96058793D01*
X149782500Y-96186334D01*
X150115081Y-96186625D01*
X150422457Y-96059619D01*
X150657833Y-95824654D01*
X150785374Y-95517500D01*
X150785375Y-95516041D01*
X151613375Y-95516041D01*
X151740381Y-95823417D01*
X151975346Y-96058793D01*
X152282500Y-96186334D01*
X152615081Y-96186625D01*
X152922457Y-96059619D01*
X153157833Y-95824654D01*
X153285374Y-95517500D01*
X153285665Y-95184919D01*
X153158659Y-94877543D01*
X152957520Y-94676052D01*
X152957520Y-93686487D01*
X153115081Y-93686625D01*
X153422457Y-93559619D01*
X153657833Y-93324654D01*
X153691520Y-93243526D01*
X153691520Y-94350480D01*
X153730189Y-94544883D01*
X153840310Y-94709690D01*
X154113623Y-94983003D01*
X154113375Y-95266041D01*
X154240381Y-95573417D01*
X154475346Y-95808793D01*
X154782500Y-95936334D01*
X155115081Y-95936625D01*
X155422457Y-95809619D01*
X155657833Y-95574654D01*
X155785374Y-95267500D01*
X155785665Y-94934919D01*
X155658659Y-94627543D01*
X155423694Y-94392167D01*
X155116540Y-94264626D01*
X154831837Y-94264377D01*
X154707520Y-94140060D01*
X154707520Y-93024617D01*
X154907833Y-92824654D01*
X155035374Y-92517500D01*
X155035623Y-92232797D01*
X159260421Y-88008000D01*
X159575863Y-88008000D01*
X159775826Y-88208313D01*
X160082980Y-88335854D01*
X160415561Y-88336145D01*
X160722937Y-88209139D01*
X160958313Y-87974174D01*
X161085854Y-87667020D01*
X161086145Y-87334439D01*
X160959139Y-87027063D01*
X160758000Y-86825572D01*
X160758000Y-81174137D01*
X160958313Y-80974174D01*
X161085854Y-80667020D01*
X161086145Y-80334439D01*
X160959139Y-80027063D01*
X160724174Y-79791687D01*
X160417020Y-79664146D01*
X160084439Y-79663855D01*
X159777063Y-79790861D01*
X159575572Y-79992000D01*
X158250000Y-79992000D01*
X158055597Y-80030669D01*
X157890790Y-80140790D01*
X157867477Y-80164103D01*
X157584439Y-80163855D01*
X157277063Y-80290861D01*
X157041687Y-80525826D01*
X156914146Y-80832980D01*
X156913855Y-81165561D01*
X157040861Y-81472937D01*
X157275826Y-81708313D01*
X157582980Y-81835854D01*
X157915561Y-81836145D01*
X158222937Y-81709139D01*
X158458313Y-81474174D01*
X158585854Y-81167020D01*
X158585993Y-81008000D01*
X159575863Y-81008000D01*
X159742000Y-81174428D01*
X159742000Y-86825863D01*
X159575572Y-86992000D01*
X159050000Y-86992000D01*
X158855597Y-87030669D01*
X158690790Y-87140789D01*
X154316997Y-91514583D01*
X154033959Y-91514335D01*
X153726583Y-91641341D01*
X153491207Y-91876306D01*
X153387119Y-92126980D01*
X153116540Y-92014626D01*
X152783959Y-92014335D01*
X152476583Y-92141341D01*
X152241207Y-92376306D01*
X152113666Y-92683460D01*
X152113417Y-92968163D01*
X152090310Y-92991270D01*
X151980189Y-93156077D01*
X151941520Y-93350480D01*
X151941520Y-94676343D01*
X151741207Y-94876306D01*
X151613666Y-95183460D01*
X151613375Y-95516041D01*
X150785375Y-95516041D01*
X150785623Y-95232797D01*
X151558730Y-94459690D01*
X151668851Y-94294883D01*
X151707520Y-94100480D01*
X151707520Y-90524617D01*
X151907833Y-90324654D01*
X152035374Y-90017500D01*
X152035665Y-89684919D01*
X151908659Y-89377543D01*
X151673694Y-89142167D01*
X151366540Y-89014626D01*
X151033959Y-89014335D01*
X150726583Y-89141341D01*
X150491207Y-89376306D01*
X150363666Y-89683460D01*
X150363375Y-90016041D01*
X150490381Y-90323417D01*
X150691520Y-90524908D01*
X150691520Y-93890060D01*
X150066997Y-94514583D01*
X149783959Y-94514335D01*
X149508000Y-94628360D01*
X149508000Y-90174137D01*
X149708313Y-89974174D01*
X149835854Y-89667020D01*
X149836145Y-89334439D01*
X149709139Y-89027063D01*
X149474174Y-88791687D01*
X149167020Y-88664146D01*
X148834439Y-88663855D01*
X148527063Y-88790861D01*
X148291687Y-89025826D01*
X148164146Y-89332980D01*
X148163855Y-89665561D01*
X148290861Y-89972937D01*
X148492000Y-90174428D01*
X148492000Y-94789579D01*
X148117477Y-95164103D01*
X147834439Y-95163855D01*
X147527063Y-95290861D01*
X147291687Y-95525826D01*
X147164146Y-95832980D01*
X147163855Y-96165561D01*
X126008000Y-96165561D01*
X126008000Y-89250000D01*
X125986551Y-89142167D01*
X125969331Y-89055596D01*
X125859210Y-88890790D01*
X123859210Y-86890790D01*
X123694403Y-86780669D01*
X123500000Y-86742000D01*
X122924137Y-86742000D01*
X122724174Y-86541687D01*
X122417020Y-86414146D01*
X122084439Y-86413855D01*
X121777063Y-86540861D01*
X121541687Y-86775826D01*
X121414146Y-87082980D01*
X121413855Y-87415561D01*
X118655520Y-87415561D01*
X118655520Y-61151507D01*
X127147945Y-61151507D01*
X127433687Y-61843055D01*
X127962322Y-62372614D01*
X128394140Y-62551920D01*
X128394140Y-72148253D01*
X127965105Y-72325527D01*
X127435546Y-72854162D01*
X127148598Y-73545211D01*
X127147945Y-74293467D01*
X127433687Y-74985015D01*
X127962322Y-75514574D01*
X128653371Y-75801522D01*
X129401627Y-75802175D01*
X130093175Y-75516433D01*
X130622734Y-74987798D01*
X130909682Y-74296749D01*
X130910335Y-73548493D01*
X130624593Y-72856945D01*
X130095958Y-72327386D01*
X129664140Y-72148080D01*
X129664140Y-71639709D01*
X130982258Y-71639709D01*
X131052338Y-71834799D01*
X131481452Y-72022742D01*
X131949824Y-72032164D01*
X132386149Y-71861629D01*
X132426302Y-71834799D01*
X132496382Y-71639709D01*
X131739320Y-70882647D01*
X130982258Y-71639709D01*
X129664140Y-71639709D01*
X129664140Y-71060624D01*
X130557276Y-71060624D01*
X130727811Y-71496949D01*
X130754641Y-71537102D01*
X130949731Y-71607182D01*
X131706793Y-70850120D01*
X131771847Y-70850120D01*
X132528909Y-71607182D01*
X132723999Y-71537102D01*
X132911942Y-71107988D01*
X132921364Y-70639616D01*
X132750829Y-70203291D01*
X132723999Y-70163138D01*
X132528909Y-70093058D01*
X131771847Y-70850120D01*
X131706793Y-70850120D01*
X130949731Y-70093058D01*
X130754641Y-70163138D01*
X130566698Y-70592252D01*
X130557276Y-71060624D01*
X129664140Y-71060624D01*
X129664140Y-70060531D01*
X130982258Y-70060531D01*
X131739320Y-70817593D01*
X132496382Y-70060531D01*
X132426302Y-69865441D01*
X131997188Y-69677498D01*
X131528816Y-69668076D01*
X131092491Y-69838611D01*
X131052338Y-69865441D01*
X130982258Y-70060531D01*
X129664140Y-70060531D01*
X129664140Y-66573336D01*
X130607554Y-66573336D01*
X130779462Y-66989386D01*
X131097500Y-67307979D01*
X131198432Y-67349890D01*
X131099174Y-67390902D01*
X130780581Y-67708940D01*
X130607947Y-68124689D01*
X130607554Y-68574856D01*
X130779462Y-68990906D01*
X131097500Y-69309499D01*
X131513249Y-69482133D01*
X131963416Y-69482526D01*
X132379466Y-69310618D01*
X132698059Y-68992580D01*
X132870693Y-68576831D01*
X132871086Y-68126664D01*
X132699178Y-67710614D01*
X132381140Y-67392021D01*
X132280208Y-67350110D01*
X132379466Y-67309098D01*
X132698059Y-66991060D01*
X132870693Y-66575311D01*
X132871086Y-66125144D01*
X132699178Y-65709094D01*
X132381140Y-65390501D01*
X131965391Y-65217867D01*
X131515224Y-65217474D01*
X131099174Y-65389382D01*
X130780581Y-65707420D01*
X130607947Y-66123169D01*
X130607554Y-66573336D01*
X129664140Y-66573336D01*
X129664140Y-64073976D01*
X130607554Y-64073976D01*
X130779462Y-64490026D01*
X131097500Y-64808619D01*
X131513249Y-64981253D01*
X131963416Y-64981646D01*
X132379466Y-64809738D01*
X132698059Y-64491700D01*
X132870693Y-64075951D01*
X132871086Y-63625784D01*
X132699178Y-63209734D01*
X132381140Y-62891141D01*
X131965391Y-62718507D01*
X131515224Y-62718114D01*
X131099174Y-62890022D01*
X130780581Y-63208060D01*
X130607947Y-63623809D01*
X130607554Y-64073976D01*
X129664140Y-64073976D01*
X129664140Y-62551747D01*
X130093175Y-62374473D01*
X130622734Y-61845838D01*
X130909682Y-61154789D01*
X130910335Y-60406533D01*
X130624593Y-59714985D01*
X130095958Y-59185426D01*
X129404909Y-58898478D01*
X128656653Y-58897825D01*
X127965105Y-59183567D01*
X127435546Y-59712202D01*
X127148598Y-60403251D01*
X127147945Y-61151507D01*
X118655520Y-61151507D01*
X118655520Y-57677392D01*
X135779271Y-57677392D01*
X135988995Y-58184963D01*
X136376994Y-58573640D01*
X136884199Y-58784249D01*
X137433392Y-58784729D01*
X137940963Y-58575005D01*
X138329640Y-58187006D01*
X138540249Y-57679801D01*
X138540729Y-57130608D01*
X138331005Y-56623037D01*
X137943006Y-56234360D01*
X137435801Y-56023751D01*
X136886608Y-56023271D01*
X136379037Y-56232995D01*
X135990360Y-56620994D01*
X135779751Y-57128199D01*
X135779271Y-57677392D01*
X118655520Y-57677392D01*
X118655520Y-47250000D01*
X119242000Y-47250000D01*
X119242000Y-55500000D01*
X119280669Y-55694403D01*
X119390790Y-55859210D01*
X120140790Y-56609210D01*
X120305596Y-56719331D01*
X120500000Y-56758000D01*
X125325863Y-56758000D01*
X125525826Y-56958313D01*
X125832980Y-57085854D01*
X126165561Y-57086145D01*
X126472937Y-56959139D01*
X126708313Y-56724174D01*
X126835854Y-56417020D01*
X126836145Y-56084439D01*
X126709139Y-55777063D01*
X126474174Y-55541687D01*
X126167020Y-55414146D01*
X125834439Y-55413855D01*
X125527063Y-55540861D01*
X125325572Y-55742000D01*
X120710420Y-55742000D01*
X120258000Y-55289580D01*
X120258000Y-54191261D01*
X120308037Y-54442815D01*
X120553207Y-54809738D01*
X120920130Y-55054908D01*
X121352945Y-55141000D01*
X121907055Y-55141000D01*
X122339870Y-55054908D01*
X122706793Y-54809738D01*
X122951963Y-54442815D01*
X123038055Y-54010000D01*
X123261945Y-54010000D01*
X123348037Y-54442815D01*
X123593207Y-54809738D01*
X123960130Y-55054908D01*
X124392945Y-55141000D01*
X124947055Y-55141000D01*
X125379870Y-55054908D01*
X125746793Y-54809738D01*
X125991963Y-54442815D01*
X126078055Y-54010000D01*
X125991963Y-53577185D01*
X125746793Y-53210262D01*
X125379870Y-52965092D01*
X124947055Y-52879000D01*
X124392945Y-52879000D01*
X123960130Y-52965092D01*
X123593207Y-53210262D01*
X123348037Y-53577185D01*
X123261945Y-54010000D01*
X123038055Y-54010000D01*
X122951963Y-53577185D01*
X122706793Y-53210262D01*
X122339870Y-52965092D01*
X121907055Y-52879000D01*
X121352945Y-52879000D01*
X120920130Y-52965092D01*
X120553207Y-53210262D01*
X120308037Y-53577185D01*
X120258000Y-53828739D01*
X120258000Y-51651261D01*
X120308037Y-51902815D01*
X120553207Y-52269738D01*
X120920130Y-52514908D01*
X121352945Y-52601000D01*
X121907055Y-52601000D01*
X122339870Y-52514908D01*
X122706793Y-52269738D01*
X122951963Y-51902815D01*
X122996919Y-51676805D01*
X123261311Y-51676805D01*
X123323792Y-51899169D01*
X123571472Y-52286001D01*
X123948332Y-52548604D01*
X124397000Y-52647000D01*
X124647000Y-52647000D01*
X124647000Y-51493000D01*
X124693000Y-51493000D01*
X124693000Y-52647000D01*
X124943000Y-52647000D01*
X125391668Y-52548604D01*
X125768528Y-52286001D01*
X125963454Y-51981561D01*
X130227855Y-51981561D01*
X130354861Y-52288937D01*
X130556000Y-52490428D01*
X130556000Y-54356000D01*
X130594669Y-54550403D01*
X130704790Y-54715210D01*
X131720790Y-55731210D01*
X131885597Y-55841331D01*
X132080000Y-55880000D01*
X132929863Y-55880000D01*
X133129826Y-56080313D01*
X133436980Y-56207854D01*
X133769561Y-56208145D01*
X134076937Y-56081139D01*
X134312313Y-55846174D01*
X134439854Y-55539020D01*
X134440145Y-55206439D01*
X134313139Y-54899063D01*
X134078174Y-54663687D01*
X133771020Y-54536146D01*
X133438439Y-54535855D01*
X133131063Y-54662861D01*
X132929572Y-54864000D01*
X132290420Y-54864000D01*
X131572000Y-54145580D01*
X131572000Y-52490137D01*
X131772313Y-52290174D01*
X131899854Y-51983020D01*
X131900145Y-51650439D01*
X131773139Y-51343063D01*
X131538174Y-51107687D01*
X131231020Y-50980146D01*
X130898439Y-50979855D01*
X130591063Y-51106861D01*
X130355687Y-51341826D01*
X130228146Y-51648980D01*
X130227855Y-51981561D01*
X125963454Y-51981561D01*
X126016208Y-51899169D01*
X126078689Y-51676805D01*
X125990003Y-51493000D01*
X124693000Y-51493000D01*
X124647000Y-51493000D01*
X123349997Y-51493000D01*
X123261311Y-51676805D01*
X122996919Y-51676805D01*
X123038055Y-51470000D01*
X122996920Y-51263195D01*
X123261311Y-51263195D01*
X123349997Y-51447000D01*
X124647000Y-51447000D01*
X124647000Y-50293000D01*
X124693000Y-50293000D01*
X124693000Y-51447000D01*
X125990003Y-51447000D01*
X126078689Y-51263195D01*
X126016208Y-51040831D01*
X125768528Y-50653999D01*
X125391668Y-50391396D01*
X124943000Y-50293000D01*
X124693000Y-50293000D01*
X124647000Y-50293000D01*
X124397000Y-50293000D01*
X123948332Y-50391396D01*
X123571472Y-50653999D01*
X123323792Y-51040831D01*
X123261311Y-51263195D01*
X122996920Y-51263195D01*
X122951963Y-51037185D01*
X122706793Y-50670262D01*
X122339870Y-50425092D01*
X121907055Y-50339000D01*
X121352945Y-50339000D01*
X120920130Y-50425092D01*
X120553207Y-50670262D01*
X120308037Y-51037185D01*
X120258000Y-51288739D01*
X120258000Y-49111261D01*
X120308037Y-49362815D01*
X120553207Y-49729738D01*
X120920130Y-49974908D01*
X121352945Y-50061000D01*
X121907055Y-50061000D01*
X122339870Y-49974908D01*
X122706793Y-49729738D01*
X122951963Y-49362815D01*
X123038055Y-48930000D01*
X123261945Y-48930000D01*
X123348037Y-49362815D01*
X123593207Y-49729738D01*
X123960130Y-49974908D01*
X124392945Y-50061000D01*
X124947055Y-50061000D01*
X125379870Y-49974908D01*
X125746793Y-49729738D01*
X125991963Y-49362815D01*
X126078055Y-48930000D01*
X125991963Y-48497185D01*
X125746793Y-48130262D01*
X125379870Y-47885092D01*
X124947055Y-47799000D01*
X124392945Y-47799000D01*
X123960130Y-47885092D01*
X123593207Y-48130262D01*
X123348037Y-48497185D01*
X123261945Y-48930000D01*
X123038055Y-48930000D01*
X122951963Y-48497185D01*
X122706793Y-48130262D01*
X122339870Y-47885092D01*
X121907055Y-47799000D01*
X121352945Y-47799000D01*
X120920130Y-47885092D01*
X120553207Y-48130262D01*
X120308037Y-48497185D01*
X120258000Y-48748739D01*
X120258000Y-47460420D01*
X120334322Y-47384098D01*
X120351546Y-47410865D01*
X120478866Y-47497859D01*
X120630000Y-47528464D01*
X122630000Y-47528464D01*
X122771190Y-47501897D01*
X122900865Y-47418454D01*
X122987859Y-47291134D01*
X123018464Y-47140000D01*
X123018464Y-46390000D01*
X123261945Y-46390000D01*
X123348037Y-46822815D01*
X123593207Y-47189738D01*
X123960130Y-47434908D01*
X124392945Y-47521000D01*
X124947055Y-47521000D01*
X125379870Y-47434908D01*
X125746793Y-47189738D01*
X125991963Y-46822815D01*
X126078055Y-46390000D01*
X125991963Y-45957185D01*
X125746793Y-45590262D01*
X125379870Y-45345092D01*
X124947055Y-45259000D01*
X124928000Y-45259000D01*
X124928000Y-40790420D01*
X126302859Y-39415561D01*
X127413855Y-39415561D01*
X127540861Y-39722937D01*
X127742000Y-39924428D01*
X127742000Y-44250000D01*
X127780669Y-44444403D01*
X127890790Y-44609210D01*
X147640790Y-64359210D01*
X147805597Y-64469331D01*
X148000000Y-64508000D01*
X149575863Y-64508000D01*
X149775826Y-64708313D01*
X150082980Y-64835854D01*
X150415561Y-64836145D01*
X150722937Y-64709139D01*
X150958313Y-64474174D01*
X151085854Y-64167020D01*
X151086145Y-63834439D01*
X150959139Y-63527063D01*
X150724174Y-63291687D01*
X150417020Y-63164146D01*
X150084439Y-63163855D01*
X149777063Y-63290861D01*
X149575572Y-63492000D01*
X148210420Y-63492000D01*
X145133981Y-60415561D01*
X148913855Y-60415561D01*
X149040861Y-60722937D01*
X149275826Y-60958313D01*
X149582980Y-61085854D01*
X149867683Y-61086103D01*
X151140790Y-62359210D01*
X151305597Y-62469331D01*
X151500000Y-62508000D01*
X152075863Y-62508000D01*
X152275826Y-62708313D01*
X152582980Y-62835854D01*
X152915561Y-62836145D01*
X153222937Y-62709139D01*
X153458313Y-62474174D01*
X153585854Y-62167020D01*
X153586145Y-61834439D01*
X153459139Y-61527063D01*
X153224174Y-61291687D01*
X152917020Y-61164146D01*
X152584439Y-61163855D01*
X152277063Y-61290861D01*
X152075572Y-61492000D01*
X151710420Y-61492000D01*
X150585897Y-60367477D01*
X150586145Y-60084439D01*
X150459139Y-59777063D01*
X150224174Y-59541687D01*
X149917020Y-59414146D01*
X149584439Y-59413855D01*
X149277063Y-59540861D01*
X149041687Y-59775826D01*
X148914146Y-60082980D01*
X148913855Y-60415561D01*
X145133981Y-60415561D01*
X132235812Y-47517392D01*
X135779271Y-47517392D01*
X135988995Y-48024963D01*
X136376994Y-48413640D01*
X136884199Y-48624249D01*
X137433392Y-48624729D01*
X137940963Y-48415005D01*
X138329640Y-48027006D01*
X138540249Y-47519801D01*
X138540729Y-46970608D01*
X138331005Y-46463037D01*
X137943006Y-46074360D01*
X137435801Y-45863751D01*
X136886608Y-45863271D01*
X136379037Y-46072995D01*
X135990360Y-46460994D01*
X135779751Y-46968199D01*
X135779271Y-47517392D01*
X132235812Y-47517392D01*
X128758000Y-44039580D01*
X128758000Y-39924137D01*
X128958313Y-39724174D01*
X129085854Y-39417020D01*
X129086145Y-39084439D01*
X128959139Y-38777063D01*
X128724174Y-38541687D01*
X128417020Y-38414146D01*
X128084439Y-38413855D01*
X127777063Y-38540861D01*
X127541687Y-38775826D01*
X127414146Y-39082980D01*
X127413855Y-39415561D01*
X126302859Y-39415561D01*
X127710420Y-38008000D01*
X131539580Y-38008000D01*
X154716110Y-61184530D01*
X154667020Y-61164146D01*
X154334439Y-61163855D01*
X154027063Y-61290861D01*
X153791687Y-61525826D01*
X153664146Y-61832980D01*
X153663855Y-62165561D01*
X153790861Y-62472937D01*
X154025826Y-62708313D01*
X154332980Y-62835854D01*
X154617683Y-62836103D01*
X169492000Y-77710420D01*
X169492000Y-99388000D01*
X169530669Y-99582403D01*
X169640790Y-99747210D01*
X173916103Y-104022523D01*
X173915855Y-104305561D01*
X174042861Y-104612937D01*
X174277826Y-104848313D01*
X174584980Y-104975854D01*
X174917561Y-104976145D01*
X175224937Y-104849139D01*
X175460313Y-104614174D01*
X175587854Y-104307020D01*
X175588145Y-103974439D01*
X175461139Y-103667063D01*
X175226174Y-103431687D01*
X174919020Y-103304146D01*
X174634317Y-103303897D01*
X170508000Y-99177580D01*
X170508000Y-77500000D01*
X170469331Y-77305597D01*
X170469331Y-77305596D01*
X170359210Y-77140790D01*
X163383981Y-70165561D01*
X163913855Y-70165561D01*
X164040861Y-70472937D01*
X164275826Y-70708313D01*
X164582980Y-70835854D01*
X164915561Y-70836145D01*
X165222937Y-70709139D01*
X165458313Y-70474174D01*
X165585854Y-70167020D01*
X165585993Y-70008000D01*
X167419562Y-70008000D01*
X167305597Y-70030669D01*
X167140790Y-70140790D01*
X167117477Y-70164103D01*
X166834439Y-70163855D01*
X166527063Y-70290861D01*
X166291687Y-70525826D01*
X166164146Y-70832980D01*
X166163855Y-71165561D01*
X166290861Y-71472937D01*
X166525826Y-71708313D01*
X166832980Y-71835854D01*
X167165561Y-71836145D01*
X167472937Y-71709139D01*
X167708313Y-71474174D01*
X167835854Y-71167020D01*
X167835993Y-71008000D01*
X171186523Y-71008000D01*
X171113666Y-71183460D01*
X171113375Y-71516041D01*
X171240381Y-71823417D01*
X171441520Y-72024908D01*
X171441520Y-77926343D01*
X171241207Y-78126306D01*
X171113666Y-78433460D01*
X171113375Y-78766041D01*
X171240381Y-79073417D01*
X171475346Y-79308793D01*
X171782500Y-79436334D01*
X172115081Y-79436625D01*
X172422457Y-79309619D01*
X172657833Y-79074654D01*
X172785374Y-78767500D01*
X172785665Y-78434919D01*
X172658659Y-78127543D01*
X172457520Y-77926052D01*
X172457520Y-72024617D01*
X172657833Y-71824654D01*
X172785374Y-71517500D01*
X172785665Y-71184919D01*
X172712563Y-71008000D01*
X173825863Y-71008000D01*
X173992000Y-71174428D01*
X173992000Y-84000000D01*
X174030669Y-84194403D01*
X174140790Y-84359210D01*
X176164103Y-86382523D01*
X176163855Y-86665561D01*
X176290861Y-86972937D01*
X176525826Y-87208313D01*
X176832980Y-87335854D01*
X177121474Y-87336106D01*
X173376790Y-91080790D01*
X173266669Y-91245597D01*
X173228000Y-91440000D01*
X173228000Y-99401863D01*
X173027687Y-99601826D01*
X172900146Y-99908980D01*
X172899855Y-100241561D01*
X173026861Y-100548937D01*
X173261826Y-100784313D01*
X173568980Y-100911854D01*
X173901561Y-100912145D01*
X174208937Y-100785139D01*
X174444313Y-100550174D01*
X174571854Y-100243020D01*
X174572145Y-99910439D01*
X174445139Y-99603063D01*
X174244000Y-99401572D01*
X174244000Y-97142761D01*
X177573455Y-97142761D01*
X177700461Y-97450137D01*
X177935426Y-97685513D01*
X178242580Y-97813054D01*
X178575161Y-97813345D01*
X178882537Y-97686339D01*
X179117913Y-97451374D01*
X179245454Y-97144220D01*
X179245745Y-96811639D01*
X179118739Y-96504263D01*
X178917600Y-96302772D01*
X178917600Y-92818820D01*
X184458410Y-87278011D01*
X184550098Y-87140790D01*
X184568531Y-87113203D01*
X184607200Y-86918800D01*
X184607200Y-83979620D01*
X184896123Y-83690697D01*
X185179161Y-83690945D01*
X185486537Y-83563939D01*
X185721913Y-83328974D01*
X185849454Y-83021820D01*
X185849745Y-82689239D01*
X185722739Y-82381863D01*
X185487774Y-82146487D01*
X185180620Y-82018946D01*
X184848039Y-82018655D01*
X184540663Y-82145661D01*
X184305287Y-82380626D01*
X184177746Y-82687780D01*
X184177497Y-82972483D01*
X183739990Y-83409990D01*
X183629869Y-83574797D01*
X183591200Y-83769200D01*
X183591200Y-86708379D01*
X178050390Y-92249190D01*
X177940269Y-92413997D01*
X177901600Y-92608400D01*
X177901600Y-96303063D01*
X177701287Y-96503026D01*
X177573746Y-96810180D01*
X177573455Y-97142761D01*
X174244000Y-97142761D01*
X174244000Y-91650420D01*
X178386420Y-87508000D01*
X179575863Y-87508000D01*
X179775826Y-87708313D01*
X180082980Y-87835854D01*
X180415561Y-87836145D01*
X180722937Y-87709139D01*
X180958313Y-87474174D01*
X181085854Y-87167020D01*
X181086145Y-86834439D01*
X180959139Y-86527063D01*
X180724174Y-86291687D01*
X180417020Y-86164146D01*
X180084439Y-86163855D01*
X179777063Y-86290861D01*
X179575572Y-86492000D01*
X178176000Y-86492000D01*
X177981596Y-86530669D01*
X177835888Y-86628029D01*
X177836145Y-86334439D01*
X177709139Y-86027063D01*
X177474174Y-85791687D01*
X177167020Y-85664146D01*
X176882317Y-85663897D01*
X175008000Y-83789580D01*
X175008000Y-76165561D01*
X175663855Y-76165561D01*
X175790861Y-76472937D01*
X175992000Y-76674428D01*
X175992000Y-79075863D01*
X175791687Y-79275826D01*
X175664146Y-79582980D01*
X175663855Y-79915561D01*
X175790861Y-80222937D01*
X176025826Y-80458313D01*
X176332980Y-80585854D01*
X176665561Y-80586145D01*
X176972937Y-80459139D01*
X177208313Y-80224174D01*
X177335854Y-79917020D01*
X177336145Y-79584439D01*
X177209139Y-79277063D01*
X177008000Y-79075572D01*
X177008000Y-76674137D01*
X177208313Y-76474174D01*
X177335854Y-76167020D01*
X177336145Y-75834439D01*
X177209139Y-75527063D01*
X176974174Y-75291687D01*
X176678583Y-75168947D01*
X180984185Y-75168947D01*
X181269927Y-75860495D01*
X181798562Y-76390054D01*
X182489611Y-76677002D01*
X183237867Y-76677655D01*
X183929415Y-76391913D01*
X184458974Y-75863278D01*
X184745922Y-75172229D01*
X184746575Y-74423973D01*
X184460833Y-73732425D01*
X183932198Y-73202866D01*
X183241149Y-72915918D01*
X182492893Y-72915265D01*
X181801345Y-73201007D01*
X181271786Y-73729642D01*
X180984838Y-74420691D01*
X180984185Y-75168947D01*
X176678583Y-75168947D01*
X176667020Y-75164146D01*
X176334439Y-75163855D01*
X176027063Y-75290861D01*
X175791687Y-75525826D01*
X175664146Y-75832980D01*
X175663855Y-76165561D01*
X175008000Y-76165561D01*
X175008000Y-71174137D01*
X175208313Y-70974174D01*
X175335854Y-70667020D01*
X175335953Y-70554373D01*
X176890790Y-72109211D01*
X177055597Y-72219331D01*
X177250000Y-72258000D01*
X179150822Y-72258000D01*
X179195342Y-72365746D01*
X179513380Y-72684339D01*
X179929129Y-72856973D01*
X180379296Y-72857366D01*
X180795346Y-72685458D01*
X181113939Y-72367420D01*
X181286573Y-71951671D01*
X181286966Y-71501504D01*
X181115058Y-71085454D01*
X180797020Y-70766861D01*
X180381271Y-70594227D01*
X179931104Y-70593834D01*
X179515054Y-70765742D01*
X179196461Y-71083780D01*
X179130762Y-71242000D01*
X177460421Y-71242000D01*
X175359210Y-69140790D01*
X175194403Y-69030669D01*
X175000000Y-68992000D01*
X165250000Y-68992000D01*
X165055597Y-69030669D01*
X164890790Y-69140790D01*
X164867477Y-69164103D01*
X164584439Y-69163855D01*
X164277063Y-69290861D01*
X164041687Y-69525826D01*
X163914146Y-69832980D01*
X163913855Y-70165561D01*
X163383981Y-70165561D01*
X160667236Y-67448816D01*
X179023434Y-67448816D01*
X179195342Y-67864866D01*
X179513380Y-68183459D01*
X179614312Y-68225370D01*
X179515054Y-68266382D01*
X179196461Y-68584420D01*
X179023827Y-69000169D01*
X179023434Y-69450336D01*
X179195342Y-69866386D01*
X179513380Y-70184979D01*
X179929129Y-70357613D01*
X180379296Y-70358006D01*
X180795346Y-70186098D01*
X181113939Y-69868060D01*
X181286573Y-69452311D01*
X181286966Y-69002144D01*
X181115058Y-68586094D01*
X180797020Y-68267501D01*
X180696088Y-68225590D01*
X180795346Y-68184578D01*
X181113939Y-67866540D01*
X181286573Y-67450791D01*
X181286966Y-67000624D01*
X181115058Y-66584574D01*
X180797020Y-66265981D01*
X180381271Y-66093347D01*
X179931104Y-66092954D01*
X179515054Y-66264862D01*
X179196461Y-66582900D01*
X179023827Y-66998649D01*
X179023434Y-67448816D01*
X160667236Y-67448816D01*
X158733369Y-65514949D01*
X179398138Y-65514949D01*
X179468218Y-65710039D01*
X179897332Y-65897982D01*
X180365704Y-65907404D01*
X180802029Y-65736869D01*
X180842182Y-65710039D01*
X180912262Y-65514949D01*
X180155200Y-64757887D01*
X179398138Y-65514949D01*
X158733369Y-65514949D01*
X158154284Y-64935864D01*
X178973156Y-64935864D01*
X179143691Y-65372189D01*
X179170521Y-65412342D01*
X179365611Y-65482422D01*
X180122673Y-64725360D01*
X180187727Y-64725360D01*
X180944789Y-65482422D01*
X181139879Y-65412342D01*
X181327822Y-64983228D01*
X181337244Y-64514856D01*
X181166709Y-64078531D01*
X181139879Y-64038378D01*
X180944789Y-63968298D01*
X180187727Y-64725360D01*
X180122673Y-64725360D01*
X179365611Y-63968298D01*
X179170521Y-64038378D01*
X178982578Y-64467492D01*
X178973156Y-64935864D01*
X158154284Y-64935864D01*
X157154191Y-63935771D01*
X179398138Y-63935771D01*
X180155200Y-64692833D01*
X180912262Y-63935771D01*
X180842182Y-63740681D01*
X180413068Y-63552738D01*
X179944696Y-63543316D01*
X179508371Y-63713851D01*
X179468218Y-63740681D01*
X179398138Y-63935771D01*
X157154191Y-63935771D01*
X155783890Y-62565470D01*
X155832980Y-62585854D01*
X156165561Y-62586145D01*
X156472937Y-62459139D01*
X156708313Y-62224174D01*
X156790191Y-62026987D01*
X180984185Y-62026987D01*
X181269927Y-62718535D01*
X181798562Y-63248094D01*
X182489611Y-63535042D01*
X183237867Y-63535695D01*
X183929415Y-63249953D01*
X184458974Y-62721318D01*
X184745922Y-62030269D01*
X184746575Y-61282013D01*
X184460833Y-60590465D01*
X183932198Y-60060906D01*
X183241149Y-59773958D01*
X182492893Y-59773305D01*
X181801345Y-60059047D01*
X181271786Y-60587682D01*
X180984838Y-61278731D01*
X180984185Y-62026987D01*
X156790191Y-62026987D01*
X156835854Y-61917020D01*
X156836145Y-61584439D01*
X156709139Y-61277063D01*
X156474174Y-61041687D01*
X156167020Y-60914146D01*
X155882317Y-60913897D01*
X151020212Y-56051792D01*
X169510471Y-56051792D01*
X169720195Y-56559363D01*
X170108194Y-56948040D01*
X170615399Y-57158649D01*
X171164592Y-57159129D01*
X171672163Y-56949405D01*
X172060840Y-56561406D01*
X172271449Y-56054201D01*
X172271451Y-56051792D01*
X179670471Y-56051792D01*
X179880195Y-56559363D01*
X180268194Y-56948040D01*
X180775399Y-57158649D01*
X181324592Y-57159129D01*
X181832163Y-56949405D01*
X182220840Y-56561406D01*
X182431449Y-56054201D01*
X182431929Y-55505008D01*
X182222205Y-54997437D01*
X181834206Y-54608760D01*
X181327001Y-54398151D01*
X180777808Y-54397671D01*
X180270237Y-54607395D01*
X179881560Y-54995394D01*
X179670951Y-55502599D01*
X179670471Y-56051792D01*
X172271451Y-56051792D01*
X172271929Y-55505008D01*
X172062205Y-54997437D01*
X171674206Y-54608760D01*
X171167001Y-54398151D01*
X170617808Y-54397671D01*
X170110237Y-54607395D01*
X169721560Y-54995394D01*
X169510951Y-55502599D01*
X169510471Y-56051792D01*
X151020212Y-56051792D01*
X149223900Y-54255480D01*
X185756465Y-54255480D01*
X185842557Y-54688295D01*
X186087727Y-55055218D01*
X186454650Y-55300388D01*
X186887465Y-55386480D01*
X187441575Y-55386480D01*
X187874390Y-55300388D01*
X188241313Y-55055218D01*
X188486483Y-54688295D01*
X188572575Y-54255480D01*
X188486483Y-53822665D01*
X188241313Y-53455742D01*
X187874390Y-53210572D01*
X187441575Y-53124480D01*
X186887465Y-53124480D01*
X186454650Y-53210572D01*
X186087727Y-53455742D01*
X185842557Y-53822665D01*
X185756465Y-54255480D01*
X149223900Y-54255480D01*
X143698781Y-48730361D01*
X175439855Y-48730361D01*
X175566861Y-49037737D01*
X175768000Y-49239228D01*
X175768000Y-51395863D01*
X175567687Y-51595826D01*
X175440146Y-51902980D01*
X175439855Y-52235561D01*
X175566861Y-52542937D01*
X175801826Y-52778313D01*
X176108980Y-52905854D01*
X176441561Y-52906145D01*
X176748937Y-52779139D01*
X176984313Y-52544174D01*
X177111854Y-52237020D01*
X177112145Y-51904439D01*
X177034069Y-51715480D01*
X185756465Y-51715480D01*
X185842557Y-52148295D01*
X186087727Y-52515218D01*
X186454650Y-52760388D01*
X186887465Y-52846480D01*
X187441575Y-52846480D01*
X187874390Y-52760388D01*
X188241313Y-52515218D01*
X188486483Y-52148295D01*
X188572575Y-51715480D01*
X188486483Y-51282665D01*
X188241313Y-50915742D01*
X187874390Y-50670572D01*
X187441575Y-50584480D01*
X186887465Y-50584480D01*
X186454650Y-50670572D01*
X186087727Y-50915742D01*
X185842557Y-51282665D01*
X185756465Y-51715480D01*
X177034069Y-51715480D01*
X176985139Y-51597063D01*
X176784000Y-51395572D01*
X176784000Y-49382285D01*
X185755831Y-49382285D01*
X185818312Y-49604649D01*
X186065992Y-49991481D01*
X186442852Y-50254084D01*
X186891520Y-50352480D01*
X187141520Y-50352480D01*
X187141520Y-49198480D01*
X187187520Y-49198480D01*
X187187520Y-50352480D01*
X187437520Y-50352480D01*
X187886188Y-50254084D01*
X188263048Y-49991481D01*
X188510728Y-49604649D01*
X188573209Y-49382285D01*
X188484523Y-49198480D01*
X187187520Y-49198480D01*
X187141520Y-49198480D01*
X185844517Y-49198480D01*
X185755831Y-49382285D01*
X176784000Y-49382285D01*
X176784000Y-49238937D01*
X176984313Y-49038974D01*
X177013503Y-48968675D01*
X185755831Y-48968675D01*
X185844517Y-49152480D01*
X187141520Y-49152480D01*
X187141520Y-47998480D01*
X187187520Y-47998480D01*
X187187520Y-49152480D01*
X188484523Y-49152480D01*
X188573209Y-48968675D01*
X188510728Y-48746311D01*
X188263048Y-48359479D01*
X187886188Y-48096876D01*
X187437520Y-47998480D01*
X187187520Y-47998480D01*
X187141520Y-47998480D01*
X186891520Y-47998480D01*
X186442852Y-48096876D01*
X186065992Y-48359479D01*
X185818312Y-48746311D01*
X185755831Y-48968675D01*
X177013503Y-48968675D01*
X177111854Y-48731820D01*
X177112145Y-48399239D01*
X176985139Y-48091863D01*
X176750174Y-47856487D01*
X176443020Y-47728946D01*
X176110439Y-47728655D01*
X175803063Y-47855661D01*
X175567687Y-48090626D01*
X175440146Y-48397780D01*
X175439855Y-48730361D01*
X143698781Y-48730361D01*
X141603900Y-46635480D01*
X185756465Y-46635480D01*
X185842557Y-47068295D01*
X186087727Y-47435218D01*
X186454650Y-47680388D01*
X186887465Y-47766480D01*
X187441575Y-47766480D01*
X187874390Y-47680388D01*
X188241313Y-47435218D01*
X188486483Y-47068295D01*
X188572575Y-46635480D01*
X188486483Y-46202665D01*
X188241313Y-45835742D01*
X187874390Y-45590572D01*
X187441575Y-45504480D01*
X186887465Y-45504480D01*
X186454650Y-45590572D01*
X186087727Y-45835742D01*
X185842557Y-46202665D01*
X185756465Y-46635480D01*
X141603900Y-46635480D01*
X132383981Y-37415561D01*
X182913855Y-37415561D01*
X183040861Y-37722937D01*
X183275826Y-37958313D01*
X183582980Y-38085854D01*
X183915561Y-38086145D01*
X184222937Y-37959139D01*
X184424428Y-37758000D01*
X185539580Y-37758000D01*
X191492000Y-43710420D01*
X191492000Y-46151058D01*
X191281313Y-45835742D01*
X190914390Y-45590572D01*
X190481575Y-45504480D01*
X189927465Y-45504480D01*
X189494650Y-45590572D01*
X189127727Y-45835742D01*
X188882557Y-46202665D01*
X188796465Y-46635480D01*
X188882557Y-47068295D01*
X189127727Y-47435218D01*
X189494650Y-47680388D01*
X189927465Y-47766480D01*
X190481575Y-47766480D01*
X190914390Y-47680388D01*
X191281313Y-47435218D01*
X191492000Y-47119902D01*
X191492000Y-48691058D01*
X191281313Y-48375742D01*
X190914390Y-48130572D01*
X190481575Y-48044480D01*
X189927465Y-48044480D01*
X189494650Y-48130572D01*
X189127727Y-48375742D01*
X188882557Y-48742665D01*
X188796465Y-49175480D01*
X188882557Y-49608295D01*
X189127727Y-49975218D01*
X189494650Y-50220388D01*
X189927465Y-50306480D01*
X190481575Y-50306480D01*
X190914390Y-50220388D01*
X191281313Y-49975218D01*
X191492000Y-49659902D01*
X191492000Y-51231058D01*
X191281313Y-50915742D01*
X190914390Y-50670572D01*
X190481575Y-50584480D01*
X189927465Y-50584480D01*
X189494650Y-50670572D01*
X189127727Y-50915742D01*
X188882557Y-51282665D01*
X188796465Y-51715480D01*
X188882557Y-52148295D01*
X189127727Y-52515218D01*
X189494650Y-52760388D01*
X189927465Y-52846480D01*
X190481575Y-52846480D01*
X190914390Y-52760388D01*
X191281313Y-52515218D01*
X191492000Y-52199902D01*
X191492000Y-53248642D01*
X191482974Y-53234615D01*
X191355654Y-53147621D01*
X191204520Y-53117016D01*
X189204520Y-53117016D01*
X189063330Y-53143583D01*
X188933655Y-53227026D01*
X188846661Y-53354346D01*
X188816056Y-53505480D01*
X188816056Y-55005480D01*
X188842623Y-55146670D01*
X188926066Y-55276345D01*
X189053386Y-55363339D01*
X189204520Y-55393944D01*
X191204520Y-55393944D01*
X191345710Y-55367377D01*
X191475385Y-55283934D01*
X191492000Y-55259617D01*
X191492000Y-75539580D01*
X188117477Y-78914103D01*
X187834439Y-78913855D01*
X187527063Y-79040861D01*
X187291687Y-79275826D01*
X187164146Y-79582980D01*
X187163855Y-79915561D01*
X187290861Y-80222937D01*
X187525826Y-80458313D01*
X187832980Y-80585854D01*
X188165561Y-80586145D01*
X188472937Y-80459139D01*
X188708313Y-80224174D01*
X188835854Y-79917020D01*
X188836103Y-79632317D01*
X192359210Y-76109210D01*
X192469331Y-75944404D01*
X192475746Y-75912150D01*
X192508000Y-75750000D01*
X192508000Y-43500000D01*
X192469331Y-43305597D01*
X192359210Y-43140790D01*
X186109210Y-36890790D01*
X185944403Y-36780669D01*
X185750000Y-36742000D01*
X184424137Y-36742000D01*
X184224174Y-36541687D01*
X183917020Y-36414146D01*
X183584439Y-36413855D01*
X183277063Y-36540861D01*
X183041687Y-36775826D01*
X182914146Y-37082980D01*
X182913855Y-37415561D01*
X132383981Y-37415561D01*
X132109210Y-37140790D01*
X131944403Y-37030669D01*
X131750000Y-36992000D01*
X127500000Y-36992000D01*
X127305597Y-37030669D01*
X127140790Y-37140790D01*
X124060790Y-40220790D01*
X123950669Y-40385597D01*
X123912000Y-40580000D01*
X123912000Y-45377251D01*
X123593207Y-45590262D01*
X123348037Y-45957185D01*
X123261945Y-46390000D01*
X123018464Y-46390000D01*
X123018464Y-45640000D01*
X122991897Y-45498810D01*
X122908454Y-45369135D01*
X122781134Y-45282141D01*
X122630000Y-45251536D01*
X120630000Y-45251536D01*
X120488810Y-45278103D01*
X120359135Y-45361546D01*
X120272141Y-45488866D01*
X120241536Y-45640000D01*
X120241536Y-46040044D01*
X119390790Y-46890790D01*
X119280669Y-47055597D01*
X119242000Y-47250000D01*
X118655520Y-47250000D01*
X118655520Y-34056480D01*
X193040000Y-34056480D01*
X193040000Y-147144480D01*
M02*
