M48
;DRILL file {KiCad 4.0.2-stable} date Friday, 14 October 2016 'pmt' 13:53:35
;FORMAT={-:-/ absolute / metric / decimal}
FMAT,2
METRIC,TZ
T1C0.400
T2C0.899
T3C1.000
T4C1.001
T5C1.016
T6C1.100
T7C1.300
T8C1.999
T9C0.798
%
G90
G05
M71
T1
X122.25Y-87.25
X125.5Y-101.5
X126.Y-56.25
X127.Y-118.872
X128.25Y-39.25
X128.25Y-111.75
X131.064Y-51.816
X132.25Y-108.
X133.604Y-55.372
X133.75Y-101.25
X148.Y-96.
X149.Y-89.5
X149.75Y-60.25
X149.95Y-95.35
X150.25Y-64.
X151.2Y-89.85
X152.45Y-95.35
X152.75Y-62.
X152.95Y-92.85
X153.34Y-84.226
X153.5Y-82.25
X153.518Y-86.208
X153.721Y-87.579
X154.2Y-92.35
X154.5Y-62.
X154.95Y-95.1
X155.778Y-87.3
X156.Y-61.75
X156.Y-67.
X157.556Y-87.249
X157.75Y-81.
X160.25Y-80.5
X160.25Y-87.5
X160.68Y-61.163
X163.25Y-114.75
X164.7Y-119.6
X164.75Y-70.
X167.Y-71.
X168.148Y-79.756
X168.148Y-89.408
X169.75Y-68.5
X170.Y-113.5
X171.95Y-71.35
X171.95Y-78.6
X173.736Y-100.076
X174.5Y-70.5
X174.752Y-104.14
X176.276Y-48.565
X176.276Y-52.07
X176.5Y-76.
X176.5Y-79.75
X177.Y-86.5
X178.41Y-96.977
X180.25Y-87.
X181.75Y-92.
X183.5Y-91.25
X183.75Y-37.25
X184.75Y-91.5
X184.861Y-66.142
X185.014Y-82.855
X188.Y-79.75
T2
X131.739Y-63.85
X131.739Y-66.349
X131.739Y-68.351
X131.739Y-70.85
X180.155Y-64.725
X180.155Y-67.225
X180.155Y-69.226
X180.155Y-71.726
X180.155Y-114.89
X180.155Y-117.39
X180.155Y-119.391
X180.155Y-121.891
T3
X121.88Y-46.39
X121.88Y-48.93
X121.88Y-51.47
X121.88Y-54.01
X124.42Y-46.39
X124.42Y-48.93
X124.42Y-51.47
X124.42Y-54.01
X187.415Y-46.635
X187.415Y-49.175
X187.415Y-51.715
X187.415Y-54.255
X189.955Y-46.635
X189.955Y-49.175
X189.955Y-51.715
X189.955Y-54.255
T4
X137.16Y-47.244
X137.16Y-57.404
X170.891Y-55.778
X181.051Y-55.778
T5
X190.246Y-93.878
X190.246Y-96.418
X190.246Y-98.958
X190.246Y-101.498
X190.246Y-104.038
X190.246Y-106.578
T7
X142.53Y-131.15
X142.53Y-138.6
X147.53Y-131.15
X147.53Y-138.6
X152.53Y-131.15
X152.53Y-138.6
X162.53Y-131.15
X162.53Y-138.6
X167.52Y-138.66
X167.53Y-131.15
T8
X129.029Y-60.779
X129.029Y-73.921
X182.865Y-61.654
X182.865Y-74.796
X182.865Y-111.819
X182.865Y-124.961
T9
X123.19Y-117.61
X123.19Y-121.71
X123.25Y-101.15
X123.25Y-105.25
T6
X122.845Y-133.265G85X122.845Y-135.265
G05
X124.845Y-138.964G85X126.845Y-138.964
G05
X128.845Y-133.015G85X128.845Y-135.515
G05
X183.119Y-135.515G85X183.119Y-133.015
G05
X187.119Y-129.566G85X185.119Y-129.566
G05
X189.119Y-135.265G85X189.119Y-133.265
G05
T0
M30
