G04 #@! TF.FileFunction,Legend,Top*
%FSLAX46Y46*%
G04 Gerber Fmt 4.6, Leading zero omitted, Abs format (unit mm)*
G04 Created by KiCad (PCBNEW 4.0.2-stable) date Thursday, 21 July 2016 'pmt' 12:09:51*
%MOMM*%
G01*
G04 APERTURE LIST*
%ADD10C,0.200000*%
%ADD11C,0.150000*%
%ADD12C,0.203200*%
G04 APERTURE END LIST*
D10*
D11*
X145820000Y-105050000D02*
X155215000Y-105050000D01*
X145015000Y-104250000D02*
G75*
G03X145815000Y-105050000I800000J0D01*
G01*
X155215000Y-105050000D02*
G75*
G03X156015000Y-104250000I0J800000D01*
G01*
X155448000Y-124587000D02*
X145288000Y-124587000D01*
X145288000Y-124587000D02*
X145288000Y-118237000D01*
X145288000Y-118237000D02*
X155448000Y-118237000D01*
X155448000Y-118237000D02*
X155448000Y-124587000D01*
D10*
X147208000Y-123182000D02*
X147208000Y-122682000D01*
X145908000Y-123182000D02*
X145908000Y-122682000D01*
X147208000Y-122682000D02*
G75*
G03X145908000Y-122682000I-650000J0D01*
G01*
X145908000Y-123182000D02*
G75*
G03X147208000Y-123182000I650000J0D01*
G01*
X147208000Y-120142000D02*
X147208000Y-119642000D01*
X145908000Y-120142000D02*
X145908000Y-119642000D01*
X147208000Y-119642000D02*
G75*
G03X145908000Y-119642000I-650000J0D01*
G01*
X145908000Y-120142000D02*
G75*
G03X147208000Y-120142000I650000J0D01*
G01*
X154828000Y-123182000D02*
X154828000Y-122682000D01*
X153528000Y-123182000D02*
X153528000Y-122682000D01*
X154828000Y-122682000D02*
G75*
G03X153528000Y-122682000I-650000J0D01*
G01*
X153528000Y-123182000D02*
G75*
G03X154828000Y-123182000I650000J0D01*
G01*
X152288000Y-120142000D02*
X152288000Y-119642000D01*
X150988000Y-120142000D02*
X150988000Y-119642000D01*
X152288000Y-119642000D02*
G75*
G03X150988000Y-119642000I-650000J0D01*
G01*
X150988000Y-120142000D02*
G75*
G03X152288000Y-120142000I650000J0D01*
G01*
X152288000Y-123182000D02*
X152288000Y-122682000D01*
X150988000Y-123182000D02*
X150988000Y-122682000D01*
X152288000Y-122682000D02*
G75*
G03X150988000Y-122682000I-650000J0D01*
G01*
X150988000Y-123182000D02*
G75*
G03X152288000Y-123182000I650000J0D01*
G01*
X149748000Y-120142000D02*
X149748000Y-119642000D01*
X148448000Y-120142000D02*
X148448000Y-119642000D01*
X149748000Y-119642000D02*
G75*
G03X148448000Y-119642000I-650000J0D01*
G01*
X148448000Y-120142000D02*
G75*
G03X149748000Y-120142000I650000J0D01*
G01*
X149748000Y-123182000D02*
X149748000Y-122682000D01*
X148448000Y-123182000D02*
X148448000Y-122682000D01*
X149748000Y-122682000D02*
G75*
G03X148448000Y-122682000I-650000J0D01*
G01*
X148448000Y-123182000D02*
G75*
G03X149748000Y-123182000I650000J0D01*
G01*
D12*
X144470381Y-124055095D02*
X143470381Y-124055095D01*
X143470381Y-123674142D01*
X143518000Y-123578904D01*
X143565619Y-123531285D01*
X143660857Y-123483666D01*
X143803714Y-123483666D01*
X143898952Y-123531285D01*
X143946571Y-123578904D01*
X143994190Y-123674142D01*
X143994190Y-124055095D01*
X144470381Y-122531285D02*
X144470381Y-123102714D01*
X144470381Y-122817000D02*
X143470381Y-122817000D01*
X143613238Y-122912238D01*
X143708476Y-123007476D01*
X143756095Y-123102714D01*
M02*
