G04 #@! TF.FileFunction,Copper,L2,Bot,Signal*
%FSLAX46Y46*%
G04 Gerber Fmt 4.6, Leading zero omitted, Abs format (unit mm)*
G04 Created by KiCad (PCBNEW 4.0.2-stable) date Thursday, 21 July 2016 'pmt' 12:09:51*
%MOMM*%
G01*
G04 APERTURE LIST*
%ADD10C,0.200000*%
%ADD11O,1.500000X2.000000*%
%ADD12R,1.500000X2.000000*%
%ADD13C,0.600000*%
%ADD14C,0.250000*%
G04 APERTURE END LIST*
D10*
D11*
X146558000Y-122932000D03*
X146558000Y-119892000D03*
D12*
X154178000Y-119892000D03*
D11*
X154178000Y-122932000D03*
X151638000Y-119892000D03*
X151638000Y-122932000D03*
X149098000Y-119892000D03*
X149098000Y-122932000D03*
D13*
X152908000Y-99060000D03*
X152908000Y-97028000D03*
X150876000Y-124460000D03*
X152908000Y-94996000D03*
X150876000Y-103124000D03*
X150368000Y-94996000D03*
X151384000Y-105156000D03*
X152908000Y-107696000D03*
D14*
X147828000Y-121412000D02*
X146558000Y-122682000D01*
X147828000Y-104140000D02*
X147828000Y-121412000D01*
X152908000Y-99060000D02*
X147828000Y-104140000D01*
X146812000Y-103124000D02*
X146812000Y-119888000D01*
X152908000Y-97028000D02*
X146812000Y-103124000D01*
X146812000Y-119888000D02*
X146558000Y-120142000D01*
X155448000Y-124460000D02*
X150876000Y-124460000D01*
X155956000Y-123952000D02*
X155448000Y-124460000D01*
X155956000Y-118872000D02*
X155956000Y-123952000D01*
X155448000Y-118364000D02*
X155956000Y-118872000D01*
X155448000Y-95504000D02*
X155448000Y-118364000D01*
X154940000Y-94996000D02*
X155448000Y-95504000D01*
X152908000Y-94996000D02*
X154940000Y-94996000D01*
X149098000Y-104902000D02*
X149098000Y-120142000D01*
X150876000Y-103124000D02*
X149098000Y-104902000D01*
X146304000Y-96520000D02*
X146304000Y-102108000D01*
X150368000Y-94996000D02*
X147828000Y-94996000D01*
X147828000Y-94996000D02*
X146304000Y-96520000D01*
X144780000Y-118872000D02*
X144780000Y-123444000D01*
X144780000Y-123444000D02*
X145796000Y-124460000D01*
X145796000Y-124460000D02*
X149860000Y-124460000D01*
X151638000Y-122682000D02*
X149860000Y-124460000D01*
X145796000Y-117856000D02*
X144780000Y-118872000D01*
X145796000Y-102616000D02*
X145796000Y-117856000D01*
X146304000Y-102108000D02*
X145796000Y-102616000D01*
X151638000Y-105410000D02*
X151638000Y-120142000D01*
X151384000Y-105156000D02*
X151638000Y-105410000D01*
X152908000Y-121412000D02*
X154178000Y-122682000D01*
X152908000Y-107696000D02*
X152908000Y-121412000D01*
M02*
