G04 #@! TF.FileFunction,Copper,L2,Bot,Signal*
%FSLAX46Y46*%
G04 Gerber Fmt 4.6, Leading zero omitted, Abs format (unit mm)*
G04 Created by KiCad (PCBNEW 4.0.2-stable) date Wednesday, 25 January 2017 'pmt' 12:35:03*
%MOMM*%
G01*
G04 APERTURE LIST*
%ADD10C,0.100000*%
%ADD11R,1.700000X1.700000*%
%ADD12O,1.700000X1.700000*%
%ADD13C,0.600000*%
%ADD14C,0.600000*%
%ADD15C,0.250000*%
%ADD16C,0.254000*%
G04 APERTURE END LIST*
D10*
D11*
X153670000Y-101600000D03*
D12*
X156210000Y-101600000D03*
D11*
X160600000Y-100500000D03*
D12*
X160600000Y-103040000D03*
X160600000Y-105580000D03*
X160600000Y-108120000D03*
X160600000Y-110660000D03*
X160600000Y-113200000D03*
D13*
X152400000Y-106680000D03*
X152400000Y-103886000D03*
X154686000Y-107950000D03*
D14*
X153670000Y-105410000D02*
X153670000Y-101600000D01*
X152400000Y-106680000D02*
X153670000Y-105410000D01*
D15*
X159596000Y-103040000D02*
X160600000Y-103040000D01*
X154686000Y-107950000D02*
X159596000Y-103040000D01*
D16*
G36*
X161850000Y-99151975D02*
X161809698Y-99111673D01*
X161576309Y-99015000D01*
X160885750Y-99015000D01*
X160727000Y-99173750D01*
X160727000Y-100373000D01*
X160747000Y-100373000D01*
X160747000Y-100627000D01*
X160727000Y-100627000D01*
X160727000Y-100647000D01*
X160473000Y-100647000D01*
X160473000Y-100627000D01*
X159273750Y-100627000D01*
X159115000Y-100785750D01*
X159115000Y-101476310D01*
X159211673Y-101709699D01*
X159390302Y-101888327D01*
X159564777Y-101960597D01*
X159520853Y-101989946D01*
X159274864Y-102358096D01*
X159058599Y-102502599D01*
X154546320Y-107014878D01*
X154500833Y-107014838D01*
X154157057Y-107156883D01*
X153893808Y-107419673D01*
X153751162Y-107763201D01*
X153750838Y-108135167D01*
X153892883Y-108478943D01*
X154155673Y-108742192D01*
X154499201Y-108884838D01*
X154871167Y-108885162D01*
X155214943Y-108743117D01*
X155478192Y-108480327D01*
X155620838Y-108136799D01*
X155620879Y-108089923D01*
X159580736Y-104130066D01*
X159850026Y-104310000D01*
X159520853Y-104529946D01*
X159198946Y-105011715D01*
X159085907Y-105580000D01*
X159198946Y-106148285D01*
X159520853Y-106630054D01*
X159850026Y-106850000D01*
X159520853Y-107069946D01*
X159198946Y-107551715D01*
X159085907Y-108120000D01*
X159198946Y-108688285D01*
X159520853Y-109170054D01*
X159850026Y-109390000D01*
X159520853Y-109609946D01*
X159198946Y-110091715D01*
X159085907Y-110660000D01*
X159198946Y-111228285D01*
X159520853Y-111710054D01*
X159850026Y-111930000D01*
X159520853Y-112149946D01*
X159198946Y-112631715D01*
X159085907Y-113200000D01*
X159198946Y-113768285D01*
X159520853Y-114250054D01*
X160002622Y-114571961D01*
X160570907Y-114685000D01*
X160629093Y-114685000D01*
X161197378Y-114571961D01*
X161679147Y-114250054D01*
X161850000Y-113994354D01*
X161850000Y-114860000D01*
X150570000Y-114860000D01*
X150570000Y-106865167D01*
X151464838Y-106865167D01*
X151606883Y-107208943D01*
X151869673Y-107472192D01*
X152213201Y-107614838D01*
X152585167Y-107615162D01*
X152928943Y-107473117D01*
X153192192Y-107210327D01*
X153192355Y-107209935D01*
X154331145Y-106071145D01*
X154533827Y-105767809D01*
X154605000Y-105410000D01*
X154605000Y-103081446D01*
X154755317Y-103053162D01*
X154971441Y-102914090D01*
X155116431Y-102701890D01*
X155130086Y-102634459D01*
X155159946Y-102679147D01*
X155641715Y-103001054D01*
X156210000Y-103114093D01*
X156778285Y-103001054D01*
X157260054Y-102679147D01*
X157581961Y-102197378D01*
X157695000Y-101629093D01*
X157695000Y-101570907D01*
X157581961Y-101002622D01*
X157260054Y-100520853D01*
X156778285Y-100198946D01*
X156210000Y-100085907D01*
X155641715Y-100198946D01*
X155159946Y-100520853D01*
X155132150Y-100562452D01*
X155123162Y-100514683D01*
X154984090Y-100298559D01*
X154771890Y-100153569D01*
X154520000Y-100102560D01*
X152820000Y-100102560D01*
X152584683Y-100146838D01*
X152368559Y-100285910D01*
X152223569Y-100498110D01*
X152172560Y-100750000D01*
X152172560Y-102450000D01*
X152216838Y-102685317D01*
X152355910Y-102901441D01*
X152568110Y-103046431D01*
X152735000Y-103080227D01*
X152735000Y-105022710D01*
X151739146Y-106018564D01*
X151607808Y-106149673D01*
X151465162Y-106493201D01*
X151464838Y-106865167D01*
X150570000Y-106865167D01*
X150570000Y-99523690D01*
X159115000Y-99523690D01*
X159115000Y-100214250D01*
X159273750Y-100373000D01*
X160473000Y-100373000D01*
X160473000Y-99173750D01*
X160314250Y-99015000D01*
X159623691Y-99015000D01*
X159390302Y-99111673D01*
X159211673Y-99290301D01*
X159115000Y-99523690D01*
X150570000Y-99523690D01*
X150570000Y-98500000D01*
X161850000Y-98500000D01*
X161850000Y-99151975D01*
X161850000Y-99151975D01*
G37*
X161850000Y-99151975D02*
X161809698Y-99111673D01*
X161576309Y-99015000D01*
X160885750Y-99015000D01*
X160727000Y-99173750D01*
X160727000Y-100373000D01*
X160747000Y-100373000D01*
X160747000Y-100627000D01*
X160727000Y-100627000D01*
X160727000Y-100647000D01*
X160473000Y-100647000D01*
X160473000Y-100627000D01*
X159273750Y-100627000D01*
X159115000Y-100785750D01*
X159115000Y-101476310D01*
X159211673Y-101709699D01*
X159390302Y-101888327D01*
X159564777Y-101960597D01*
X159520853Y-101989946D01*
X159274864Y-102358096D01*
X159058599Y-102502599D01*
X154546320Y-107014878D01*
X154500833Y-107014838D01*
X154157057Y-107156883D01*
X153893808Y-107419673D01*
X153751162Y-107763201D01*
X153750838Y-108135167D01*
X153892883Y-108478943D01*
X154155673Y-108742192D01*
X154499201Y-108884838D01*
X154871167Y-108885162D01*
X155214943Y-108743117D01*
X155478192Y-108480327D01*
X155620838Y-108136799D01*
X155620879Y-108089923D01*
X159580736Y-104130066D01*
X159850026Y-104310000D01*
X159520853Y-104529946D01*
X159198946Y-105011715D01*
X159085907Y-105580000D01*
X159198946Y-106148285D01*
X159520853Y-106630054D01*
X159850026Y-106850000D01*
X159520853Y-107069946D01*
X159198946Y-107551715D01*
X159085907Y-108120000D01*
X159198946Y-108688285D01*
X159520853Y-109170054D01*
X159850026Y-109390000D01*
X159520853Y-109609946D01*
X159198946Y-110091715D01*
X159085907Y-110660000D01*
X159198946Y-111228285D01*
X159520853Y-111710054D01*
X159850026Y-111930000D01*
X159520853Y-112149946D01*
X159198946Y-112631715D01*
X159085907Y-113200000D01*
X159198946Y-113768285D01*
X159520853Y-114250054D01*
X160002622Y-114571961D01*
X160570907Y-114685000D01*
X160629093Y-114685000D01*
X161197378Y-114571961D01*
X161679147Y-114250054D01*
X161850000Y-113994354D01*
X161850000Y-114860000D01*
X150570000Y-114860000D01*
X150570000Y-106865167D01*
X151464838Y-106865167D01*
X151606883Y-107208943D01*
X151869673Y-107472192D01*
X152213201Y-107614838D01*
X152585167Y-107615162D01*
X152928943Y-107473117D01*
X153192192Y-107210327D01*
X153192355Y-107209935D01*
X154331145Y-106071145D01*
X154533827Y-105767809D01*
X154605000Y-105410000D01*
X154605000Y-103081446D01*
X154755317Y-103053162D01*
X154971441Y-102914090D01*
X155116431Y-102701890D01*
X155130086Y-102634459D01*
X155159946Y-102679147D01*
X155641715Y-103001054D01*
X156210000Y-103114093D01*
X156778285Y-103001054D01*
X157260054Y-102679147D01*
X157581961Y-102197378D01*
X157695000Y-101629093D01*
X157695000Y-101570907D01*
X157581961Y-101002622D01*
X157260054Y-100520853D01*
X156778285Y-100198946D01*
X156210000Y-100085907D01*
X155641715Y-100198946D01*
X155159946Y-100520853D01*
X155132150Y-100562452D01*
X155123162Y-100514683D01*
X154984090Y-100298559D01*
X154771890Y-100153569D01*
X154520000Y-100102560D01*
X152820000Y-100102560D01*
X152584683Y-100146838D01*
X152368559Y-100285910D01*
X152223569Y-100498110D01*
X152172560Y-100750000D01*
X152172560Y-102450000D01*
X152216838Y-102685317D01*
X152355910Y-102901441D01*
X152568110Y-103046431D01*
X152735000Y-103080227D01*
X152735000Y-105022710D01*
X151739146Y-106018564D01*
X151607808Y-106149673D01*
X151465162Y-106493201D01*
X151464838Y-106865167D01*
X150570000Y-106865167D01*
X150570000Y-99523690D01*
X159115000Y-99523690D01*
X159115000Y-100214250D01*
X159273750Y-100373000D01*
X160473000Y-100373000D01*
X160473000Y-99173750D01*
X160314250Y-99015000D01*
X159623691Y-99015000D01*
X159390302Y-99111673D01*
X159211673Y-99290301D01*
X159115000Y-99523690D01*
X150570000Y-99523690D01*
X150570000Y-98500000D01*
X161850000Y-98500000D01*
X161850000Y-99151975D01*
M02*
