G04 #@! TF.FileFunction,Soldermask,Top*
%FSLAX46Y46*%
G04 Gerber Fmt 4.6, Leading zero omitted, Abs format (unit mm)*
G04 Created by KiCad (PCBNEW 4.0.2-stable) date Tuesday, 19 July 2016 02:12:12*
%MOMM*%
G01*
G04 APERTURE LIST*
%ADD10C,0.100000*%
%ADD11R,1.460000X1.050000*%
%ADD12R,1.900000X1.650000*%
%ADD13R,1.900000X1.700000*%
%ADD14R,1.421080X0.808940*%
%ADD15R,0.699720X1.850000*%
%ADD16R,0.819100X1.870660*%
%ADD17R,1.650000X1.900000*%
%ADD18R,1.700480X1.799540*%
%ADD19R,0.808940X1.421080*%
%ADD20R,1.700000X1.900000*%
%ADD21C,2.900000*%
%ADD22R,0.806400X2.051000*%
%ADD23R,1.200100X1.200100*%
%ADD24R,1.700000X2.300000*%
%ADD25R,1.400000X3.200000*%
%ADD26R,1.100000X1.600000*%
%ADD27R,1.400000X1.600000*%
%ADD28R,1.050000X1.600000*%
%ADD29R,1.400000X1.200000*%
%ADD30C,3.399740*%
%ADD31C,1.901140*%
%ADD32O,2.400000X1.900000*%
%ADD33R,2.400000X1.900000*%
%ADD34R,3.900120X3.900120*%
%ADD35R,2.297380X2.297380*%
%ADD36R,1.748740X0.798780*%
%ADD37R,1.746200X0.798780*%
%ADD38C,1.197560*%
%ADD39R,0.990000X0.850000*%
%ADD40R,1.600000X1.300000*%
%ADD41R,1.950000X3.018200*%
%ADD42R,2.432000X2.127200*%
%ADD43O,2.432000X2.127200*%
%ADD44R,1.900000X0.700000*%
%ADD45R,0.700000X1.900000*%
%ADD46R,4.600000X4.600000*%
G04 APERTURE END LIST*
D10*
D11*
X189149520Y-86320480D03*
X189149520Y-85370480D03*
X189149520Y-84420480D03*
X186949520Y-84420480D03*
X186949520Y-86320480D03*
D12*
X186799520Y-82195480D03*
X189299520Y-82195480D03*
D13*
X186699520Y-88545480D03*
X189399520Y-88545480D03*
D14*
X128835020Y-42570388D03*
X128835020Y-43220628D03*
X128835020Y-43870868D03*
X128835020Y-44521108D03*
X133437500Y-44521108D03*
X133437500Y-43870868D03*
X133437500Y-43220628D03*
X133437500Y-42570388D03*
D15*
X172950280Y-69299240D03*
X172449900Y-69299240D03*
X171949520Y-69299240D03*
X171449140Y-69299240D03*
X170948760Y-69299240D03*
X170948760Y-73901720D03*
X171449140Y-73901720D03*
X171949520Y-73901720D03*
X172449900Y-73901720D03*
X172950280Y-73901720D03*
D16*
X155354640Y-59711400D03*
X154704400Y-59711400D03*
X154054160Y-59711400D03*
X153403920Y-59711400D03*
X157295200Y-65304480D03*
X157305360Y-59711400D03*
X156655120Y-59711400D03*
X156004880Y-59711400D03*
X152753680Y-65309560D03*
X153403920Y-65309560D03*
X154054160Y-65309560D03*
X154704400Y-65309560D03*
X155354640Y-65309560D03*
X156004880Y-65309560D03*
X152753680Y-59711400D03*
X156655120Y-65304480D03*
X157955600Y-59711400D03*
X152103440Y-59711400D03*
X152103440Y-65309560D03*
X157955600Y-65309560D03*
X158603300Y-59711400D03*
X151455740Y-59711400D03*
X151455740Y-65309560D03*
X158603300Y-65309560D03*
D17*
X137559520Y-102630480D03*
X137559520Y-105130480D03*
X176619520Y-104440480D03*
X176619520Y-106940480D03*
D12*
X182949520Y-80925480D03*
X180449520Y-80925480D03*
X129050000Y-77350960D03*
X131550000Y-77350960D03*
X153779520Y-56160480D03*
X156279520Y-56160480D03*
X179179520Y-104420480D03*
X181679520Y-104420480D03*
D17*
X182575200Y-87406800D03*
X182575200Y-84906800D03*
D18*
X160564180Y-126645480D03*
X163464860Y-126645480D03*
X166279180Y-126645480D03*
X169179860Y-126645480D03*
D13*
X127449520Y-108000480D03*
X130149520Y-108000480D03*
D19*
X162989880Y-119899240D03*
X162339640Y-119899240D03*
X161689400Y-119899240D03*
X161039160Y-119899240D03*
X161039160Y-124501720D03*
X161689400Y-124501720D03*
X162339640Y-124501720D03*
X162989880Y-124501720D03*
X168704880Y-119899240D03*
X168054640Y-119899240D03*
X167404400Y-119899240D03*
X166754160Y-119899240D03*
X166754160Y-124501720D03*
X167404400Y-124501720D03*
X168054640Y-124501720D03*
X168704880Y-124501720D03*
D14*
X181460760Y-45070840D03*
X181460760Y-44420600D03*
X181460760Y-43770360D03*
X181460760Y-43120120D03*
X176858280Y-43120120D03*
X176858280Y-43770360D03*
X176858280Y-44420600D03*
X176858280Y-45070840D03*
D20*
X140099520Y-102530480D03*
X140099520Y-105230480D03*
D13*
X183049520Y-78385480D03*
X180349520Y-78385480D03*
X128950000Y-79450960D03*
X131650000Y-79450960D03*
X180299520Y-88600480D03*
X177599520Y-88600480D03*
X163364520Y-117755480D03*
X160664520Y-117755480D03*
X166379520Y-117755480D03*
X169079520Y-117755480D03*
D21*
X167529520Y-131150480D03*
X152529520Y-131150480D03*
X147529520Y-131150480D03*
X142529520Y-131150480D03*
X142529520Y-138600480D03*
X147529520Y-138600480D03*
X152529520Y-138600480D03*
X167519520Y-138660480D03*
X162529520Y-131150480D03*
X162529520Y-138600480D03*
D22*
X181389640Y-93836300D03*
X180739400Y-93836300D03*
X180089160Y-93836300D03*
X179438920Y-93836300D03*
X183340360Y-101034660D03*
X183340360Y-93836300D03*
X182690120Y-93836300D03*
X182039880Y-93836300D03*
X178788680Y-101034660D03*
X179438920Y-101034660D03*
X180089160Y-101034660D03*
X180739400Y-101034660D03*
X181389640Y-101034660D03*
X182039880Y-101034660D03*
X178788680Y-93836300D03*
X182690120Y-101034660D03*
X183990600Y-101034660D03*
X184638300Y-101034660D03*
X185288540Y-101034660D03*
X185288540Y-93836300D03*
X184638300Y-93836300D03*
X183990600Y-93836300D03*
X178138440Y-93836300D03*
X177490740Y-93836300D03*
X176840500Y-93836300D03*
X176840500Y-101034660D03*
X177490740Y-101034660D03*
X178138440Y-101034660D03*
D23*
X130249520Y-38401240D03*
X132149520Y-38401240D03*
X131199520Y-36402260D03*
X179300000Y-38250760D03*
X181200000Y-38250760D03*
X180250000Y-36251780D03*
D13*
X129849520Y-40400480D03*
X132549520Y-40400480D03*
X182600000Y-40500000D03*
X179900000Y-40500000D03*
D19*
X123524160Y-80301720D03*
X124174400Y-80301720D03*
X124824640Y-80301720D03*
X125474880Y-80301720D03*
X125474880Y-75699240D03*
X124824640Y-75699240D03*
X124174400Y-75699240D03*
X123524160Y-75699240D03*
X120124160Y-80301720D03*
X120774400Y-80301720D03*
X121424640Y-80301720D03*
X122074880Y-80301720D03*
X122074880Y-75699240D03*
X121424640Y-75699240D03*
X120774400Y-75699240D03*
X120124160Y-75699240D03*
D13*
X180299520Y-90850480D03*
X177599520Y-90850480D03*
D11*
X123799520Y-85550480D03*
X123799520Y-84600480D03*
X123799520Y-83650480D03*
X121599520Y-83650480D03*
X121599520Y-85550480D03*
D12*
X123934520Y-125375480D03*
X126434520Y-125375480D03*
X175964520Y-112040480D03*
X173464520Y-112040480D03*
D24*
X147929520Y-37555480D03*
D25*
X161429520Y-38005480D03*
D26*
X151829520Y-52655480D03*
X152929520Y-52655480D03*
X154029520Y-52655480D03*
X155129520Y-52655480D03*
X156229520Y-52655480D03*
X157329520Y-52655480D03*
X158429520Y-52655480D03*
X159529520Y-52655480D03*
D27*
X150279520Y-52655480D03*
D28*
X160479520Y-52655480D03*
D29*
X161429520Y-42155480D03*
D27*
X161429520Y-48355480D03*
D30*
X182865380Y-74796460D03*
X182865380Y-61654500D03*
D31*
X180155200Y-71725600D03*
X180155200Y-69226240D03*
X180155200Y-67224720D03*
X180155200Y-64725360D03*
D30*
X129029140Y-60779020D03*
X129029140Y-73920980D03*
D31*
X131739320Y-63849880D03*
X131739320Y-66349240D03*
X131739320Y-68350760D03*
X131739320Y-70850120D03*
D32*
X187164520Y-46635480D03*
X190204520Y-46635480D03*
D33*
X190204520Y-54255480D03*
D32*
X187164520Y-54255480D03*
X190204520Y-51715480D03*
X187164520Y-51715480D03*
X190204520Y-49175480D03*
X187164520Y-49175480D03*
X124670000Y-54010000D03*
X121630000Y-54010000D03*
D33*
X121630000Y-46390000D03*
D32*
X124670000Y-46390000D03*
X121630000Y-48930000D03*
X124670000Y-48930000D03*
X121630000Y-51470000D03*
X124670000Y-51470000D03*
D34*
X183119380Y-134265480D03*
X189118860Y-134265480D03*
X186119120Y-129566480D03*
D30*
X182865380Y-124961460D03*
X182865380Y-111819500D03*
D31*
X180155200Y-121890600D03*
X180155200Y-119391240D03*
X180155200Y-117389720D03*
X180155200Y-114890360D03*
D35*
X120739520Y-118461600D03*
X120739520Y-120859360D03*
X120739520Y-123610180D03*
X120739520Y-115710780D03*
D36*
X123414140Y-118360000D03*
D37*
X123414140Y-119012780D03*
X123414140Y-119660480D03*
X123414140Y-120308180D03*
X123414140Y-120960960D03*
D38*
X123189520Y-121710480D03*
X123189520Y-117610480D03*
D34*
X128844660Y-134265480D03*
X122845180Y-134265480D03*
X125844920Y-138964480D03*
D13*
X123834520Y-127915480D03*
X126534520Y-127915480D03*
X176064520Y-114580480D03*
X173364520Y-114580480D03*
D39*
X131114520Y-47778480D03*
X133224520Y-47778480D03*
X181484520Y-47905480D03*
X179374520Y-47905480D03*
D12*
X120699520Y-89600480D03*
X123199520Y-89600480D03*
X120699520Y-94100480D03*
X123199520Y-94100480D03*
D17*
X149949520Y-99350480D03*
X149949520Y-96850480D03*
X152449520Y-96850480D03*
X152449520Y-99350480D03*
D12*
X147999520Y-79770480D03*
X145499520Y-79770480D03*
X165699520Y-85850480D03*
X168199520Y-85850480D03*
D17*
X167449520Y-106100480D03*
X167449520Y-108600480D03*
X154949520Y-96850480D03*
X154949520Y-99350480D03*
D12*
X165699520Y-81850480D03*
X168199520Y-81850480D03*
D17*
X158199520Y-74850480D03*
X158199520Y-72350480D03*
D12*
X163199520Y-92350480D03*
X165699520Y-92350480D03*
D17*
X154949520Y-74850480D03*
X154949520Y-72350480D03*
D12*
X165449520Y-77100480D03*
X167949520Y-77100480D03*
D17*
X160449520Y-106350480D03*
X160449520Y-108850480D03*
X152199520Y-74850480D03*
X152199520Y-72350480D03*
D12*
X144149520Y-123600480D03*
X146649520Y-123600480D03*
D17*
X157449520Y-96850480D03*
X157449520Y-99350480D03*
D12*
X144449520Y-114600480D03*
X146949520Y-114600480D03*
D40*
X138689520Y-123470480D03*
X140889520Y-123470480D03*
X138689520Y-114580480D03*
X140889520Y-114580480D03*
D41*
X166484320Y-101038880D03*
X166484320Y-96162080D03*
X161409520Y-96162080D03*
X161414720Y-101038880D03*
D42*
X190589520Y-101245480D03*
D43*
X190589520Y-98705480D03*
X190589520Y-96165480D03*
X190589520Y-93625480D03*
D13*
X137449520Y-107600480D03*
X140149520Y-107600480D03*
X123299520Y-91850480D03*
X120599520Y-91850480D03*
X143599520Y-89350480D03*
X146299520Y-89350480D03*
X143599520Y-92350480D03*
X146299520Y-92350480D03*
X143599520Y-86600480D03*
X146299520Y-86600480D03*
X166049520Y-90100480D03*
X163349520Y-90100480D03*
X143599520Y-83600480D03*
X146299520Y-83600480D03*
X165299520Y-105600480D03*
X162599520Y-105600480D03*
D44*
X151159520Y-80465480D03*
X151159520Y-80965480D03*
X151159520Y-81465480D03*
X151159520Y-81965480D03*
X151159520Y-82465480D03*
X151159520Y-82965480D03*
X151159520Y-83465480D03*
X151159520Y-83965480D03*
X151159520Y-84465480D03*
X151159520Y-84965480D03*
X151159520Y-85465480D03*
X151159520Y-85965480D03*
X151159520Y-86465480D03*
X151159520Y-86965480D03*
X151159520Y-87465480D03*
X151159520Y-87965480D03*
D45*
X153159520Y-89965480D03*
X153659520Y-89965480D03*
X154159520Y-89965480D03*
X154659520Y-89965480D03*
X155159520Y-89965480D03*
X155659520Y-89965480D03*
X156159520Y-89965480D03*
X156659520Y-89965480D03*
X157159520Y-89965480D03*
X157659520Y-89965480D03*
X158159520Y-89965480D03*
X158659520Y-89965480D03*
X159159520Y-89965480D03*
X159659520Y-89965480D03*
X160159520Y-89965480D03*
X160659520Y-89965480D03*
D44*
X162659520Y-87965480D03*
X162659520Y-87465480D03*
X162659520Y-86965480D03*
X162659520Y-86465480D03*
X162659520Y-85965480D03*
X162659520Y-85465480D03*
X162659520Y-84965480D03*
X162659520Y-84465480D03*
X162659520Y-83965480D03*
X162659520Y-83465480D03*
X162659520Y-82965480D03*
X162659520Y-82465480D03*
X162659520Y-81965480D03*
X162659520Y-81465480D03*
X162659520Y-80965480D03*
X162659520Y-80465480D03*
D45*
X160659520Y-78465480D03*
X160159520Y-78465480D03*
X159659520Y-78465480D03*
X159159520Y-78465480D03*
X158659520Y-78465480D03*
X158159520Y-78465480D03*
X157659520Y-78465480D03*
X157159520Y-78465480D03*
X156659520Y-78465480D03*
X156159520Y-78465480D03*
X155659520Y-78465480D03*
X155159520Y-78465480D03*
X154659520Y-78465480D03*
X154159520Y-78465480D03*
X153659520Y-78465480D03*
X153159520Y-78465480D03*
D46*
X156909520Y-84215480D03*
D11*
X131704520Y-117440480D03*
X131704520Y-118390480D03*
X131704520Y-119340480D03*
X133904520Y-119340480D03*
X133904520Y-117440480D03*
X138689520Y-117440480D03*
X138689520Y-118390480D03*
X138689520Y-119340480D03*
X140889520Y-119340480D03*
X140889520Y-117440480D03*
D35*
X120799520Y-102001600D03*
X120799520Y-104399360D03*
X120799520Y-107150180D03*
X120799520Y-99250780D03*
D36*
X123474140Y-101900000D03*
D37*
X123474140Y-102552780D03*
X123474140Y-103200480D03*
X123474140Y-103848180D03*
X123474140Y-104500960D03*
D38*
X123249520Y-105250480D03*
X123249520Y-101150480D03*
D12*
X174924400Y-73863200D03*
X177424400Y-73863200D03*
M02*
