G04 #@! TF.FileFunction,Legend,Top*
%FSLAX46Y46*%
G04 Gerber Fmt 4.6, Leading zero omitted, Abs format (unit mm)*
G04 Created by KiCad (PCBNEW 4.0.2-stable) date Tuesday, 19 July 2016 11:50:17*
%MOMM*%
G01*
G04 APERTURE LIST*
%ADD10C,0.200000*%
%ADD11C,0.150000*%
%ADD12C,0.203200*%
G04 APERTURE END LIST*
D10*
D11*
X145820000Y-105050000D02*
X155215000Y-105050000D01*
X145015000Y-104250000D02*
G75*
G03X145815000Y-105050000I800000J0D01*
G01*
X155215000Y-105050000D02*
G75*
G03X156015000Y-104250000I0J800000D01*
G01*
X146050000Y-118110000D02*
X156210000Y-118110000D01*
X156210000Y-118110000D02*
X156210000Y-124460000D01*
X156210000Y-124460000D02*
X146050000Y-124460000D01*
X146050000Y-124460000D02*
X146050000Y-118110000D01*
D10*
X154290000Y-119515000D02*
X154290000Y-120015000D01*
X155590000Y-119515000D02*
X155590000Y-120015000D01*
X154290000Y-120015000D02*
G75*
G03X155590000Y-120015000I650000J0D01*
G01*
X155590000Y-119515000D02*
G75*
G03X154290000Y-119515000I-650000J0D01*
G01*
X154290000Y-122555000D02*
X154290000Y-123055000D01*
X155590000Y-122555000D02*
X155590000Y-123055000D01*
X154290000Y-123055000D02*
G75*
G03X155590000Y-123055000I650000J0D01*
G01*
X155590000Y-122555000D02*
G75*
G03X154290000Y-122555000I-650000J0D01*
G01*
X146670000Y-119515000D02*
X146670000Y-120015000D01*
X147970000Y-119515000D02*
X147970000Y-120015000D01*
X146670000Y-120015000D02*
G75*
G03X147970000Y-120015000I650000J0D01*
G01*
X147970000Y-119515000D02*
G75*
G03X146670000Y-119515000I-650000J0D01*
G01*
X149210000Y-122555000D02*
X149210000Y-123055000D01*
X150510000Y-122555000D02*
X150510000Y-123055000D01*
X149210000Y-123055000D02*
G75*
G03X150510000Y-123055000I650000J0D01*
G01*
X150510000Y-122555000D02*
G75*
G03X149210000Y-122555000I-650000J0D01*
G01*
X149210000Y-119515000D02*
X149210000Y-120015000D01*
X150510000Y-119515000D02*
X150510000Y-120015000D01*
X149210000Y-120015000D02*
G75*
G03X150510000Y-120015000I650000J0D01*
G01*
X150510000Y-119515000D02*
G75*
G03X149210000Y-119515000I-650000J0D01*
G01*
X151750000Y-122555000D02*
X151750000Y-123055000D01*
X153050000Y-122555000D02*
X153050000Y-123055000D01*
X151750000Y-123055000D02*
G75*
G03X153050000Y-123055000I650000J0D01*
G01*
X153050000Y-122555000D02*
G75*
G03X151750000Y-122555000I-650000J0D01*
G01*
X151750000Y-119515000D02*
X151750000Y-120015000D01*
X153050000Y-119515000D02*
X153050000Y-120015000D01*
X151750000Y-120015000D02*
G75*
G03X153050000Y-120015000I650000J0D01*
G01*
X153050000Y-119515000D02*
G75*
G03X151750000Y-119515000I-650000J0D01*
G01*
D12*
X157932381Y-120118095D02*
X156932381Y-120118095D01*
X156932381Y-119737142D01*
X156980000Y-119641904D01*
X157027619Y-119594285D01*
X157122857Y-119546666D01*
X157265714Y-119546666D01*
X157360952Y-119594285D01*
X157408571Y-119641904D01*
X157456190Y-119737142D01*
X157456190Y-120118095D01*
X157932381Y-118594285D02*
X157932381Y-119165714D01*
X157932381Y-118880000D02*
X156932381Y-118880000D01*
X157075238Y-118975238D01*
X157170476Y-119070476D01*
X157218095Y-119165714D01*
M02*
