M48
;DRILL file {KiCad 4.0.2-stable} date Tuesday, 19 July 2016 01:58:18
;FORMAT={-:-/ absolute / metric / decimal}
FMAT,2
METRIC,TZ
T1C0.400
T2C0.899
T3C1.000
T4C1.016
T5C1.300
T6C1.700
T7C1.999
T8C3.500
T9C0.798
%
G90
G05
M71
T1
X122.25Y-87.25
X125.5Y-101.5
X126.Y-56.25
X126.492Y-121.158
X128.25Y-39.25
X128.25Y-111.75
X131.916Y-49.937
X132.25Y-108.
X133.75Y-101.25
X148.Y-96.
X149.Y-89.5
X149.75Y-60.25
X149.95Y-95.35
X150.25Y-64.
X151.2Y-89.85
X152.45Y-95.35
X152.75Y-62.
X152.95Y-92.85
X153.34Y-84.226
X153.5Y-82.25
X153.518Y-86.208
X153.721Y-87.579
X154.2Y-92.35
X154.5Y-62.
X154.95Y-95.1
X155.778Y-87.3
X156.Y-61.75
X156.Y-67.
X157.556Y-87.249
X157.75Y-81.
X160.25Y-80.5
X160.25Y-87.5
X163.25Y-114.75
X164.7Y-119.6
X164.75Y-70.
X167.Y-71.
X169.75Y-68.5
X170.Y-113.5
X171.95Y-71.35
X171.95Y-78.6
X172.25Y-93.
X174.5Y-70.5
X176.5Y-76.
X176.5Y-79.75
X177.Y-86.5
X178.Y-97.75
X178.25Y-48.75
X180.25Y-87.
X181.25Y-51.75
X181.75Y-92.
X183.5Y-91.25
X183.75Y-37.25
X183.75Y-89.
X184.75Y-91.5
X187.Y-96.
X188.Y-79.75
T2
X131.739Y-63.85
X131.739Y-66.349
X131.739Y-68.351
X131.739Y-70.85
X180.155Y-64.725
X180.155Y-67.225
X180.155Y-69.226
X180.155Y-71.726
X180.155Y-114.89
X180.155Y-117.39
X180.155Y-119.391
X180.155Y-121.891
T3
X121.88Y-46.39
X121.88Y-48.93
X121.88Y-51.47
X121.88Y-54.01
X124.42Y-46.39
X124.42Y-48.93
X124.42Y-51.47
X124.42Y-54.01
X187.415Y-46.635
X187.415Y-49.175
X187.415Y-51.715
X187.415Y-54.255
X189.955Y-46.635
X189.955Y-49.175
X189.955Y-51.715
X189.955Y-54.255
T4
X190.59Y-93.625
X190.59Y-96.165
X190.59Y-98.705
X190.59Y-101.245
T5
X142.53Y-131.15
X142.53Y-138.6
X147.53Y-131.15
X147.53Y-138.6
X152.53Y-131.15
X152.53Y-138.6
X162.53Y-131.15
X162.53Y-138.6
X167.52Y-138.66
X167.53Y-131.15
T6
X122.845Y-134.265
X125.845Y-138.964
X128.845Y-134.265
X183.119Y-134.265
X186.119Y-129.566
X189.119Y-134.265
T7
X129.029Y-60.779
X129.029Y-73.921
X182.865Y-61.654
X182.865Y-74.796
X182.865Y-111.819
X182.865Y-124.961
T8
X121.375Y-37.11
X121.375Y-143.79
X190.59Y-37.11
X190.59Y-143.79
T9
X123.19Y-117.61
X123.19Y-121.71
X123.25Y-101.15
X123.25Y-105.25
T0
M30
