G04 #@! TF.FileFunction,Copper,L1,Top,Signal*
%FSLAX46Y46*%
G04 Gerber Fmt 4.6, Leading zero omitted, Abs format (unit mm)*
G04 Created by KiCad (PCBNEW 4.0.2-stable) date Thursday, 21 July 2016 'pmt' 12:04:49*
%MOMM*%
G01*
G04 APERTURE LIST*
%ADD10C,0.200000*%
%ADD11O,1.500000X2.000000*%
%ADD12R,1.500000X2.000000*%
%ADD13R,0.800000X2.900000*%
%ADD14R,0.800000X3.200000*%
%ADD15C,0.250000*%
G04 APERTURE END LIST*
D10*
D11*
X153670000Y-122805000D03*
X153670000Y-119765000D03*
D12*
X146050000Y-119765000D03*
D11*
X146050000Y-122805000D03*
X148590000Y-119765000D03*
X148590000Y-122805000D03*
X151130000Y-119765000D03*
X151130000Y-122805000D03*
D13*
X155000000Y-92580000D03*
X153900000Y-92580000D03*
D14*
X152800000Y-92430000D03*
D13*
X151700000Y-92580000D03*
D14*
X150600000Y-92430000D03*
D13*
X149500000Y-92580000D03*
X148400000Y-92580000D03*
X147300000Y-92580000D03*
D15*
X155000000Y-92580000D02*
X155000000Y-100905000D01*
X154940000Y-121285000D02*
X153670000Y-122555000D01*
X154940000Y-100965000D02*
X154940000Y-121285000D01*
X155000000Y-100905000D02*
X154940000Y-100965000D01*
X153900000Y-92580000D02*
X153900000Y-100735000D01*
X153670000Y-100965000D02*
X153670000Y-120015000D01*
X153900000Y-100735000D02*
X153670000Y-100965000D01*
X152800000Y-92430000D02*
X152800000Y-100565000D01*
X152400000Y-121285000D02*
X151130000Y-122555000D01*
X152400000Y-100965000D02*
X152400000Y-121285000D01*
X152800000Y-100565000D02*
X152400000Y-100965000D01*
X151700000Y-92580000D02*
X151700000Y-100395000D01*
X151130000Y-100965000D02*
X151130000Y-120015000D01*
X151700000Y-100395000D02*
X151130000Y-100965000D01*
X150600000Y-92430000D02*
X150600000Y-100225000D01*
X149860000Y-121285000D02*
X148590000Y-122555000D01*
X149860000Y-100965000D02*
X149860000Y-121285000D01*
X150600000Y-100225000D02*
X149860000Y-100965000D01*
X149500000Y-92580000D02*
X149500000Y-100055000D01*
X148590000Y-100965000D02*
X148590000Y-120015000D01*
X149500000Y-100055000D02*
X148590000Y-100965000D01*
X148400000Y-92580000D02*
X148400000Y-99885000D01*
X147320000Y-121285000D02*
X146050000Y-122555000D01*
X147320000Y-100965000D02*
X147320000Y-121285000D01*
X148400000Y-99885000D02*
X147320000Y-100965000D01*
X147300000Y-92580000D02*
X147300000Y-99715000D01*
X146050000Y-100965000D02*
X146050000Y-120015000D01*
X147300000Y-99715000D02*
X146050000Y-100965000D01*
M02*
