G04 #@! TF.FileFunction,Legend,Bot*
%FSLAX46Y46*%
G04 Gerber Fmt 4.6, Leading zero omitted, Abs format (unit mm)*
G04 Created by KiCad (PCBNEW 4.0.2-stable) date Thursday, 21 July 2016 'pmt' 12:04:49*
%MOMM*%
G01*
G04 APERTURE LIST*
%ADD10C,0.200000*%
%ADD11C,0.150000*%
%ADD12C,0.203200*%
G04 APERTURE END LIST*
D10*
D11*
X144780000Y-124460000D02*
X154940000Y-124460000D01*
X154940000Y-124460000D02*
X154940000Y-118110000D01*
X154940000Y-118110000D02*
X144780000Y-118110000D01*
X144780000Y-118110000D02*
X144780000Y-124460000D01*
D10*
X153020000Y-122555000D02*
X153020000Y-123055000D01*
X154320000Y-122555000D02*
X154320000Y-123055000D01*
X153020000Y-123055000D02*
G75*
G03X154320000Y-123055000I650000J0D01*
G01*
X154320000Y-122555000D02*
G75*
G03X153020000Y-122555000I-650000J0D01*
G01*
X153020000Y-119515000D02*
X153020000Y-120015000D01*
X154320000Y-119515000D02*
X154320000Y-120015000D01*
X153020000Y-120015000D02*
G75*
G03X154320000Y-120015000I650000J0D01*
G01*
X154320000Y-119515000D02*
G75*
G03X153020000Y-119515000I-650000J0D01*
G01*
X145400000Y-122555000D02*
X145400000Y-123055000D01*
X146700000Y-122555000D02*
X146700000Y-123055000D01*
X145400000Y-123055000D02*
G75*
G03X146700000Y-123055000I650000J0D01*
G01*
X146700000Y-122555000D02*
G75*
G03X145400000Y-122555000I-650000J0D01*
G01*
X147940000Y-119515000D02*
X147940000Y-120015000D01*
X149240000Y-119515000D02*
X149240000Y-120015000D01*
X147940000Y-120015000D02*
G75*
G03X149240000Y-120015000I650000J0D01*
G01*
X149240000Y-119515000D02*
G75*
G03X147940000Y-119515000I-650000J0D01*
G01*
X147940000Y-122555000D02*
X147940000Y-123055000D01*
X149240000Y-122555000D02*
X149240000Y-123055000D01*
X147940000Y-123055000D02*
G75*
G03X149240000Y-123055000I650000J0D01*
G01*
X149240000Y-122555000D02*
G75*
G03X147940000Y-122555000I-650000J0D01*
G01*
X150480000Y-119515000D02*
X150480000Y-120015000D01*
X151780000Y-119515000D02*
X151780000Y-120015000D01*
X150480000Y-120015000D02*
G75*
G03X151780000Y-120015000I650000J0D01*
G01*
X151780000Y-119515000D02*
G75*
G03X150480000Y-119515000I-650000J0D01*
G01*
X150480000Y-122555000D02*
X150480000Y-123055000D01*
X151780000Y-122555000D02*
X151780000Y-123055000D01*
X150480000Y-123055000D02*
G75*
G03X151780000Y-123055000I650000J0D01*
G01*
X151780000Y-122555000D02*
G75*
G03X150480000Y-122555000I-650000J0D01*
G01*
D12*
X156662381Y-122451905D02*
X155662381Y-122451905D01*
X155662381Y-122832858D01*
X155710000Y-122928096D01*
X155757619Y-122975715D01*
X155852857Y-123023334D01*
X155995714Y-123023334D01*
X156090952Y-122975715D01*
X156138571Y-122928096D01*
X156186190Y-122832858D01*
X156186190Y-122451905D01*
X156662381Y-123975715D02*
X156662381Y-123404286D01*
X156662381Y-123690000D02*
X155662381Y-123690000D01*
X155805238Y-123594762D01*
X155900476Y-123499524D01*
X155948095Y-123404286D01*
M02*
